<?xml version="1.0" encoding="utf-8" standalone="no"?>
<!DOCTYPE svg PUBLIC "-//W3C//DTD SVG 1.1//EN"
  "http://www.w3.org/Graphics/SVG/1.1/DTD/svg11.dtd">
<!-- Created with matplotlib (http://matplotlib.org/) -->
<svg height="345.6pt" version="1.1" viewBox="0 0 460.8 345.6" width="460.8pt" xmlns="http://www.w3.org/2000/svg" xmlns:xlink="http://www.w3.org/1999/xlink">
 <defs>
  <style type="text/css">
*{stroke-linecap:butt;stroke-linejoin:round;}
  </style>
 </defs>
 <g id="figure_1">
  <g id="patch_1">
   <path d="M 0 345.6 
L 460.8 345.6 
L 460.8 0 
L 0 0 
z
" style="fill:#ffffff;"/>
  </g>
  <g id="axes_1">
   <g id="patch_2">
    <path d="M 0 345.6 
L 460.8 345.6 
L 460.8 0 
L 0 0 
z
" style="fill:#ffffff;"/>
   </g>
   <g id="matplotlib.axis_1">
    <g id="xtick_1">
     <g id="line2d_1">
      <defs>
       <path d="M 0 0 
L 0 3.5 
" id="m1f568244d7" style="stroke:#000000;stroke-width:0.8;"/>
      </defs>
      <g>
       <use style="stroke:#000000;stroke-width:0.8;" x="4.517647" xlink:href="#m1f568244d7" y="345.6"/>
      </g>
     </g>
     <g id="text_1">
      <!-- −1.00 -->
      <defs>
       <path d="M 10.59375 35.5 
L 73.1875 35.5 
L 73.1875 27.203125 
L 10.59375 27.203125 
z
" id="DejaVuSans-2212"/>
       <path d="M 12.40625 8.296875 
L 28.515625 8.296875 
L 28.515625 63.921875 
L 10.984375 60.40625 
L 10.984375 69.390625 
L 28.421875 72.90625 
L 38.28125 72.90625 
L 38.28125 8.296875 
L 54.390625 8.296875 
L 54.390625 0 
L 12.40625 0 
z
" id="DejaVuSans-31"/>
       <path d="M 10.6875 12.40625 
L 21 12.40625 
L 21 0 
L 10.6875 0 
z
" id="DejaVuSans-2e"/>
       <path d="M 31.78125 66.40625 
Q 24.171875 66.40625 20.328125 58.90625 
Q 16.5 51.421875 16.5 36.375 
Q 16.5 21.390625 20.328125 13.890625 
Q 24.171875 6.390625 31.78125 6.390625 
Q 39.453125 6.390625 43.28125 13.890625 
Q 47.125 21.390625 47.125 36.375 
Q 47.125 51.421875 43.28125 58.90625 
Q 39.453125 66.40625 31.78125 66.40625 
z
M 31.78125 74.21875 
Q 44.046875 74.21875 50.515625 64.515625 
Q 56.984375 54.828125 56.984375 36.375 
Q 56.984375 17.96875 50.515625 8.265625 
Q 44.046875 -1.421875 31.78125 -1.421875 
Q 19.53125 -1.421875 13.0625 8.265625 
Q 6.59375 17.96875 6.59375 36.375 
Q 6.59375 54.828125 13.0625 64.515625 
Q 19.53125 74.21875 31.78125 74.21875 
z
" id="DejaVuSans-30"/>
      </defs>
      <g transform="translate(-10.805009 360.198437)scale(0.1 -0.1)">
       <use xlink:href="#DejaVuSans-2212"/>
       <use x="83.789062" xlink:href="#DejaVuSans-31"/>
       <use x="147.412109" xlink:href="#DejaVuSans-2e"/>
       <use x="179.199219" xlink:href="#DejaVuSans-30"/>
       <use x="242.822266" xlink:href="#DejaVuSans-30"/>
      </g>
     </g>
    </g>
    <g id="xtick_2">
     <g id="line2d_2">
      <g>
       <use style="stroke:#000000;stroke-width:0.8;" x="60.988235" xlink:href="#m1f568244d7" y="345.6"/>
      </g>
     </g>
     <g id="text_2">
      <!-- −0.75 -->
      <defs>
       <path d="M 8.203125 72.90625 
L 55.078125 72.90625 
L 55.078125 68.703125 
L 28.609375 0 
L 18.3125 0 
L 43.21875 64.59375 
L 8.203125 64.59375 
z
" id="DejaVuSans-37"/>
       <path d="M 10.796875 72.90625 
L 49.515625 72.90625 
L 49.515625 64.59375 
L 19.828125 64.59375 
L 19.828125 46.734375 
Q 21.96875 47.46875 24.109375 47.828125 
Q 26.265625 48.1875 28.421875 48.1875 
Q 40.625 48.1875 47.75 41.5 
Q 54.890625 34.8125 54.890625 23.390625 
Q 54.890625 11.625 47.5625 5.09375 
Q 40.234375 -1.421875 26.90625 -1.421875 
Q 22.3125 -1.421875 17.546875 -0.640625 
Q 12.796875 0.140625 7.71875 1.703125 
L 7.71875 11.625 
Q 12.109375 9.234375 16.796875 8.0625 
Q 21.484375 6.890625 26.703125 6.890625 
Q 35.15625 6.890625 40.078125 11.328125 
Q 45.015625 15.765625 45.015625 23.390625 
Q 45.015625 31 40.078125 35.4375 
Q 35.15625 39.890625 26.703125 39.890625 
Q 22.75 39.890625 18.8125 39.015625 
Q 14.890625 38.140625 10.796875 36.28125 
z
" id="DejaVuSans-35"/>
      </defs>
      <g transform="translate(45.665579 360.198437)scale(0.1 -0.1)">
       <use xlink:href="#DejaVuSans-2212"/>
       <use x="83.789062" xlink:href="#DejaVuSans-30"/>
       <use x="147.412109" xlink:href="#DejaVuSans-2e"/>
       <use x="179.199219" xlink:href="#DejaVuSans-37"/>
       <use x="242.822266" xlink:href="#DejaVuSans-35"/>
      </g>
     </g>
    </g>
    <g id="xtick_3">
     <g id="line2d_3">
      <g>
       <use style="stroke:#000000;stroke-width:0.8;" x="117.458824" xlink:href="#m1f568244d7" y="345.6"/>
      </g>
     </g>
     <g id="text_3">
      <!-- −0.50 -->
      <g transform="translate(102.136167 360.198437)scale(0.1 -0.1)">
       <use xlink:href="#DejaVuSans-2212"/>
       <use x="83.789062" xlink:href="#DejaVuSans-30"/>
       <use x="147.412109" xlink:href="#DejaVuSans-2e"/>
       <use x="179.199219" xlink:href="#DejaVuSans-35"/>
       <use x="242.822266" xlink:href="#DejaVuSans-30"/>
      </g>
     </g>
    </g>
    <g id="xtick_4">
     <g id="line2d_4">
      <g>
       <use style="stroke:#000000;stroke-width:0.8;" x="173.929412" xlink:href="#m1f568244d7" y="345.6"/>
      </g>
     </g>
     <g id="text_4">
      <!-- −0.25 -->
      <defs>
       <path d="M 19.1875 8.296875 
L 53.609375 8.296875 
L 53.609375 0 
L 7.328125 0 
L 7.328125 8.296875 
Q 12.9375 14.109375 22.625 23.890625 
Q 32.328125 33.6875 34.8125 36.53125 
Q 39.546875 41.84375 41.421875 45.53125 
Q 43.3125 49.21875 43.3125 52.78125 
Q 43.3125 58.59375 39.234375 62.25 
Q 35.15625 65.921875 28.609375 65.921875 
Q 23.96875 65.921875 18.8125 64.3125 
Q 13.671875 62.703125 7.8125 59.421875 
L 7.8125 69.390625 
Q 13.765625 71.78125 18.9375 73 
Q 24.125 74.21875 28.421875 74.21875 
Q 39.75 74.21875 46.484375 68.546875 
Q 53.21875 62.890625 53.21875 53.421875 
Q 53.21875 48.921875 51.53125 44.890625 
Q 49.859375 40.875 45.40625 35.40625 
Q 44.1875 33.984375 37.640625 27.21875 
Q 31.109375 20.453125 19.1875 8.296875 
z
" id="DejaVuSans-32"/>
      </defs>
      <g transform="translate(158.606756 360.198437)scale(0.1 -0.1)">
       <use xlink:href="#DejaVuSans-2212"/>
       <use x="83.789062" xlink:href="#DejaVuSans-30"/>
       <use x="147.412109" xlink:href="#DejaVuSans-2e"/>
       <use x="179.199219" xlink:href="#DejaVuSans-32"/>
       <use x="242.822266" xlink:href="#DejaVuSans-35"/>
      </g>
     </g>
    </g>
    <g id="xtick_5">
     <g id="line2d_5">
      <g>
       <use style="stroke:#000000;stroke-width:0.8;" x="230.4" xlink:href="#m1f568244d7" y="345.6"/>
      </g>
     </g>
     <g id="text_5">
      <!-- 0.00 -->
      <g transform="translate(219.267188 360.198437)scale(0.1 -0.1)">
       <use xlink:href="#DejaVuSans-30"/>
       <use x="63.623047" xlink:href="#DejaVuSans-2e"/>
       <use x="95.410156" xlink:href="#DejaVuSans-30"/>
       <use x="159.033203" xlink:href="#DejaVuSans-30"/>
      </g>
     </g>
    </g>
    <g id="xtick_6">
     <g id="line2d_6">
      <g>
       <use style="stroke:#000000;stroke-width:0.8;" x="286.870588" xlink:href="#m1f568244d7" y="345.6"/>
      </g>
     </g>
     <g id="text_6">
      <!-- 0.25 -->
      <g transform="translate(275.737776 360.198437)scale(0.1 -0.1)">
       <use xlink:href="#DejaVuSans-30"/>
       <use x="63.623047" xlink:href="#DejaVuSans-2e"/>
       <use x="95.410156" xlink:href="#DejaVuSans-32"/>
       <use x="159.033203" xlink:href="#DejaVuSans-35"/>
      </g>
     </g>
    </g>
    <g id="xtick_7">
     <g id="line2d_7">
      <g>
       <use style="stroke:#000000;stroke-width:0.8;" x="343.341176" xlink:href="#m1f568244d7" y="345.6"/>
      </g>
     </g>
     <g id="text_7">
      <!-- 0.50 -->
      <g transform="translate(332.208364 360.198437)scale(0.1 -0.1)">
       <use xlink:href="#DejaVuSans-30"/>
       <use x="63.623047" xlink:href="#DejaVuSans-2e"/>
       <use x="95.410156" xlink:href="#DejaVuSans-35"/>
       <use x="159.033203" xlink:href="#DejaVuSans-30"/>
      </g>
     </g>
    </g>
    <g id="xtick_8">
     <g id="line2d_8">
      <g>
       <use style="stroke:#000000;stroke-width:0.8;" x="399.811765" xlink:href="#m1f568244d7" y="345.6"/>
      </g>
     </g>
     <g id="text_8">
      <!-- 0.75 -->
      <g transform="translate(388.678952 360.198437)scale(0.1 -0.1)">
       <use xlink:href="#DejaVuSans-30"/>
       <use x="63.623047" xlink:href="#DejaVuSans-2e"/>
       <use x="95.410156" xlink:href="#DejaVuSans-37"/>
       <use x="159.033203" xlink:href="#DejaVuSans-35"/>
      </g>
     </g>
    </g>
    <g id="xtick_9">
     <g id="line2d_9">
      <g>
       <use style="stroke:#000000;stroke-width:0.8;" x="456.282353" xlink:href="#m1f568244d7" y="345.6"/>
      </g>
     </g>
     <g id="text_9">
      <!-- 1.00 -->
      <g transform="translate(445.14954 360.198437)scale(0.1 -0.1)">
       <use xlink:href="#DejaVuSans-31"/>
       <use x="63.623047" xlink:href="#DejaVuSans-2e"/>
       <use x="95.410156" xlink:href="#DejaVuSans-30"/>
       <use x="159.033203" xlink:href="#DejaVuSans-30"/>
      </g>
     </g>
    </g>
   </g>
   <g id="matplotlib.axis_2">
    <g id="ytick_1">
     <g id="line2d_10">
      <defs>
       <path d="M 0 0 
L -3.5 0 
" id="mea6d912dbb" style="stroke:#000000;stroke-width:0.8;"/>
      </defs>
      <g>
       <use style="stroke:#000000;stroke-width:0.8;" x="0" xlink:href="#mea6d912dbb" y="306.300212"/>
      </g>
     </g>
     <g id="text_10">
      <!-- −4 -->
      <defs>
       <path d="M 37.796875 64.3125 
L 12.890625 25.390625 
L 37.796875 25.390625 
z
M 35.203125 72.90625 
L 47.609375 72.90625 
L 47.609375 25.390625 
L 58.015625 25.390625 
L 58.015625 17.1875 
L 47.609375 17.1875 
L 47.609375 0 
L 37.796875 0 
L 37.796875 17.1875 
L 4.890625 17.1875 
L 4.890625 26.703125 
z
" id="DejaVuSans-34"/>
      </defs>
      <g transform="translate(-21.742188 310.099431)scale(0.1 -0.1)">
       <use xlink:href="#DejaVuSans-2212"/>
       <use x="83.789062" xlink:href="#DejaVuSans-34"/>
      </g>
     </g>
    </g>
    <g id="ytick_2">
     <g id="line2d_11">
      <g>
       <use style="stroke:#000000;stroke-width:0.8;" x="0" xlink:href="#mea6d912dbb" y="263.353429"/>
      </g>
     </g>
     <g id="text_11">
      <!-- −2 -->
      <g transform="translate(-21.742188 267.152648)scale(0.1 -0.1)">
       <use xlink:href="#DejaVuSans-2212"/>
       <use x="83.789062" xlink:href="#DejaVuSans-32"/>
      </g>
     </g>
    </g>
    <g id="ytick_3">
     <g id="line2d_12">
      <g>
       <use style="stroke:#000000;stroke-width:0.8;" x="0" xlink:href="#mea6d912dbb" y="220.406646"/>
      </g>
     </g>
     <g id="text_12">
      <!-- 0 -->
      <g transform="translate(-13.3625 224.205864)scale(0.1 -0.1)">
       <use xlink:href="#DejaVuSans-30"/>
      </g>
     </g>
    </g>
    <g id="ytick_4">
     <g id="line2d_13">
      <g>
       <use style="stroke:#000000;stroke-width:0.8;" x="0" xlink:href="#mea6d912dbb" y="177.459862"/>
      </g>
     </g>
     <g id="text_13">
      <!-- 2 -->
      <g transform="translate(-13.3625 181.259081)scale(0.1 -0.1)">
       <use xlink:href="#DejaVuSans-32"/>
      </g>
     </g>
    </g>
    <g id="ytick_5">
     <g id="line2d_14">
      <g>
       <use style="stroke:#000000;stroke-width:0.8;" x="0" xlink:href="#mea6d912dbb" y="134.513079"/>
      </g>
     </g>
     <g id="text_14">
      <!-- 4 -->
      <g transform="translate(-13.3625 138.312298)scale(0.1 -0.1)">
       <use xlink:href="#DejaVuSans-34"/>
      </g>
     </g>
    </g>
    <g id="ytick_6">
     <g id="line2d_15">
      <g>
       <use style="stroke:#000000;stroke-width:0.8;" x="0" xlink:href="#mea6d912dbb" y="91.566296"/>
      </g>
     </g>
     <g id="text_15">
      <!-- 6 -->
      <defs>
       <path d="M 33.015625 40.375 
Q 26.375 40.375 22.484375 35.828125 
Q 18.609375 31.296875 18.609375 23.390625 
Q 18.609375 15.53125 22.484375 10.953125 
Q 26.375 6.390625 33.015625 6.390625 
Q 39.65625 6.390625 43.53125 10.953125 
Q 47.40625 15.53125 47.40625 23.390625 
Q 47.40625 31.296875 43.53125 35.828125 
Q 39.65625 40.375 33.015625 40.375 
z
M 52.59375 71.296875 
L 52.59375 62.3125 
Q 48.875 64.0625 45.09375 64.984375 
Q 41.3125 65.921875 37.59375 65.921875 
Q 27.828125 65.921875 22.671875 59.328125 
Q 17.53125 52.734375 16.796875 39.40625 
Q 19.671875 43.65625 24.015625 45.921875 
Q 28.375 48.1875 33.59375 48.1875 
Q 44.578125 48.1875 50.953125 41.515625 
Q 57.328125 34.859375 57.328125 23.390625 
Q 57.328125 12.15625 50.6875 5.359375 
Q 44.046875 -1.421875 33.015625 -1.421875 
Q 20.359375 -1.421875 13.671875 8.265625 
Q 6.984375 17.96875 6.984375 36.375 
Q 6.984375 53.65625 15.1875 63.9375 
Q 23.390625 74.21875 37.203125 74.21875 
Q 40.921875 74.21875 44.703125 73.484375 
Q 48.484375 72.75 52.59375 71.296875 
z
" id="DejaVuSans-36"/>
      </defs>
      <g transform="translate(-13.3625 95.365515)scale(0.1 -0.1)">
       <use xlink:href="#DejaVuSans-36"/>
      </g>
     </g>
    </g>
    <g id="ytick_7">
     <g id="line2d_16">
      <g>
       <use style="stroke:#000000;stroke-width:0.8;" x="0" xlink:href="#mea6d912dbb" y="48.619513"/>
      </g>
     </g>
     <g id="text_16">
      <!-- 8 -->
      <defs>
       <path d="M 31.78125 34.625 
Q 24.75 34.625 20.71875 30.859375 
Q 16.703125 27.09375 16.703125 20.515625 
Q 16.703125 13.921875 20.71875 10.15625 
Q 24.75 6.390625 31.78125 6.390625 
Q 38.8125 6.390625 42.859375 10.171875 
Q 46.921875 13.96875 46.921875 20.515625 
Q 46.921875 27.09375 42.890625 30.859375 
Q 38.875 34.625 31.78125 34.625 
z
M 21.921875 38.8125 
Q 15.578125 40.375 12.03125 44.71875 
Q 8.5 49.078125 8.5 55.328125 
Q 8.5 64.0625 14.71875 69.140625 
Q 20.953125 74.21875 31.78125 74.21875 
Q 42.671875 74.21875 48.875 69.140625 
Q 55.078125 64.0625 55.078125 55.328125 
Q 55.078125 49.078125 51.53125 44.71875 
Q 48 40.375 41.703125 38.8125 
Q 48.828125 37.15625 52.796875 32.3125 
Q 56.78125 27.484375 56.78125 20.515625 
Q 56.78125 9.90625 50.3125 4.234375 
Q 43.84375 -1.421875 31.78125 -1.421875 
Q 19.734375 -1.421875 13.25 4.234375 
Q 6.78125 9.90625 6.78125 20.515625 
Q 6.78125 27.484375 10.78125 32.3125 
Q 14.796875 37.15625 21.921875 38.8125 
z
M 18.3125 54.390625 
Q 18.3125 48.734375 21.84375 45.5625 
Q 25.390625 42.390625 31.78125 42.390625 
Q 38.140625 42.390625 41.71875 45.5625 
Q 45.3125 48.734375 45.3125 54.390625 
Q 45.3125 60.0625 41.71875 63.234375 
Q 38.140625 66.40625 31.78125 66.40625 
Q 25.390625 66.40625 21.84375 63.234375 
Q 18.3125 60.0625 18.3125 54.390625 
z
" id="DejaVuSans-38"/>
      </defs>
      <g transform="translate(-13.3625 52.418732)scale(0.1 -0.1)">
       <use xlink:href="#DejaVuSans-38"/>
      </g>
     </g>
    </g>
    <g id="ytick_8">
     <g id="line2d_17">
      <g>
       <use style="stroke:#000000;stroke-width:0.8;" x="0" xlink:href="#mea6d912dbb" y="5.67273"/>
      </g>
     </g>
     <g id="text_17">
      <!-- 10 -->
      <g transform="translate(-19.725 9.471948)scale(0.1 -0.1)">
       <use xlink:href="#DejaVuSans-31"/>
       <use x="63.623047" xlink:href="#DejaVuSans-30"/>
      </g>
     </g>
    </g>
   </g>
   <g id="line2d_18">
    <defs>
     <path d="M 0 0.75 
C 0.198902 0.75 0.389685 0.670975 0.53033 0.53033 
C 0.670975 0.389685 0.75 0.198902 0.75 0 
C 0.75 -0.198902 0.670975 -0.389685 0.53033 -0.53033 
C 0.389685 -0.670975 0.198902 -0.75 0 -0.75 
C -0.198902 -0.75 -0.389685 -0.670975 -0.53033 -0.53033 
C -0.670975 -0.389685 -0.75 -0.198902 -0.75 0 
C -0.75 0.198902 -0.670975 0.389685 -0.53033 0.53033 
C -0.389685 0.670975 -0.198902 0.75 0 0.75 
z
" id="mdb0929a473" style="stroke:#1f77b4;"/>
    </defs>
    <g clip-path="url(#p8b63f40ecc)">
     <use style="fill:#1f77b4;stroke:#1f77b4;" x="4.517647" xlink:href="#mdb0929a473" y="248.811932"/>
     <use style="fill:#1f77b4;stroke:#1f77b4;" x="6.765233" xlink:href="#mdb0929a473" y="249.746982"/>
     <use style="fill:#1f77b4;stroke:#1f77b4;" x="9.012818" xlink:href="#mdb0929a473" y="249.309907"/>
     <use style="fill:#1f77b4;stroke:#1f77b4;" x="11.260404" xlink:href="#mdb0929a473" y="247.498755"/>
     <use style="fill:#1f77b4;stroke:#1f77b4;" x="13.507989" xlink:href="#mdb0929a473" y="244.330986"/>
     <use style="fill:#1f77b4;stroke:#1f77b4;" x="15.755575" xlink:href="#mdb0929a473" y="239.84363"/>
     <use style="fill:#1f77b4;stroke:#1f77b4;" x="18.003161" xlink:href="#mdb0929a473" y="234.093157"/>
     <use style="fill:#1f77b4;stroke:#1f77b4;" x="20.250746" xlink:href="#mdb0929a473" y="227.155051"/>
     <use style="fill:#1f77b4;stroke:#1f77b4;" x="22.498332" xlink:href="#mdb0929a473" y="219.123076"/>
     <use style="fill:#1f77b4;stroke:#1f77b4;" x="24.745917" xlink:href="#mdb0929a473" y="210.108256"/>
     <use style="fill:#1f77b4;stroke:#1f77b4;" x="26.993503" xlink:href="#mdb0929a473" y="200.23756"/>
     <use style="fill:#1f77b4;stroke:#1f77b4;" x="29.241089" xlink:href="#mdb0929a473" y="189.652322"/>
     <use style="fill:#1f77b4;stroke:#1f77b4;" x="31.488674" xlink:href="#mdb0929a473" y="178.5064"/>
     <use style="fill:#1f77b4;stroke:#1f77b4;" x="33.73626" xlink:href="#mdb0929a473" y="166.964113"/>
     <use style="fill:#1f77b4;stroke:#1f77b4;" x="35.983845" xlink:href="#mdb0929a473" y="155.197969"/>
     <use style="fill:#1f77b4;stroke:#1f77b4;" x="38.231431" xlink:href="#mdb0929a473" y="143.386236"/>
     <use style="fill:#1f77b4;stroke:#1f77b4;" x="40.479017" xlink:href="#mdb0929a473" y="131.710363"/>
     <use style="fill:#1f77b4;stroke:#1f77b4;" x="42.726602" xlink:href="#mdb0929a473" y="120.352326"/>
     <use style="fill:#1f77b4;stroke:#1f77b4;" x="44.974188" xlink:href="#mdb0929a473" y="109.491906"/>
     <use style="fill:#1f77b4;stroke:#1f77b4;" x="47.221773" xlink:href="#mdb0929a473" y="99.303965"/>
     <use style="fill:#1f77b4;stroke:#1f77b4;" x="49.469359" xlink:href="#mdb0929a473" y="89.955757"/>
     <use style="fill:#1f77b4;stroke:#1f77b4;" x="51.716945" xlink:href="#mdb0929a473" y="81.604319"/>
     <use style="fill:#1f77b4;stroke:#1f77b4;" x="53.96453" xlink:href="#mdb0929a473" y="74.39398"/>
     <use style="fill:#1f77b4;stroke:#1f77b4;" x="56.212116" xlink:href="#mdb0929a473" y="68.454041"/>
     <use style="fill:#1f77b4;stroke:#1f77b4;" x="58.459701" xlink:href="#mdb0929a473" y="63.896666"/>
     <use style="fill:#1f77b4;stroke:#1f77b4;" x="60.707287" xlink:href="#mdb0929a473" y="60.815006"/>
     <use style="fill:#1f77b4;stroke:#1f77b4;" x="62.954873" xlink:href="#mdb0929a473" y="59.281615"/>
     <use style="fill:#1f77b4;stroke:#1f77b4;" x="65.202458" xlink:href="#mdb0929a473" y="59.347168"/>
     <use style="fill:#1f77b4;stroke:#1f77b4;" x="67.450044" xlink:href="#mdb0929a473" y="61.039516"/>
     <use style="fill:#1f77b4;stroke:#1f77b4;" x="69.697629" xlink:href="#mdb0929a473" y="64.363095"/>
     <use style="fill:#1f77b4;stroke:#1f77b4;" x="71.945215" xlink:href="#mdb0929a473" y="69.298705"/>
     <use style="fill:#1f77b4;stroke:#1f77b4;" x="74.192801" xlink:href="#mdb0929a473" y="75.803664"/>
     <use style="fill:#1f77b4;stroke:#1f77b4;" x="76.440386" xlink:href="#mdb0929a473" y="83.812339"/>
     <use style="fill:#1f77b4;stroke:#1f77b4;" x="78.687972" xlink:href="#mdb0929a473" y="93.237057"/>
     <use style="fill:#1f77b4;stroke:#1f77b4;" x="80.935558" xlink:href="#mdb0929a473" y="103.969368"/>
     <use style="fill:#1f77b4;stroke:#1f77b4;" x="83.183143" xlink:href="#mdb0929a473" y="115.881657"/>
     <use style="fill:#1f77b4;stroke:#1f77b4;" x="85.430729" xlink:href="#mdb0929a473" y="128.829079"/>
     <use style="fill:#1f77b4;stroke:#1f77b4;" x="87.678314" xlink:href="#mdb0929a473" y="142.651773"/>
     <use style="fill:#1f77b4;stroke:#1f77b4;" x="89.9259" xlink:href="#mdb0929a473" y="157.177342"/>
     <use style="fill:#1f77b4;stroke:#1f77b4;" x="92.173486" xlink:href="#mdb0929a473" y="172.223538"/>
     <use style="fill:#1f77b4;stroke:#1f77b4;" x="94.421071" xlink:href="#mdb0929a473" y="187.601121"/>
     <use style="fill:#1f77b4;stroke:#1f77b4;" x="96.668657" xlink:href="#mdb0929a473" y="203.116841"/>
     <use style="fill:#1f77b4;stroke:#1f77b4;" x="98.916242" xlink:href="#mdb0929a473" y="218.576486"/>
     <use style="fill:#1f77b4;stroke:#1f77b4;" x="101.163828" xlink:href="#mdb0929a473" y="233.787957"/>
     <use style="fill:#1f77b4;stroke:#1f77b4;" x="103.411414" xlink:href="#mdb0929a473" y="248.564306"/>
     <use style="fill:#1f77b4;stroke:#1f77b4;" x="105.658999" xlink:href="#mdb0929a473" y="262.726686"/>
     <use style="fill:#1f77b4;stroke:#1f77b4;" x="107.906585" xlink:href="#mdb0929a473" y="276.107172"/>
     <use style="fill:#1f77b4;stroke:#1f77b4;" x="110.15417" xlink:href="#mdb0929a473" y="288.55139"/>
     <use style="fill:#1f77b4;stroke:#1f77b4;" x="112.401756" xlink:href="#mdb0929a473" y="299.920913"/>
     <use style="fill:#1f77b4;stroke:#1f77b4;" x="114.649342" xlink:href="#mdb0929a473" y="310.095391"/>
     <use style="fill:#1f77b4;stroke:#1f77b4;" x="116.896927" xlink:href="#mdb0929a473" y="318.974354"/>
     <use style="fill:#1f77b4;stroke:#1f77b4;" x="119.144513" xlink:href="#mdb0929a473" y="326.47869"/>
     <use style="fill:#1f77b4;stroke:#1f77b4;" x="121.392098" xlink:href="#mdb0929a473" y="332.551734"/>
     <use style="fill:#1f77b4;stroke:#1f77b4;" x="123.639684" xlink:href="#mdb0929a473" y="337.15998"/>
     <use style="fill:#1f77b4;stroke:#1f77b4;" x="125.88727" xlink:href="#mdb0929a473" y="340.293383"/>
     <use style="fill:#1f77b4;stroke:#1f77b4;" x="128.134855" xlink:href="#mdb0929a473" y="341.965257"/>
     <use style="fill:#1f77b4;stroke:#1f77b4;" x="130.382441" xlink:href="#mdb0929a473" y="342.211765"/>
     <use style="fill:#1f77b4;stroke:#1f77b4;" x="132.630026" xlink:href="#mdb0929a473" y="341.091012"/>
     <use style="fill:#1f77b4;stroke:#1f77b4;" x="134.877612" xlink:href="#mdb0929a473" y="338.681761"/>
     <use style="fill:#1f77b4;stroke:#1f77b4;" x="137.125198" xlink:href="#mdb0929a473" y="335.081787"/>
     <use style="fill:#1f77b4;stroke:#1f77b4;" x="139.372783" xlink:href="#mdb0929a473" y="330.405913"/>
     <use style="fill:#1f77b4;stroke:#1f77b4;" x="141.620369" xlink:href="#mdb0929a473" y="324.783746"/>
     <use style="fill:#1f77b4;stroke:#1f77b4;" x="143.867954" xlink:href="#mdb0929a473" y="318.357175"/>
     <use style="fill:#1f77b4;stroke:#1f77b4;" x="146.11554" xlink:href="#mdb0929a473" y="311.277658"/>
     <use style="fill:#1f77b4;stroke:#1f77b4;" x="148.363126" xlink:href="#mdb0929a473" y="303.703366"/>
     <use style="fill:#1f77b4;stroke:#1f77b4;" x="150.610711" xlink:href="#mdb0929a473" y="295.796218"/>
     <use style="fill:#1f77b4;stroke:#1f77b4;" x="152.858297" xlink:href="#mdb0929a473" y="287.718881"/>
     <use style="fill:#1f77b4;stroke:#1f77b4;" x="155.105882" xlink:href="#mdb0929a473" y="279.631773"/>
     <use style="fill:#1f77b4;stroke:#1f77b4;" x="157.353468" xlink:href="#mdb0929a473" y="271.690144"/>
     <use style="fill:#1f77b4;stroke:#1f77b4;" x="159.601054" xlink:href="#mdb0929a473" y="264.041262"/>
     <use style="fill:#1f77b4;stroke:#1f77b4;" x="161.848639" xlink:href="#mdb0929a473" y="256.821788"/>
     <use style="fill:#1f77b4;stroke:#1f77b4;" x="164.096225" xlink:href="#mdb0929a473" y="250.155363"/>
     <use style="fill:#1f77b4;stroke:#1f77b4;" x="166.34381" xlink:href="#mdb0929a473" y="244.150461"/>
     <use style="fill:#1f77b4;stroke:#1f77b4;" x="168.591396" xlink:href="#mdb0929a473" y="238.898556"/>
     <use style="fill:#1f77b4;stroke:#1f77b4;" x="170.838982" xlink:href="#mdb0929a473" y="234.472614"/>
     <use style="fill:#1f77b4;stroke:#1f77b4;" x="173.086567" xlink:href="#mdb0929a473" y="230.925964"/>
     <use style="fill:#1f77b4;stroke:#1f77b4;" x="175.334153" xlink:href="#mdb0929a473" y="228.291552"/>
     <use style="fill:#1f77b4;stroke:#1f77b4;" x="177.581738" xlink:href="#mdb0929a473" y="226.581585"/>
     <use style="fill:#1f77b4;stroke:#1f77b4;" x="179.829324" xlink:href="#mdb0929a473" y="225.787598"/>
     <use style="fill:#1f77b4;stroke:#1f77b4;" x="182.07691" xlink:href="#mdb0929a473" y="225.880901"/>
     <use style="fill:#1f77b4;stroke:#1f77b4;" x="184.324495" xlink:href="#mdb0929a473" y="226.813436"/>
     <use style="fill:#1f77b4;stroke:#1f77b4;" x="186.572081" xlink:href="#mdb0929a473" y="228.519"/>
     <use style="fill:#1f77b4;stroke:#1f77b4;" x="188.819666" xlink:href="#mdb0929a473" y="230.914814"/>
     <use style="fill:#1f77b4;stroke:#1f77b4;" x="191.067252" xlink:href="#mdb0929a473" y="233.903417"/>
     <use style="fill:#1f77b4;stroke:#1f77b4;" x="193.314838" xlink:href="#mdb0929a473" y="237.374835"/>
     <use style="fill:#1f77b4;stroke:#1f77b4;" x="195.562423" xlink:href="#mdb0929a473" y="241.208988"/>
     <use style="fill:#1f77b4;stroke:#1f77b4;" x="197.810009" xlink:href="#mdb0929a473" y="245.278287"/>
     <use style="fill:#1f77b4;stroke:#1f77b4;" x="200.057594" xlink:href="#mdb0929a473" y="249.450366"/>
     <use style="fill:#1f77b4;stroke:#1f77b4;" x="202.30518" xlink:href="#mdb0929a473" y="253.590906"/>
     <use style="fill:#1f77b4;stroke:#1f77b4;" x="204.552766" xlink:href="#mdb0929a473" y="257.566477"/>
     <use style="fill:#1f77b4;stroke:#1f77b4;" x="206.800351" xlink:href="#mdb0929a473" y="261.247365"/>
     <use style="fill:#1f77b4;stroke:#1f77b4;" x="209.047937" xlink:href="#mdb0929a473" y="264.510304"/>
     <use style="fill:#1f77b4;stroke:#1f77b4;" x="211.295522" xlink:href="#mdb0929a473" y="267.241085"/>
     <use style="fill:#1f77b4;stroke:#1f77b4;" x="213.543108" xlink:href="#mdb0929a473" y="269.336969"/>
     <use style="fill:#1f77b4;stroke:#1f77b4;" x="215.790694" xlink:href="#mdb0929a473" y="270.708866"/>
     <use style="fill:#1f77b4;stroke:#1f77b4;" x="218.038279" xlink:href="#mdb0929a473" y="271.283249"/>
     <use style="fill:#1f77b4;stroke:#1f77b4;" x="220.285865" xlink:href="#mdb0929a473" y="271.003734"/>
     <use style="fill:#1f77b4;stroke:#1f77b4;" x="222.53345" xlink:href="#mdb0929a473" y="269.832335"/>
     <use style="fill:#1f77b4;stroke:#1f77b4;" x="224.781036" xlink:href="#mdb0929a473" y="267.750334"/>
     <use style="fill:#1f77b4;stroke:#1f77b4;" x="227.028622" xlink:href="#mdb0929a473" y="264.758775"/>
     <use style="fill:#1f77b4;stroke:#1f77b4;" x="229.276207" xlink:href="#mdb0929a473" y="260.878558"/>
     <use style="fill:#1f77b4;stroke:#1f77b4;" x="231.523793" xlink:href="#mdb0929a473" y="256.15013"/>
     <use style="fill:#1f77b4;stroke:#1f77b4;" x="233.771378" xlink:href="#mdb0929a473" y="250.632799"/>
     <use style="fill:#1f77b4;stroke:#1f77b4;" x="236.018964" xlink:href="#mdb0929a473" y="244.403653"/>
     <use style="fill:#1f77b4;stroke:#1f77b4;" x="238.26655" xlink:href="#mdb0929a473" y="237.556132"/>
     <use style="fill:#1f77b4;stroke:#1f77b4;" x="240.514135" xlink:href="#mdb0929a473" y="230.198272"/>
     <use style="fill:#1f77b4;stroke:#1f77b4;" x="242.761721" xlink:href="#mdb0929a473" y="222.450648"/>
     <use style="fill:#1f77b4;stroke:#1f77b4;" x="245.009306" xlink:href="#mdb0929a473" y="214.444072"/>
     <use style="fill:#1f77b4;stroke:#1f77b4;" x="247.256892" xlink:href="#mdb0929a473" y="206.317073"/>
     <use style="fill:#1f77b4;stroke:#1f77b4;" x="249.504478" xlink:href="#mdb0929a473" y="198.213225"/>
     <use style="fill:#1f77b4;stroke:#1f77b4;" x="251.752063" xlink:href="#mdb0929a473" y="190.278366"/>
     <use style="fill:#1f77b4;stroke:#1f77b4;" x="253.999649" xlink:href="#mdb0929a473" y="182.657759"/>
     <use style="fill:#1f77b4;stroke:#1f77b4;" x="256.247234" xlink:href="#mdb0929a473" y="175.493267"/>
     <use style="fill:#1f77b4;stroke:#1f77b4;" x="258.49482" xlink:href="#mdb0929a473" y="168.920577"/>
     <use style="fill:#1f77b4;stroke:#1f77b4;" x="260.742406" xlink:href="#mdb0929a473" y="163.066539"/>
     <use style="fill:#1f77b4;stroke:#1f77b4;" x="262.989991" xlink:href="#mdb0929a473" y="158.046672"/>
     <use style="fill:#1f77b4;stroke:#1f77b4;" x="265.237577" xlink:href="#mdb0929a473" y="153.96288"/>
     <use style="fill:#1f77b4;stroke:#1f77b4;" x="267.485162" xlink:href="#mdb0929a473" y="150.901428"/>
     <use style="fill:#1f77b4;stroke:#1f77b4;" x="269.732748" xlink:href="#mdb0929a473" y="148.931215"/>
     <use style="fill:#1f77b4;stroke:#1f77b4;" x="271.980334" xlink:href="#mdb0929a473" y="148.102379"/>
     <use style="fill:#1f77b4;stroke:#1f77b4;" x="274.227919" xlink:href="#mdb0929a473" y="148.445253"/>
     <use style="fill:#1f77b4;stroke:#1f77b4;" x="276.475505" xlink:href="#mdb0929a473" y="149.969713"/>
     <use style="fill:#1f77b4;stroke:#1f77b4;" x="278.72309" xlink:href="#mdb0929a473" y="152.664903"/>
     <use style="fill:#1f77b4;stroke:#1f77b4;" x="280.970676" xlink:href="#mdb0929a473" y="156.499363"/>
     <use style="fill:#1f77b4;stroke:#1f77b4;" x="283.218262" xlink:href="#mdb0929a473" y="161.421554"/>
     <use style="fill:#1f77b4;stroke:#1f77b4;" x="285.465847" xlink:href="#mdb0929a473" y="167.360755"/>
     <use style="fill:#1f77b4;stroke:#1f77b4;" x="287.713433" xlink:href="#mdb0929a473" y="174.228337"/>
     <use style="fill:#1f77b4;stroke:#1f77b4;" x="289.961018" xlink:href="#mdb0929a473" y="181.919373"/>
     <use style="fill:#1f77b4;stroke:#1f77b4;" x="292.208604" xlink:href="#mdb0929a473" y="190.314557"/>
     <use style="fill:#1f77b4;stroke:#1f77b4;" x="294.45619" xlink:href="#mdb0929a473" y="199.282392"/>
     <use style="fill:#1f77b4;stroke:#1f77b4;" x="296.703775" xlink:href="#mdb0929a473" y="208.68162"/>
     <use style="fill:#1f77b4;stroke:#1f77b4;" x="298.951361" xlink:href="#mdb0929a473" y="218.363816"/>
     <use style="fill:#1f77b4;stroke:#1f77b4;" x="301.198946" xlink:href="#mdb0929a473" y="228.17613"/>
     <use style="fill:#1f77b4;stroke:#1f77b4;" x="303.446532" xlink:href="#mdb0929a473" y="237.964103"/>
     <use style="fill:#1f77b4;stroke:#1f77b4;" x="305.694118" xlink:href="#mdb0929a473" y="247.574503"/>
     <use style="fill:#1f77b4;stroke:#1f77b4;" x="307.941703" xlink:href="#mdb0929a473" y="256.858138"/>
     <use style="fill:#1f77b4;stroke:#1f77b4;" x="310.189289" xlink:href="#mdb0929a473" y="265.672585"/>
     <use style="fill:#1f77b4;stroke:#1f77b4;" x="312.436874" xlink:href="#mdb0929a473" y="273.884782"/>
     <use style="fill:#1f77b4;stroke:#1f77b4;" x="314.68446" xlink:href="#mdb0929a473" y="281.373431"/>
     <use style="fill:#1f77b4;stroke:#1f77b4;" x="316.932046" xlink:href="#mdb0929a473" y="288.03118"/>
     <use style="fill:#1f77b4;stroke:#1f77b4;" x="319.179631" xlink:href="#mdb0929a473" y="293.766521"/>
     <use style="fill:#1f77b4;stroke:#1f77b4;" x="321.427217" xlink:href="#mdb0929a473" y="298.505394"/>
     <use style="fill:#1f77b4;stroke:#1f77b4;" x="323.674802" xlink:href="#mdb0929a473" y="302.192444"/>
     <use style="fill:#1f77b4;stroke:#1f77b4;" x="325.922388" xlink:href="#mdb0929a473" y="304.791918"/>
     <use style="fill:#1f77b4;stroke:#1f77b4;" x="328.169974" xlink:href="#mdb0929a473" y="306.288196"/>
     <use style="fill:#1f77b4;stroke:#1f77b4;" x="330.417559" xlink:href="#mdb0929a473" y="306.685924"/>
     <use style="fill:#1f77b4;stroke:#1f77b4;" x="332.665145" xlink:href="#mdb0929a473" y="306.009773"/>
     <use style="fill:#1f77b4;stroke:#1f77b4;" x="334.91273" xlink:href="#mdb0929a473" y="304.303811"/>
     <use style="fill:#1f77b4;stroke:#1f77b4;" x="337.160316" xlink:href="#mdb0929a473" y="301.630511"/>
     <use style="fill:#1f77b4;stroke:#1f77b4;" x="339.407902" xlink:href="#mdb0929a473" y="298.069416"/>
     <use style="fill:#1f77b4;stroke:#1f77b4;" x="341.655487" xlink:href="#mdb0929a473" y="293.715484"/>
     <use style="fill:#1f77b4;stroke:#1f77b4;" x="343.903073" xlink:href="#mdb0929a473" y="288.677148"/>
     <use style="fill:#1f77b4;stroke:#1f77b4;" x="346.150658" xlink:href="#mdb0929a473" y="283.074129"/>
     <use style="fill:#1f77b4;stroke:#1f77b4;" x="348.398244" xlink:href="#mdb0929a473" y="277.03505"/>
     <use style="fill:#1f77b4;stroke:#1f77b4;" x="350.64583" xlink:href="#mdb0929a473" y="270.694888"/>
     <use style="fill:#1f77b4;stroke:#1f77b4;" x="352.893415" xlink:href="#mdb0929a473" y="264.192323"/>
     <use style="fill:#1f77b4;stroke:#1f77b4;" x="355.141001" xlink:href="#mdb0929a473" y="257.66703"/>
     <use style="fill:#1f77b4;stroke:#1f77b4;" x="357.388586" xlink:href="#mdb0929a473" y="251.256969"/>
     <use style="fill:#1f77b4;stroke:#1f77b4;" x="359.636172" xlink:href="#mdb0929a473" y="245.095723"/>
     <use style="fill:#1f77b4;stroke:#1f77b4;" x="361.883758" xlink:href="#mdb0929a473" y="239.309935"/>
     <use style="fill:#1f77b4;stroke:#1f77b4;" x="364.131343" xlink:href="#mdb0929a473" y="234.016894"/>
     <use style="fill:#1f77b4;stroke:#1f77b4;" x="366.378929" xlink:href="#mdb0929a473" y="229.322315"/>
     <use style="fill:#1f77b4;stroke:#1f77b4;" x="368.626514" xlink:href="#mdb0929a473" y="225.318354"/>
     <use style="fill:#1f77b4;stroke:#1f77b4;" x="370.8741" xlink:href="#mdb0929a473" y="222.08189"/>
     <use style="fill:#1f77b4;stroke:#1f77b4;" x="373.121686" xlink:href="#mdb0929a473" y="219.673118"/>
     <use style="fill:#1f77b4;stroke:#1f77b4;" x="375.369271" xlink:href="#mdb0929a473" y="218.134464"/>
     <use style="fill:#1f77b4;stroke:#1f77b4;" x="377.616857" xlink:href="#mdb0929a473" y="217.489843"/>
     <use style="fill:#1f77b4;stroke:#1f77b4;" x="379.864442" xlink:href="#mdb0929a473" y="217.744287"/>
     <use style="fill:#1f77b4;stroke:#1f77b4;" x="382.112028" xlink:href="#mdb0929a473" y="218.883927"/>
     <use style="fill:#1f77b4;stroke:#1f77b4;" x="384.359614" xlink:href="#mdb0929a473" y="220.876336"/>
     <use style="fill:#1f77b4;stroke:#1f77b4;" x="386.607199" xlink:href="#mdb0929a473" y="223.671228"/>
     <use style="fill:#1f77b4;stroke:#1f77b4;" x="388.854785" xlink:href="#mdb0929a473" y="227.201496"/>
     <use style="fill:#1f77b4;stroke:#1f77b4;" x="391.102371" xlink:href="#mdb0929a473" y="231.384556"/>
     <use style="fill:#1f77b4;stroke:#1f77b4;" x="393.349956" xlink:href="#mdb0929a473" y="236.123982"/>
     <use style="fill:#1f77b4;stroke:#1f77b4;" x="395.597542" xlink:href="#mdb0929a473" y="241.3114"/>
     <use style="fill:#1f77b4;stroke:#1f77b4;" x="397.845127" xlink:href="#mdb0929a473" y="246.828587"/>
     <use style="fill:#1f77b4;stroke:#1f77b4;" x="400.092713" xlink:href="#mdb0929a473" y="252.549748"/>
     <use style="fill:#1f77b4;stroke:#1f77b4;" x="402.340299" xlink:href="#mdb0929a473" y="258.34393"/>
     <use style="fill:#1f77b4;stroke:#1f77b4;" x="404.587884" xlink:href="#mdb0929a473" y="264.077504"/>
     <use style="fill:#1f77b4;stroke:#1f77b4;" x="406.83547" xlink:href="#mdb0929a473" y="269.616698"/>
     <use style="fill:#1f77b4;stroke:#1f77b4;" x="409.083055" xlink:href="#mdb0929a473" y="274.830101"/>
     <use style="fill:#1f77b4;stroke:#1f77b4;" x="411.330641" xlink:href="#mdb0929a473" y="279.591118"/>
     <use style="fill:#1f77b4;stroke:#1f77b4;" x="413.578227" xlink:href="#mdb0929a473" y="283.780318"/>
     <use style="fill:#1f77b4;stroke:#1f77b4;" x="415.825812" xlink:href="#mdb0929a473" y="287.287621"/>
     <use style="fill:#1f77b4;stroke:#1f77b4;" x="418.073398" xlink:href="#mdb0929a473" y="290.014309"/>
     <use style="fill:#1f77b4;stroke:#1f77b4;" x="420.320983" xlink:href="#mdb0929a473" y="274.458449"/>
     <use style="fill:#1f77b4;stroke:#1f77b4;" x="422.568569" xlink:href="#mdb0929a473" y="281.954892"/>
     <use style="fill:#1f77b4;stroke:#1f77b4;" x="424.816155" xlink:href="#mdb0929a473" y="288.559768"/>
     <use style="fill:#1f77b4;stroke:#1f77b4;" x="427.06374" xlink:href="#mdb0929a473" y="294.24003"/>
     <use style="fill:#1f77b4;stroke:#1f77b4;" x="429.311326" xlink:href="#mdb0929a473" y="298.972704"/>
     <use style="fill:#1f77b4;stroke:#1f77b4;" x="431.558911" xlink:href="#mdb0929a473" y="302.744165"/>
     <use style="fill:#1f77b4;stroke:#1f77b4;" x="433.806497" xlink:href="#mdb0929a473" y="305.549321"/>
     <use style="fill:#1f77b4;stroke:#1f77b4;" x="436.054083" xlink:href="#mdb0929a473" y="307.390732"/>
     <use style="fill:#1f77b4;stroke:#1f77b4;" x="438.301668" xlink:href="#mdb0929a473" y="308.2777"/>
     <use style="fill:#1f77b4;stroke:#1f77b4;" x="440.549254" xlink:href="#mdb0929a473" y="3.388235"/>
     <use style="fill:#1f77b4;stroke:#1f77b4;" x="442.796839" xlink:href="#mdb0929a473" y="5.744065"/>
     <use style="fill:#1f77b4;stroke:#1f77b4;" x="445.044425" xlink:href="#mdb0929a473" y="282.38523"/>
     <use style="fill:#1f77b4;stroke:#1f77b4;" x="447.292011" xlink:href="#mdb0929a473" y="276.055007"/>
     <use style="fill:#1f77b4;stroke:#1f77b4;" x="449.539596" xlink:href="#mdb0929a473" y="269.272944"/>
     <use style="fill:#1f77b4;stroke:#1f77b4;" x="451.787182" xlink:href="#mdb0929a473" y="262.090441"/>
     <use style="fill:#1f77b4;stroke:#1f77b4;" x="454.034767" xlink:href="#mdb0929a473" y="156.051592"/>
     <use style="fill:#1f77b4;stroke:#1f77b4;" x="456.282353" xlink:href="#mdb0929a473" y="161.642855"/>
    </g>
   </g>
   <g id="line2d_19">
    <path clip-path="url(#p8b63f40ecc)" d="M 4.517647 220.411608 
L 15.755575 220.413836 
L 49.469359 220.409748 
L 80.935558 220.414989 
L 96.668657 220.411687 
L 206.800351 220.410293 
L 240.514135 220.411729 
L 334.91273 220.418844 
L 350.64583 220.404514 
L 377.616857 220.404693 
L 415.825812 220.390067 
L 418.073398 198.934914 
L 420.320983 220.409377 
L 436.054083 220.39957 
L 438.301668 199.010261 
L 440.549254 220.41968 
L 442.796839 198.961315 
L 445.044425 220.415418 
L 449.539596 220.40333 
L 451.787182 198.933925 
L 454.034767 220.410284 
L 456.282353 220.406646 
L 456.282353 220.406646 
" style="fill:none;stroke:#ff7f0e;stroke-linecap:square;"/>
   </g>
   <g id="line2d_20">
    <path clip-path="url(#p8b63f40ecc)" d="M 418.073398 345.6 
L 418.073398 0 
" style="fill:none;stroke:#008000;stroke-linecap:square;"/>
   </g>
   <g id="line2d_21">
    <path clip-path="url(#p8b63f40ecc)" d="M 438.301668 345.6 
L 438.301668 0 
" style="fill:none;stroke:#008000;stroke-linecap:square;"/>
   </g>
   <g id="line2d_22">
    <path clip-path="url(#p8b63f40ecc)" d="M 442.796839 345.6 
L 442.796839 0 
" style="fill:none;stroke:#008000;stroke-linecap:square;"/>
   </g>
   <g id="line2d_23">
    <path clip-path="url(#p8b63f40ecc)" d="M 442.796839 345.6 
L 442.796839 0 
" style="fill:none;stroke:#008000;stroke-linecap:square;"/>
   </g>
   <g id="line2d_24">
    <path clip-path="url(#p8b63f40ecc)" d="M 451.787182 345.6 
L 451.787182 0 
" style="fill:none;stroke:#008000;stroke-linecap:square;"/>
   </g>
   <g id="line2d_25">
    <path clip-path="url(#p8b63f40ecc)" d="M 451.787182 345.6 
L 451.787182 0 
" style="fill:none;stroke:#008000;stroke-linecap:square;"/>
   </g>
   <g id="patch_3">
    <path d="M 0 345.6 
L 0 0 
" style="fill:none;stroke:#000000;stroke-linecap:square;stroke-linejoin:miter;stroke-width:0.8;"/>
   </g>
   <g id="patch_4">
    <path d="M 460.8 345.6 
L 460.8 0 
" style="fill:none;stroke:#000000;stroke-linecap:square;stroke-linejoin:miter;stroke-width:0.8;"/>
   </g>
   <g id="patch_5">
    <path d="M 0 345.6 
L 460.8 345.6 
" style="fill:none;stroke:#000000;stroke-linecap:square;stroke-linejoin:miter;stroke-width:0.8;"/>
   </g>
   <g id="patch_6">
    <path d="M 0 0 
L 460.8 0 
" style="fill:none;stroke:#000000;stroke-linecap:square;stroke-linejoin:miter;stroke-width:0.8;"/>
   </g>
   <g id="legend_1">
    <g id="patch_7">
     <path d="M 7 37.35625 
L 105.1875 37.35625 
Q 107.1875 37.35625 107.1875 35.35625 
L 107.1875 7 
Q 107.1875 5 105.1875 5 
L 7 5 
Q 5 5 5 7 
L 5 35.35625 
Q 5 37.35625 7 37.35625 
z
" style="fill:#ffffff;opacity:0.8;stroke:#cccccc;stroke-linejoin:miter;"/>
    </g>
    <g id="line2d_26"/>
    <g id="line2d_27">
     <g>
      <use style="fill:#1f77b4;stroke:#1f77b4;" x="19" xlink:href="#mdb0929a473" y="13.098437"/>
     </g>
    </g>
    <g id="text_18">
     <!-- Original data -->
     <defs>
      <path d="M 39.40625 66.21875 
Q 28.65625 66.21875 22.328125 58.203125 
Q 16.015625 50.203125 16.015625 36.375 
Q 16.015625 22.609375 22.328125 14.59375 
Q 28.65625 6.59375 39.40625 6.59375 
Q 50.140625 6.59375 56.421875 14.59375 
Q 62.703125 22.609375 62.703125 36.375 
Q 62.703125 50.203125 56.421875 58.203125 
Q 50.140625 66.21875 39.40625 66.21875 
z
M 39.40625 74.21875 
Q 54.734375 74.21875 63.90625 63.9375 
Q 73.09375 53.65625 73.09375 36.375 
Q 73.09375 19.140625 63.90625 8.859375 
Q 54.734375 -1.421875 39.40625 -1.421875 
Q 24.03125 -1.421875 14.8125 8.828125 
Q 5.609375 19.09375 5.609375 36.375 
Q 5.609375 53.65625 14.8125 63.9375 
Q 24.03125 74.21875 39.40625 74.21875 
z
" id="DejaVuSans-4f"/>
      <path d="M 41.109375 46.296875 
Q 39.59375 47.171875 37.8125 47.578125 
Q 36.03125 48 33.890625 48 
Q 26.265625 48 22.1875 43.046875 
Q 18.109375 38.09375 18.109375 28.8125 
L 18.109375 0 
L 9.078125 0 
L 9.078125 54.6875 
L 18.109375 54.6875 
L 18.109375 46.1875 
Q 20.953125 51.171875 25.484375 53.578125 
Q 30.03125 56 36.53125 56 
Q 37.453125 56 38.578125 55.875 
Q 39.703125 55.765625 41.0625 55.515625 
z
" id="DejaVuSans-72"/>
      <path d="M 9.421875 54.6875 
L 18.40625 54.6875 
L 18.40625 0 
L 9.421875 0 
z
M 9.421875 75.984375 
L 18.40625 75.984375 
L 18.40625 64.59375 
L 9.421875 64.59375 
z
" id="DejaVuSans-69"/>
      <path d="M 45.40625 27.984375 
Q 45.40625 37.75 41.375 43.109375 
Q 37.359375 48.484375 30.078125 48.484375 
Q 22.859375 48.484375 18.828125 43.109375 
Q 14.796875 37.75 14.796875 27.984375 
Q 14.796875 18.265625 18.828125 12.890625 
Q 22.859375 7.515625 30.078125 7.515625 
Q 37.359375 7.515625 41.375 12.890625 
Q 45.40625 18.265625 45.40625 27.984375 
z
M 54.390625 6.78125 
Q 54.390625 -7.171875 48.1875 -13.984375 
Q 42 -20.796875 29.203125 -20.796875 
Q 24.46875 -20.796875 20.265625 -20.09375 
Q 16.0625 -19.390625 12.109375 -17.921875 
L 12.109375 -9.1875 
Q 16.0625 -11.328125 19.921875 -12.34375 
Q 23.78125 -13.375 27.78125 -13.375 
Q 36.625 -13.375 41.015625 -8.765625 
Q 45.40625 -4.15625 45.40625 5.171875 
L 45.40625 9.625 
Q 42.625 4.78125 38.28125 2.390625 
Q 33.9375 0 27.875 0 
Q 17.828125 0 11.671875 7.65625 
Q 5.515625 15.328125 5.515625 27.984375 
Q 5.515625 40.671875 11.671875 48.328125 
Q 17.828125 56 27.875 56 
Q 33.9375 56 38.28125 53.609375 
Q 42.625 51.21875 45.40625 46.390625 
L 45.40625 54.6875 
L 54.390625 54.6875 
z
" id="DejaVuSans-67"/>
      <path d="M 54.890625 33.015625 
L 54.890625 0 
L 45.90625 0 
L 45.90625 32.71875 
Q 45.90625 40.484375 42.875 44.328125 
Q 39.84375 48.1875 33.796875 48.1875 
Q 26.515625 48.1875 22.3125 43.546875 
Q 18.109375 38.921875 18.109375 30.90625 
L 18.109375 0 
L 9.078125 0 
L 9.078125 54.6875 
L 18.109375 54.6875 
L 18.109375 46.1875 
Q 21.34375 51.125 25.703125 53.5625 
Q 30.078125 56 35.796875 56 
Q 45.21875 56 50.046875 50.171875 
Q 54.890625 44.34375 54.890625 33.015625 
z
" id="DejaVuSans-6e"/>
      <path d="M 34.28125 27.484375 
Q 23.390625 27.484375 19.1875 25 
Q 14.984375 22.515625 14.984375 16.5 
Q 14.984375 11.71875 18.140625 8.90625 
Q 21.296875 6.109375 26.703125 6.109375 
Q 34.1875 6.109375 38.703125 11.40625 
Q 43.21875 16.703125 43.21875 25.484375 
L 43.21875 27.484375 
z
M 52.203125 31.203125 
L 52.203125 0 
L 43.21875 0 
L 43.21875 8.296875 
Q 40.140625 3.328125 35.546875 0.953125 
Q 30.953125 -1.421875 24.3125 -1.421875 
Q 15.921875 -1.421875 10.953125 3.296875 
Q 6 8.015625 6 15.921875 
Q 6 25.140625 12.171875 29.828125 
Q 18.359375 34.515625 30.609375 34.515625 
L 43.21875 34.515625 
L 43.21875 35.40625 
Q 43.21875 41.609375 39.140625 45 
Q 35.0625 48.390625 27.6875 48.390625 
Q 23 48.390625 18.546875 47.265625 
Q 14.109375 46.140625 10.015625 43.890625 
L 10.015625 52.203125 
Q 14.9375 54.109375 19.578125 55.046875 
Q 24.21875 56 28.609375 56 
Q 40.484375 56 46.34375 49.84375 
Q 52.203125 43.703125 52.203125 31.203125 
z
" id="DejaVuSans-61"/>
      <path d="M 9.421875 75.984375 
L 18.40625 75.984375 
L 18.40625 0 
L 9.421875 0 
z
" id="DejaVuSans-6c"/>
      <path id="DejaVuSans-20"/>
      <path d="M 45.40625 46.390625 
L 45.40625 75.984375 
L 54.390625 75.984375 
L 54.390625 0 
L 45.40625 0 
L 45.40625 8.203125 
Q 42.578125 3.328125 38.25 0.953125 
Q 33.9375 -1.421875 27.875 -1.421875 
Q 17.96875 -1.421875 11.734375 6.484375 
Q 5.515625 14.40625 5.515625 27.296875 
Q 5.515625 40.1875 11.734375 48.09375 
Q 17.96875 56 27.875 56 
Q 33.9375 56 38.25 53.625 
Q 42.578125 51.265625 45.40625 46.390625 
z
M 14.796875 27.296875 
Q 14.796875 17.390625 18.875 11.75 
Q 22.953125 6.109375 30.078125 6.109375 
Q 37.203125 6.109375 41.296875 11.75 
Q 45.40625 17.390625 45.40625 27.296875 
Q 45.40625 37.203125 41.296875 42.84375 
Q 37.203125 48.484375 30.078125 48.484375 
Q 22.953125 48.484375 18.875 42.84375 
Q 14.796875 37.203125 14.796875 27.296875 
z
" id="DejaVuSans-64"/>
      <path d="M 18.3125 70.21875 
L 18.3125 54.6875 
L 36.8125 54.6875 
L 36.8125 47.703125 
L 18.3125 47.703125 
L 18.3125 18.015625 
Q 18.3125 11.328125 20.140625 9.421875 
Q 21.96875 7.515625 27.59375 7.515625 
L 36.8125 7.515625 
L 36.8125 0 
L 27.59375 0 
Q 17.1875 0 13.234375 3.875 
Q 9.28125 7.765625 9.28125 18.015625 
L 9.28125 47.703125 
L 2.6875 47.703125 
L 2.6875 54.6875 
L 9.28125 54.6875 
L 9.28125 70.21875 
z
" id="DejaVuSans-74"/>
     </defs>
     <g transform="translate(37 16.598437)scale(0.1 -0.1)">
      <use xlink:href="#DejaVuSans-4f"/>
      <use x="78.710938" xlink:href="#DejaVuSans-72"/>
      <use x="119.824219" xlink:href="#DejaVuSans-69"/>
      <use x="147.607422" xlink:href="#DejaVuSans-67"/>
      <use x="211.083984" xlink:href="#DejaVuSans-69"/>
      <use x="238.867188" xlink:href="#DejaVuSans-6e"/>
      <use x="302.246094" xlink:href="#DejaVuSans-61"/>
      <use x="363.525391" xlink:href="#DejaVuSans-6c"/>
      <use x="391.308594" xlink:href="#DejaVuSans-20"/>
      <use x="423.095703" xlink:href="#DejaVuSans-64"/>
      <use x="486.572266" xlink:href="#DejaVuSans-61"/>
      <use x="547.851562" xlink:href="#DejaVuSans-74"/>
      <use x="587.060547" xlink:href="#DejaVuSans-61"/>
     </g>
    </g>
    <g id="line2d_28">
     <path d="M 9 27.776563 
L 29 27.776563 
" style="fill:none;stroke:#ff7f0e;stroke-linecap:square;"/>
    </g>
    <g id="line2d_29"/>
    <g id="text_19">
     <!-- Model output -->
     <defs>
      <path d="M 9.8125 72.90625 
L 24.515625 72.90625 
L 43.109375 23.296875 
L 61.8125 72.90625 
L 76.515625 72.90625 
L 76.515625 0 
L 66.890625 0 
L 66.890625 64.015625 
L 48.09375 14.015625 
L 38.1875 14.015625 
L 19.390625 64.015625 
L 19.390625 0 
L 9.8125 0 
z
" id="DejaVuSans-4d"/>
      <path d="M 30.609375 48.390625 
Q 23.390625 48.390625 19.1875 42.75 
Q 14.984375 37.109375 14.984375 27.296875 
Q 14.984375 17.484375 19.15625 11.84375 
Q 23.34375 6.203125 30.609375 6.203125 
Q 37.796875 6.203125 41.984375 11.859375 
Q 46.1875 17.53125 46.1875 27.296875 
Q 46.1875 37.015625 41.984375 42.703125 
Q 37.796875 48.390625 30.609375 48.390625 
z
M 30.609375 56 
Q 42.328125 56 49.015625 48.375 
Q 55.71875 40.765625 55.71875 27.296875 
Q 55.71875 13.875 49.015625 6.21875 
Q 42.328125 -1.421875 30.609375 -1.421875 
Q 18.84375 -1.421875 12.171875 6.21875 
Q 5.515625 13.875 5.515625 27.296875 
Q 5.515625 40.765625 12.171875 48.375 
Q 18.84375 56 30.609375 56 
z
" id="DejaVuSans-6f"/>
      <path d="M 56.203125 29.59375 
L 56.203125 25.203125 
L 14.890625 25.203125 
Q 15.484375 15.921875 20.484375 11.0625 
Q 25.484375 6.203125 34.421875 6.203125 
Q 39.59375 6.203125 44.453125 7.46875 
Q 49.3125 8.734375 54.109375 11.28125 
L 54.109375 2.78125 
Q 49.265625 0.734375 44.1875 -0.34375 
Q 39.109375 -1.421875 33.890625 -1.421875 
Q 20.796875 -1.421875 13.15625 6.1875 
Q 5.515625 13.8125 5.515625 26.8125 
Q 5.515625 40.234375 12.765625 48.109375 
Q 20.015625 56 32.328125 56 
Q 43.359375 56 49.78125 48.890625 
Q 56.203125 41.796875 56.203125 29.59375 
z
M 47.21875 32.234375 
Q 47.125 39.59375 43.09375 43.984375 
Q 39.0625 48.390625 32.421875 48.390625 
Q 24.90625 48.390625 20.390625 44.140625 
Q 15.875 39.890625 15.1875 32.171875 
z
" id="DejaVuSans-65"/>
      <path d="M 8.5 21.578125 
L 8.5 54.6875 
L 17.484375 54.6875 
L 17.484375 21.921875 
Q 17.484375 14.15625 20.5 10.265625 
Q 23.53125 6.390625 29.59375 6.390625 
Q 36.859375 6.390625 41.078125 11.03125 
Q 45.3125 15.671875 45.3125 23.6875 
L 45.3125 54.6875 
L 54.296875 54.6875 
L 54.296875 0 
L 45.3125 0 
L 45.3125 8.40625 
Q 42.046875 3.421875 37.71875 1 
Q 33.40625 -1.421875 27.6875 -1.421875 
Q 18.265625 -1.421875 13.375 4.4375 
Q 8.5 10.296875 8.5 21.578125 
z
M 31.109375 56 
z
" id="DejaVuSans-75"/>
      <path d="M 18.109375 8.203125 
L 18.109375 -20.796875 
L 9.078125 -20.796875 
L 9.078125 54.6875 
L 18.109375 54.6875 
L 18.109375 46.390625 
Q 20.953125 51.265625 25.265625 53.625 
Q 29.59375 56 35.59375 56 
Q 45.5625 56 51.78125 48.09375 
Q 58.015625 40.1875 58.015625 27.296875 
Q 58.015625 14.40625 51.78125 6.484375 
Q 45.5625 -1.421875 35.59375 -1.421875 
Q 29.59375 -1.421875 25.265625 0.953125 
Q 20.953125 3.328125 18.109375 8.203125 
z
M 48.6875 27.296875 
Q 48.6875 37.203125 44.609375 42.84375 
Q 40.53125 48.484375 33.40625 48.484375 
Q 26.265625 48.484375 22.1875 42.84375 
Q 18.109375 37.203125 18.109375 27.296875 
Q 18.109375 17.390625 22.1875 11.75 
Q 26.265625 6.109375 33.40625 6.109375 
Q 40.53125 6.109375 44.609375 11.75 
Q 48.6875 17.390625 48.6875 27.296875 
z
" id="DejaVuSans-70"/>
     </defs>
     <g transform="translate(37 31.276563)scale(0.1 -0.1)">
      <use xlink:href="#DejaVuSans-4d"/>
      <use x="86.279297" xlink:href="#DejaVuSans-6f"/>
      <use x="147.460938" xlink:href="#DejaVuSans-64"/>
      <use x="210.9375" xlink:href="#DejaVuSans-65"/>
      <use x="272.460938" xlink:href="#DejaVuSans-6c"/>
      <use x="300.244141" xlink:href="#DejaVuSans-20"/>
      <use x="332.03125" xlink:href="#DejaVuSans-6f"/>
      <use x="393.212891" xlink:href="#DejaVuSans-75"/>
      <use x="456.591797" xlink:href="#DejaVuSans-74"/>
      <use x="495.800781" xlink:href="#DejaVuSans-70"/>
      <use x="559.277344" xlink:href="#DejaVuSans-75"/>
      <use x="622.65625" xlink:href="#DejaVuSans-74"/>
     </g>
    </g>
   </g>
  </g>
 </g>
 <defs>
  <clipPath id="p8b63f40ecc">
   <rect height="345.6" width="460.8" x="0" y="0"/>
  </clipPath>
 </defs>
</svg>
