<?xml version="1.0" encoding="utf-8" standalone="no"?>
<!DOCTYPE svg PUBLIC "-//W3C//DTD SVG 1.1//EN"
  "http://www.w3.org/Graphics/SVG/1.1/DTD/svg11.dtd">
<!-- Created with matplotlib (http://matplotlib.org/) -->
<svg height="345.6pt" version="1.1" viewBox="0 0 460.8 345.6" width="460.8pt" xmlns="http://www.w3.org/2000/svg" xmlns:xlink="http://www.w3.org/1999/xlink">
 <defs>
  <style type="text/css">
*{stroke-linecap:butt;stroke-linejoin:round;}
  </style>
 </defs>
 <g id="figure_1">
  <g id="patch_1">
   <path d="M 0 345.6 
L 460.8 345.6 
L 460.8 0 
L 0 0 
z
" style="fill:#ffffff;"/>
  </g>
  <g id="axes_1">
   <g id="patch_2">
    <path d="M 0 345.6 
L 460.8 345.6 
L 460.8 0 
L 0 0 
z
" style="fill:#ffffff;"/>
   </g>
   <g id="matplotlib.axis_1">
    <g id="xtick_1">
     <g id="line2d_1">
      <defs>
       <path d="M 0 0 
L 0 3.5 
" id="mbf15bcc5fc" style="stroke:#000000;stroke-width:0.8;"/>
      </defs>
      <g>
       <use style="stroke:#000000;stroke-width:0.8;" x="4.517647" xlink:href="#mbf15bcc5fc" y="345.6"/>
      </g>
     </g>
     <g id="text_1">
      <!-- −1.00 -->
      <defs>
       <path d="M 10.59375 35.5 
L 73.1875 35.5 
L 73.1875 27.203125 
L 10.59375 27.203125 
z
" id="DejaVuSans-2212"/>
       <path d="M 12.40625 8.296875 
L 28.515625 8.296875 
L 28.515625 63.921875 
L 10.984375 60.40625 
L 10.984375 69.390625 
L 28.421875 72.90625 
L 38.28125 72.90625 
L 38.28125 8.296875 
L 54.390625 8.296875 
L 54.390625 0 
L 12.40625 0 
z
" id="DejaVuSans-31"/>
       <path d="M 10.6875 12.40625 
L 21 12.40625 
L 21 0 
L 10.6875 0 
z
" id="DejaVuSans-2e"/>
       <path d="M 31.78125 66.40625 
Q 24.171875 66.40625 20.328125 58.90625 
Q 16.5 51.421875 16.5 36.375 
Q 16.5 21.390625 20.328125 13.890625 
Q 24.171875 6.390625 31.78125 6.390625 
Q 39.453125 6.390625 43.28125 13.890625 
Q 47.125 21.390625 47.125 36.375 
Q 47.125 51.421875 43.28125 58.90625 
Q 39.453125 66.40625 31.78125 66.40625 
z
M 31.78125 74.21875 
Q 44.046875 74.21875 50.515625 64.515625 
Q 56.984375 54.828125 56.984375 36.375 
Q 56.984375 17.96875 50.515625 8.265625 
Q 44.046875 -1.421875 31.78125 -1.421875 
Q 19.53125 -1.421875 13.0625 8.265625 
Q 6.59375 17.96875 6.59375 36.375 
Q 6.59375 54.828125 13.0625 64.515625 
Q 19.53125 74.21875 31.78125 74.21875 
z
" id="DejaVuSans-30"/>
      </defs>
      <g transform="translate(-10.805009 360.198437)scale(0.1 -0.1)">
       <use xlink:href="#DejaVuSans-2212"/>
       <use x="83.789062" xlink:href="#DejaVuSans-31"/>
       <use x="147.412109" xlink:href="#DejaVuSans-2e"/>
       <use x="179.199219" xlink:href="#DejaVuSans-30"/>
       <use x="242.822266" xlink:href="#DejaVuSans-30"/>
      </g>
     </g>
    </g>
    <g id="xtick_2">
     <g id="line2d_2">
      <g>
       <use style="stroke:#000000;stroke-width:0.8;" x="60.988235" xlink:href="#mbf15bcc5fc" y="345.6"/>
      </g>
     </g>
     <g id="text_2">
      <!-- −0.75 -->
      <defs>
       <path d="M 8.203125 72.90625 
L 55.078125 72.90625 
L 55.078125 68.703125 
L 28.609375 0 
L 18.3125 0 
L 43.21875 64.59375 
L 8.203125 64.59375 
z
" id="DejaVuSans-37"/>
       <path d="M 10.796875 72.90625 
L 49.515625 72.90625 
L 49.515625 64.59375 
L 19.828125 64.59375 
L 19.828125 46.734375 
Q 21.96875 47.46875 24.109375 47.828125 
Q 26.265625 48.1875 28.421875 48.1875 
Q 40.625 48.1875 47.75 41.5 
Q 54.890625 34.8125 54.890625 23.390625 
Q 54.890625 11.625 47.5625 5.09375 
Q 40.234375 -1.421875 26.90625 -1.421875 
Q 22.3125 -1.421875 17.546875 -0.640625 
Q 12.796875 0.140625 7.71875 1.703125 
L 7.71875 11.625 
Q 12.109375 9.234375 16.796875 8.0625 
Q 21.484375 6.890625 26.703125 6.890625 
Q 35.15625 6.890625 40.078125 11.328125 
Q 45.015625 15.765625 45.015625 23.390625 
Q 45.015625 31 40.078125 35.4375 
Q 35.15625 39.890625 26.703125 39.890625 
Q 22.75 39.890625 18.8125 39.015625 
Q 14.890625 38.140625 10.796875 36.28125 
z
" id="DejaVuSans-35"/>
      </defs>
      <g transform="translate(45.665579 360.198437)scale(0.1 -0.1)">
       <use xlink:href="#DejaVuSans-2212"/>
       <use x="83.789062" xlink:href="#DejaVuSans-30"/>
       <use x="147.412109" xlink:href="#DejaVuSans-2e"/>
       <use x="179.199219" xlink:href="#DejaVuSans-37"/>
       <use x="242.822266" xlink:href="#DejaVuSans-35"/>
      </g>
     </g>
    </g>
    <g id="xtick_3">
     <g id="line2d_3">
      <g>
       <use style="stroke:#000000;stroke-width:0.8;" x="117.458824" xlink:href="#mbf15bcc5fc" y="345.6"/>
      </g>
     </g>
     <g id="text_3">
      <!-- −0.50 -->
      <g transform="translate(102.136167 360.198437)scale(0.1 -0.1)">
       <use xlink:href="#DejaVuSans-2212"/>
       <use x="83.789062" xlink:href="#DejaVuSans-30"/>
       <use x="147.412109" xlink:href="#DejaVuSans-2e"/>
       <use x="179.199219" xlink:href="#DejaVuSans-35"/>
       <use x="242.822266" xlink:href="#DejaVuSans-30"/>
      </g>
     </g>
    </g>
    <g id="xtick_4">
     <g id="line2d_4">
      <g>
       <use style="stroke:#000000;stroke-width:0.8;" x="173.929412" xlink:href="#mbf15bcc5fc" y="345.6"/>
      </g>
     </g>
     <g id="text_4">
      <!-- −0.25 -->
      <defs>
       <path d="M 19.1875 8.296875 
L 53.609375 8.296875 
L 53.609375 0 
L 7.328125 0 
L 7.328125 8.296875 
Q 12.9375 14.109375 22.625 23.890625 
Q 32.328125 33.6875 34.8125 36.53125 
Q 39.546875 41.84375 41.421875 45.53125 
Q 43.3125 49.21875 43.3125 52.78125 
Q 43.3125 58.59375 39.234375 62.25 
Q 35.15625 65.921875 28.609375 65.921875 
Q 23.96875 65.921875 18.8125 64.3125 
Q 13.671875 62.703125 7.8125 59.421875 
L 7.8125 69.390625 
Q 13.765625 71.78125 18.9375 73 
Q 24.125 74.21875 28.421875 74.21875 
Q 39.75 74.21875 46.484375 68.546875 
Q 53.21875 62.890625 53.21875 53.421875 
Q 53.21875 48.921875 51.53125 44.890625 
Q 49.859375 40.875 45.40625 35.40625 
Q 44.1875 33.984375 37.640625 27.21875 
Q 31.109375 20.453125 19.1875 8.296875 
z
" id="DejaVuSans-32"/>
      </defs>
      <g transform="translate(158.606756 360.198437)scale(0.1 -0.1)">
       <use xlink:href="#DejaVuSans-2212"/>
       <use x="83.789062" xlink:href="#DejaVuSans-30"/>
       <use x="147.412109" xlink:href="#DejaVuSans-2e"/>
       <use x="179.199219" xlink:href="#DejaVuSans-32"/>
       <use x="242.822266" xlink:href="#DejaVuSans-35"/>
      </g>
     </g>
    </g>
    <g id="xtick_5">
     <g id="line2d_5">
      <g>
       <use style="stroke:#000000;stroke-width:0.8;" x="230.4" xlink:href="#mbf15bcc5fc" y="345.6"/>
      </g>
     </g>
     <g id="text_5">
      <!-- 0.00 -->
      <g transform="translate(219.267188 360.198437)scale(0.1 -0.1)">
       <use xlink:href="#DejaVuSans-30"/>
       <use x="63.623047" xlink:href="#DejaVuSans-2e"/>
       <use x="95.410156" xlink:href="#DejaVuSans-30"/>
       <use x="159.033203" xlink:href="#DejaVuSans-30"/>
      </g>
     </g>
    </g>
    <g id="xtick_6">
     <g id="line2d_6">
      <g>
       <use style="stroke:#000000;stroke-width:0.8;" x="286.870588" xlink:href="#mbf15bcc5fc" y="345.6"/>
      </g>
     </g>
     <g id="text_6">
      <!-- 0.25 -->
      <g transform="translate(275.737776 360.198437)scale(0.1 -0.1)">
       <use xlink:href="#DejaVuSans-30"/>
       <use x="63.623047" xlink:href="#DejaVuSans-2e"/>
       <use x="95.410156" xlink:href="#DejaVuSans-32"/>
       <use x="159.033203" xlink:href="#DejaVuSans-35"/>
      </g>
     </g>
    </g>
    <g id="xtick_7">
     <g id="line2d_7">
      <g>
       <use style="stroke:#000000;stroke-width:0.8;" x="343.341176" xlink:href="#mbf15bcc5fc" y="345.6"/>
      </g>
     </g>
     <g id="text_7">
      <!-- 0.50 -->
      <g transform="translate(332.208364 360.198437)scale(0.1 -0.1)">
       <use xlink:href="#DejaVuSans-30"/>
       <use x="63.623047" xlink:href="#DejaVuSans-2e"/>
       <use x="95.410156" xlink:href="#DejaVuSans-35"/>
       <use x="159.033203" xlink:href="#DejaVuSans-30"/>
      </g>
     </g>
    </g>
    <g id="xtick_8">
     <g id="line2d_8">
      <g>
       <use style="stroke:#000000;stroke-width:0.8;" x="399.811765" xlink:href="#mbf15bcc5fc" y="345.6"/>
      </g>
     </g>
     <g id="text_8">
      <!-- 0.75 -->
      <g transform="translate(388.678952 360.198437)scale(0.1 -0.1)">
       <use xlink:href="#DejaVuSans-30"/>
       <use x="63.623047" xlink:href="#DejaVuSans-2e"/>
       <use x="95.410156" xlink:href="#DejaVuSans-37"/>
       <use x="159.033203" xlink:href="#DejaVuSans-35"/>
      </g>
     </g>
    </g>
    <g id="xtick_9">
     <g id="line2d_9">
      <g>
       <use style="stroke:#000000;stroke-width:0.8;" x="456.282353" xlink:href="#mbf15bcc5fc" y="345.6"/>
      </g>
     </g>
     <g id="text_9">
      <!-- 1.00 -->
      <g transform="translate(445.14954 360.198437)scale(0.1 -0.1)">
       <use xlink:href="#DejaVuSans-31"/>
       <use x="63.623047" xlink:href="#DejaVuSans-2e"/>
       <use x="95.410156" xlink:href="#DejaVuSans-30"/>
       <use x="159.033203" xlink:href="#DejaVuSans-30"/>
      </g>
     </g>
    </g>
   </g>
   <g id="matplotlib.axis_2">
    <g id="ytick_1">
     <g id="line2d_10">
      <defs>
       <path d="M 0 0 
L -3.5 0 
" id="m0bcb06fbbb" style="stroke:#000000;stroke-width:0.8;"/>
      </defs>
      <g>
       <use style="stroke:#000000;stroke-width:0.8;" x="0" xlink:href="#m0bcb06fbbb" y="310.833373"/>
      </g>
     </g>
     <g id="text_10">
      <!-- −6 -->
      <defs>
       <path d="M 33.015625 40.375 
Q 26.375 40.375 22.484375 35.828125 
Q 18.609375 31.296875 18.609375 23.390625 
Q 18.609375 15.53125 22.484375 10.953125 
Q 26.375 6.390625 33.015625 6.390625 
Q 39.65625 6.390625 43.53125 10.953125 
Q 47.40625 15.53125 47.40625 23.390625 
Q 47.40625 31.296875 43.53125 35.828125 
Q 39.65625 40.375 33.015625 40.375 
z
M 52.59375 71.296875 
L 52.59375 62.3125 
Q 48.875 64.0625 45.09375 64.984375 
Q 41.3125 65.921875 37.59375 65.921875 
Q 27.828125 65.921875 22.671875 59.328125 
Q 17.53125 52.734375 16.796875 39.40625 
Q 19.671875 43.65625 24.015625 45.921875 
Q 28.375 48.1875 33.59375 48.1875 
Q 44.578125 48.1875 50.953125 41.515625 
Q 57.328125 34.859375 57.328125 23.390625 
Q 57.328125 12.15625 50.6875 5.359375 
Q 44.046875 -1.421875 33.015625 -1.421875 
Q 20.359375 -1.421875 13.671875 8.265625 
Q 6.984375 17.96875 6.984375 36.375 
Q 6.984375 53.65625 15.1875 63.9375 
Q 23.390625 74.21875 37.203125 74.21875 
Q 40.921875 74.21875 44.703125 73.484375 
Q 48.484375 72.75 52.59375 71.296875 
z
" id="DejaVuSans-36"/>
      </defs>
      <g transform="translate(-21.742188 314.632592)scale(0.1 -0.1)">
       <use xlink:href="#DejaVuSans-2212"/>
       <use x="83.789062" xlink:href="#DejaVuSans-36"/>
      </g>
     </g>
    </g>
    <g id="ytick_2">
     <g id="line2d_11">
      <g>
       <use style="stroke:#000000;stroke-width:0.8;" x="0" xlink:href="#m0bcb06fbbb" y="267.070983"/>
      </g>
     </g>
     <g id="text_11">
      <!-- −4 -->
      <defs>
       <path d="M 37.796875 64.3125 
L 12.890625 25.390625 
L 37.796875 25.390625 
z
M 35.203125 72.90625 
L 47.609375 72.90625 
L 47.609375 25.390625 
L 58.015625 25.390625 
L 58.015625 17.1875 
L 47.609375 17.1875 
L 47.609375 0 
L 37.796875 0 
L 37.796875 17.1875 
L 4.890625 17.1875 
L 4.890625 26.703125 
z
" id="DejaVuSans-34"/>
      </defs>
      <g transform="translate(-21.742188 270.870202)scale(0.1 -0.1)">
       <use xlink:href="#DejaVuSans-2212"/>
       <use x="83.789062" xlink:href="#DejaVuSans-34"/>
      </g>
     </g>
    </g>
    <g id="ytick_3">
     <g id="line2d_12">
      <g>
       <use style="stroke:#000000;stroke-width:0.8;" x="0" xlink:href="#m0bcb06fbbb" y="223.308592"/>
      </g>
     </g>
     <g id="text_12">
      <!-- −2 -->
      <g transform="translate(-21.742188 227.107811)scale(0.1 -0.1)">
       <use xlink:href="#DejaVuSans-2212"/>
       <use x="83.789062" xlink:href="#DejaVuSans-32"/>
      </g>
     </g>
    </g>
    <g id="ytick_4">
     <g id="line2d_13">
      <g>
       <use style="stroke:#000000;stroke-width:0.8;" x="0" xlink:href="#m0bcb06fbbb" y="179.546202"/>
      </g>
     </g>
     <g id="text_13">
      <!-- 0 -->
      <g transform="translate(-13.3625 183.34542)scale(0.1 -0.1)">
       <use xlink:href="#DejaVuSans-30"/>
      </g>
     </g>
    </g>
    <g id="ytick_5">
     <g id="line2d_14">
      <g>
       <use style="stroke:#000000;stroke-width:0.8;" x="0" xlink:href="#m0bcb06fbbb" y="135.783811"/>
      </g>
     </g>
     <g id="text_14">
      <!-- 2 -->
      <g transform="translate(-13.3625 139.58303)scale(0.1 -0.1)">
       <use xlink:href="#DejaVuSans-32"/>
      </g>
     </g>
    </g>
    <g id="ytick_6">
     <g id="line2d_15">
      <g>
       <use style="stroke:#000000;stroke-width:0.8;" x="0" xlink:href="#m0bcb06fbbb" y="92.02142"/>
      </g>
     </g>
     <g id="text_15">
      <!-- 4 -->
      <g transform="translate(-13.3625 95.820639)scale(0.1 -0.1)">
       <use xlink:href="#DejaVuSans-34"/>
      </g>
     </g>
    </g>
    <g id="ytick_7">
     <g id="line2d_16">
      <g>
       <use style="stroke:#000000;stroke-width:0.8;" x="0" xlink:href="#m0bcb06fbbb" y="48.25903"/>
      </g>
     </g>
     <g id="text_16">
      <!-- 6 -->
      <g transform="translate(-13.3625 52.058249)scale(0.1 -0.1)">
       <use xlink:href="#DejaVuSans-36"/>
      </g>
     </g>
    </g>
    <g id="ytick_8">
     <g id="line2d_17">
      <g>
       <use style="stroke:#000000;stroke-width:0.8;" x="0" xlink:href="#m0bcb06fbbb" y="4.496639"/>
      </g>
     </g>
     <g id="text_17">
      <!-- 8 -->
      <defs>
       <path d="M 31.78125 34.625 
Q 24.75 34.625 20.71875 30.859375 
Q 16.703125 27.09375 16.703125 20.515625 
Q 16.703125 13.921875 20.71875 10.15625 
Q 24.75 6.390625 31.78125 6.390625 
Q 38.8125 6.390625 42.859375 10.171875 
Q 46.921875 13.96875 46.921875 20.515625 
Q 46.921875 27.09375 42.890625 30.859375 
Q 38.875 34.625 31.78125 34.625 
z
M 21.921875 38.8125 
Q 15.578125 40.375 12.03125 44.71875 
Q 8.5 49.078125 8.5 55.328125 
Q 8.5 64.0625 14.71875 69.140625 
Q 20.953125 74.21875 31.78125 74.21875 
Q 42.671875 74.21875 48.875 69.140625 
Q 55.078125 64.0625 55.078125 55.328125 
Q 55.078125 49.078125 51.53125 44.71875 
Q 48 40.375 41.703125 38.8125 
Q 48.828125 37.15625 52.796875 32.3125 
Q 56.78125 27.484375 56.78125 20.515625 
Q 56.78125 9.90625 50.3125 4.234375 
Q 43.84375 -1.421875 31.78125 -1.421875 
Q 19.734375 -1.421875 13.25 4.234375 
Q 6.78125 9.90625 6.78125 20.515625 
Q 6.78125 27.484375 10.78125 32.3125 
Q 14.796875 37.15625 21.921875 38.8125 
z
M 18.3125 54.390625 
Q 18.3125 48.734375 21.84375 45.5625 
Q 25.390625 42.390625 31.78125 42.390625 
Q 38.140625 42.390625 41.71875 45.5625 
Q 45.3125 48.734375 45.3125 54.390625 
Q 45.3125 60.0625 41.71875 63.234375 
Q 38.140625 66.40625 31.78125 66.40625 
Q 25.390625 66.40625 21.84375 63.234375 
Q 18.3125 60.0625 18.3125 54.390625 
z
" id="DejaVuSans-38"/>
      </defs>
      <g transform="translate(-13.3625 8.295858)scale(0.1 -0.1)">
       <use xlink:href="#DejaVuSans-38"/>
      </g>
     </g>
    </g>
   </g>
   <g id="line2d_18">
    <defs>
     <path d="M 0 0.75 
C 0.198902 0.75 0.389685 0.670975 0.53033 0.53033 
C 0.670975 0.389685 0.75 0.198902 0.75 0 
C 0.75 -0.198902 0.670975 -0.389685 0.53033 -0.53033 
C 0.389685 -0.670975 0.198902 -0.75 0 -0.75 
C -0.198902 -0.75 -0.389685 -0.670975 -0.53033 -0.53033 
C -0.670975 -0.389685 -0.75 -0.198902 -0.75 0 
C -0.75 0.198902 -0.670975 0.389685 -0.53033 0.53033 
C -0.389685 0.670975 -0.198902 0.75 0 0.75 
z
" id="mbf245c968b" style="stroke:#1f77b4;"/>
    </defs>
    <g clip-path="url(#pea17209124)">
     <use style="fill:#1f77b4;stroke:#1f77b4;" x="4.517647" xlink:href="#mbf245c968b" y="3.388235"/>
     <use style="fill:#1f77b4;stroke:#1f77b4;" x="6.765233" xlink:href="#mbf245c968b" y="4.381767"/>
     <use style="fill:#1f77b4;stroke:#1f77b4;" x="9.012818" xlink:href="#mbf245c968b" y="7.013524"/>
     <use style="fill:#1f77b4;stroke:#1f77b4;" x="11.260404" xlink:href="#mbf245c968b" y="11.169547"/>
     <use style="fill:#1f77b4;stroke:#1f77b4;" x="13.507989" xlink:href="#mbf245c968b" y="16.717261"/>
     <use style="fill:#1f77b4;stroke:#1f77b4;" x="15.755575" xlink:href="#mbf245c968b" y="23.507785"/>
     <use style="fill:#1f77b4;stroke:#1f77b4;" x="18.003161" xlink:href="#mbf245c968b" y="31.378506"/>
     <use style="fill:#1f77b4;stroke:#1f77b4;" x="20.250746" xlink:href="#mbf245c968b" y="40.155855"/>
     <use style="fill:#1f77b4;stroke:#1f77b4;" x="22.498332" xlink:href="#mbf245c968b" y="49.658247"/>
     <use style="fill:#1f77b4;stroke:#1f77b4;" x="24.745917" xlink:href="#mbf245c968b" y="59.699144"/>
     <use style="fill:#1f77b4;stroke:#1f77b4;" x="26.993503" xlink:href="#mbf245c968b" y="70.09017"/>
     <use style="fill:#1f77b4;stroke:#1f77b4;" x="29.241089" xlink:href="#mbf245c968b" y="80.644238"/>
     <use style="fill:#1f77b4;stroke:#1f77b4;" x="31.488674" xlink:href="#mbf245c968b" y="91.17864"/>
     <use style="fill:#1f77b4;stroke:#1f77b4;" x="33.73626" xlink:href="#mbf245c968b" y="101.518023"/>
     <use style="fill:#1f77b4;stroke:#1f77b4;" x="35.983845" xlink:href="#mbf245c968b" y="111.497237"/>
     <use style="fill:#1f77b4;stroke:#1f77b4;" x="38.231431" xlink:href="#mbf245c968b" y="120.963964"/>
     <use style="fill:#1f77b4;stroke:#1f77b4;" x="40.479017" xlink:href="#mbf245c968b" y="129.781114"/>
     <use style="fill:#1f77b4;stroke:#1f77b4;" x="42.726602" xlink:href="#mbf245c968b" y="137.828933"/>
     <use style="fill:#1f77b4;stroke:#1f77b4;" x="44.974188" xlink:href="#mbf245c968b" y="145.006781"/>
     <use style="fill:#1f77b4;stroke:#1f77b4;" x="47.221773" xlink:href="#mbf245c968b" y="151.234566"/>
     <use style="fill:#1f77b4;stroke:#1f77b4;" x="49.469359" xlink:href="#mbf245c968b" y="156.45379"/>
     <use style="fill:#1f77b4;stroke:#1f77b4;" x="51.716945" xlink:href="#mbf245c968b" y="160.628199"/>
     <use style="fill:#1f77b4;stroke:#1f77b4;" x="53.96453" xlink:href="#mbf245c968b" y="163.744029"/>
     <use style="fill:#1f77b4;stroke:#1f77b4;" x="56.212116" xlink:href="#mbf245c968b" y="165.809829"/>
     <use style="fill:#1f77b4;stroke:#1f77b4;" x="58.459701" xlink:href="#mbf245c968b" y="166.855893"/>
     <use style="fill:#1f77b4;stroke:#1f77b4;" x="60.707287" xlink:href="#mbf245c968b" y="166.933273"/>
     <use style="fill:#1f77b4;stroke:#1f77b4;" x="62.954873" xlink:href="#mbf245c968b" y="166.112437"/>
     <use style="fill:#1f77b4;stroke:#1f77b4;" x="65.202458" xlink:href="#mbf245c968b" y="164.481552"/>
     <use style="fill:#1f77b4;stroke:#1f77b4;" x="67.450044" xlink:href="#mbf245c968b" y="162.144466"/>
     <use style="fill:#1f77b4;stroke:#1f77b4;" x="69.697629" xlink:href="#mbf245c968b" y="159.218396"/>
     <use style="fill:#1f77b4;stroke:#1f77b4;" x="71.945215" xlink:href="#mbf245c968b" y="155.831381"/>
     <use style="fill:#1f77b4;stroke:#1f77b4;" x="74.192801" xlink:href="#mbf245c968b" y="152.119546"/>
     <use style="fill:#1f77b4;stroke:#1f77b4;" x="76.440386" xlink:href="#mbf245c968b" y="148.224228"/>
     <use style="fill:#1f77b4;stroke:#1f77b4;" x="78.687972" xlink:href="#mbf245c968b" y="144.289015"/>
     <use style="fill:#1f77b4;stroke:#1f77b4;" x="80.935558" xlink:href="#mbf245c968b" y="140.456758"/>
     <use style="fill:#1f77b4;stroke:#1f77b4;" x="83.183143" xlink:href="#mbf245c968b" y="136.866617"/>
     <use style="fill:#1f77b4;stroke:#1f77b4;" x="85.430729" xlink:href="#mbf245c968b" y="133.651186"/>
     <use style="fill:#1f77b4;stroke:#1f77b4;" x="87.678314" xlink:href="#mbf245c968b" y="130.933763"/>
     <use style="fill:#1f77b4;stroke:#1f77b4;" x="89.9259" xlink:href="#mbf245c968b" y="168.244572"/>
     <use style="fill:#1f77b4;stroke:#1f77b4;" x="92.173486" xlink:href="#mbf245c968b" y="169.953618"/>
     <use style="fill:#1f77b4;stroke:#1f77b4;" x="94.421071" xlink:href="#mbf245c968b" y="173.31924"/>
     <use style="fill:#1f77b4;stroke:#1f77b4;" x="96.668657" xlink:href="#mbf245c968b" y="178.292666"/>
     <use style="fill:#1f77b4;stroke:#1f77b4;" x="98.916242" xlink:href="#mbf245c968b" y="184.791102"/>
     <use style="fill:#1f77b4;stroke:#1f77b4;" x="101.163828" xlink:href="#mbf245c968b" y="192.699275"/>
     <use style="fill:#1f77b4;stroke:#1f77b4;" x="103.411414" xlink:href="#mbf245c968b" y="201.871596"/>
     <use style="fill:#1f77b4;stroke:#1f77b4;" x="105.658999" xlink:href="#mbf245c968b" y="212.134927"/>
     <use style="fill:#1f77b4;stroke:#1f77b4;" x="107.906585" xlink:href="#mbf245c968b" y="223.291871"/>
     <use style="fill:#1f77b4;stroke:#1f77b4;" x="110.15417" xlink:href="#mbf245c968b" y="235.124535"/>
     <use style="fill:#1f77b4;stroke:#1f77b4;" x="112.401756" xlink:href="#mbf245c968b" y="247.398695"/>
     <use style="fill:#1f77b4;stroke:#1f77b4;" x="114.649342" xlink:href="#mbf245c968b" y="259.868273"/>
     <use style="fill:#1f77b4;stroke:#1f77b4;" x="116.896927" xlink:href="#mbf245c968b" y="272.28004"/>
     <use style="fill:#1f77b4;stroke:#1f77b4;" x="119.144513" xlink:href="#mbf245c968b" y="284.378467"/>
     <use style="fill:#1f77b4;stroke:#1f77b4;" x="121.392098" xlink:href="#mbf245c968b" y="295.910605"/>
     <use style="fill:#1f77b4;stroke:#1f77b4;" x="123.639684" xlink:href="#mbf245c968b" y="306.630926"/>
     <use style="fill:#1f77b4;stroke:#1f77b4;" x="125.88727" xlink:href="#mbf245c968b" y="316.306007"/>
     <use style="fill:#1f77b4;stroke:#1f77b4;" x="128.134855" xlink:href="#mbf245c968b" y="324.718987"/>
     <use style="fill:#1f77b4;stroke:#1f77b4;" x="130.382441" xlink:href="#mbf245c968b" y="331.673695"/>
     <use style="fill:#1f77b4;stroke:#1f77b4;" x="132.630026" xlink:href="#mbf245c968b" y="336.998377"/>
     <use style="fill:#1f77b4;stroke:#1f77b4;" x="134.877612" xlink:href="#mbf245c968b" y="340.54896"/>
     <use style="fill:#1f77b4;stroke:#1f77b4;" x="137.125198" xlink:href="#mbf245c968b" y="342.211765"/>
     <use style="fill:#1f77b4;stroke:#1f77b4;" x="139.372783" xlink:href="#mbf245c968b" y="341.905648"/>
     <use style="fill:#1f77b4;stroke:#1f77b4;" x="141.620369" xlink:href="#mbf245c968b" y="339.583516"/>
     <use style="fill:#1f77b4;stroke:#1f77b4;" x="143.867954" xlink:href="#mbf245c968b" y="335.233182"/>
     <use style="fill:#1f77b4;stroke:#1f77b4;" x="146.11554" xlink:href="#mbf245c968b" y="328.87757"/>
     <use style="fill:#1f77b4;stroke:#1f77b4;" x="148.363126" xlink:href="#mbf245c968b" y="320.574241"/>
     <use style="fill:#1f77b4;stroke:#1f77b4;" x="150.610711" xlink:href="#mbf245c968b" y="310.414279"/>
     <use style="fill:#1f77b4;stroke:#1f77b4;" x="152.858297" xlink:href="#mbf245c968b" y="298.52054"/>
     <use style="fill:#1f77b4;stroke:#1f77b4;" x="155.105882" xlink:href="#mbf245c968b" y="285.045321"/>
     <use style="fill:#1f77b4;stroke:#1f77b4;" x="157.353468" xlink:href="#mbf245c968b" y="270.16748"/>
     <use style="fill:#1f77b4;stroke:#1f77b4;" x="159.601054" xlink:href="#mbf245c968b" y="254.089082"/>
     <use style="fill:#1f77b4;stroke:#1f77b4;" x="161.848639" xlink:href="#mbf245c968b" y="237.031634"/>
     <use style="fill:#1f77b4;stroke:#1f77b4;" x="164.096225" xlink:href="#mbf245c968b" y="219.231977"/>
     <use style="fill:#1f77b4;stroke:#1f77b4;" x="166.34381" xlink:href="#mbf245c968b" y="200.937936"/>
     <use style="fill:#1f77b4;stroke:#1f77b4;" x="168.591396" xlink:href="#mbf245c968b" y="182.403793"/>
     <use style="fill:#1f77b4;stroke:#1f77b4;" x="170.838982" xlink:href="#mbf245c968b" y="163.885695"/>
     <use style="fill:#1f77b4;stroke:#1f77b4;" x="173.086567" xlink:href="#mbf245c968b" y="145.637064"/>
     <use style="fill:#1f77b4;stroke:#1f77b4;" x="175.334153" xlink:href="#mbf245c968b" y="127.904121"/>
     <use style="fill:#1f77b4;stroke:#1f77b4;" x="177.581738" xlink:href="#mbf245c968b" y="110.921593"/>
     <use style="fill:#1f77b4;stroke:#1f77b4;" x="179.829324" xlink:href="#mbf245c968b" y="94.908695"/>
     <use style="fill:#1f77b4;stroke:#1f77b4;" x="182.07691" xlink:href="#mbf245c968b" y="80.065455"/>
     <use style="fill:#1f77b4;stroke:#1f77b4;" x="184.324495" xlink:href="#mbf245c968b" y="66.56946"/>
     <use style="fill:#1f77b4;stroke:#1f77b4;" x="186.572081" xlink:href="#mbf245c968b" y="54.573071"/>
     <use style="fill:#1f77b4;stroke:#1f77b4;" x="188.819666" xlink:href="#mbf245c968b" y="44.201164"/>
     <use style="fill:#1f77b4;stroke:#1f77b4;" x="191.067252" xlink:href="#mbf245c968b" y="35.549428"/>
     <use style="fill:#1f77b4;stroke:#1f77b4;" x="193.314838" xlink:href="#mbf245c968b" y="28.683256"/>
     <use style="fill:#1f77b4;stroke:#1f77b4;" x="195.562423" xlink:href="#mbf245c968b" y="23.637228"/>
     <use style="fill:#1f77b4;stroke:#1f77b4;" x="197.810009" xlink:href="#mbf245c968b" y="20.415203"/>
     <use style="fill:#1f77b4;stroke:#1f77b4;" x="200.057594" xlink:href="#mbf245c968b" y="18.990999"/>
     <use style="fill:#1f77b4;stroke:#1f77b4;" x="202.30518" xlink:href="#mbf245c968b" y="19.309641"/>
     <use style="fill:#1f77b4;stroke:#1f77b4;" x="204.552766" xlink:href="#mbf245c968b" y="21.289145"/>
     <use style="fill:#1f77b4;stroke:#1f77b4;" x="206.800351" xlink:href="#mbf245c968b" y="24.822792"/>
     <use style="fill:#1f77b4;stroke:#1f77b4;" x="209.047937" xlink:href="#mbf245c968b" y="29.781839"/>
     <use style="fill:#1f77b4;stroke:#1f77b4;" x="211.295522" xlink:href="#mbf245c968b" y="36.018599"/>
     <use style="fill:#1f77b4;stroke:#1f77b4;" x="213.543108" xlink:href="#mbf245c968b" y="43.369837"/>
     <use style="fill:#1f77b4;stroke:#1f77b4;" x="215.790694" xlink:href="#mbf245c968b" y="51.660381"/>
     <use style="fill:#1f77b4;stroke:#1f77b4;" x="218.038279" xlink:href="#mbf245c968b" y="60.706904"/>
     <use style="fill:#1f77b4;stroke:#1f77b4;" x="220.285865" xlink:href="#mbf245c968b" y="70.321761"/>
     <use style="fill:#1f77b4;stroke:#1f77b4;" x="222.53345" xlink:href="#mbf245c968b" y="80.31683"/>
     <use style="fill:#1f77b4;stroke:#1f77b4;" x="224.781036" xlink:href="#mbf245c968b" y="90.507259"/>
     <use style="fill:#1f77b4;stroke:#1f77b4;" x="227.028622" xlink:href="#mbf245c968b" y="100.715056"/>
     <use style="fill:#1f77b4;stroke:#1f77b4;" x="229.276207" xlink:href="#mbf245c968b" y="110.772433"/>
     <use style="fill:#1f77b4;stroke:#1f77b4;" x="231.523793" xlink:href="#mbf245c968b" y="120.524864"/>
     <use style="fill:#1f77b4;stroke:#1f77b4;" x="233.771378" xlink:href="#mbf245c968b" y="129.833771"/>
     <use style="fill:#1f77b4;stroke:#1f77b4;" x="236.018964" xlink:href="#mbf245c968b" y="138.578807"/>
     <use style="fill:#1f77b4;stroke:#1f77b4;" x="238.26655" xlink:href="#mbf245c968b" y="146.659692"/>
     <use style="fill:#1f77b4;stroke:#1f77b4;" x="240.514135" xlink:href="#mbf245c968b" y="153.997569"/>
     <use style="fill:#1f77b4;stroke:#1f77b4;" x="242.761721" xlink:href="#mbf245c968b" y="160.535854"/>
     <use style="fill:#1f77b4;stroke:#1f77b4;" x="245.009306" xlink:href="#mbf245c968b" y="166.240592"/>
     <use style="fill:#1f77b4;stroke:#1f77b4;" x="247.256892" xlink:href="#mbf245c968b" y="171.100302"/>
     <use style="fill:#1f77b4;stroke:#1f77b4;" x="249.504478" xlink:href="#mbf245c968b" y="175.12533"/>
     <use style="fill:#1f77b4;stroke:#1f77b4;" x="251.752063" xlink:href="#mbf245c968b" y="178.346739"/>
     <use style="fill:#1f77b4;stroke:#1f77b4;" x="253.999649" xlink:href="#mbf245c968b" y="180.814768"/>
     <use style="fill:#1f77b4;stroke:#1f77b4;" x="256.247234" xlink:href="#mbf245c968b" y="182.596894"/>
     <use style="fill:#1f77b4;stroke:#1f77b4;" x="258.49482" xlink:href="#mbf245c968b" y="183.775565"/>
     <use style="fill:#1f77b4;stroke:#1f77b4;" x="260.742406" xlink:href="#mbf245c968b" y="184.44564"/>
     <use style="fill:#1f77b4;stroke:#1f77b4;" x="262.989991" xlink:href="#mbf245c968b" y="184.711615"/>
     <use style="fill:#1f77b4;stroke:#1f77b4;" x="265.237577" xlink:href="#mbf245c968b" y="184.6847"/>
     <use style="fill:#1f77b4;stroke:#1f77b4;" x="267.485162" xlink:href="#mbf245c968b" y="184.479802"/>
     <use style="fill:#1f77b4;stroke:#1f77b4;" x="269.732748" xlink:href="#mbf245c968b" y="184.212504"/>
     <use style="fill:#1f77b4;stroke:#1f77b4;" x="271.980334" xlink:href="#mbf245c968b" y="183.996087"/>
     <use style="fill:#1f77b4;stroke:#1f77b4;" x="274.227919" xlink:href="#mbf245c968b" y="183.938687"/>
     <use style="fill:#1f77b4;stroke:#1f77b4;" x="276.475505" xlink:href="#mbf245c968b" y="184.140624"/>
     <use style="fill:#1f77b4;stroke:#1f77b4;" x="278.72309" xlink:href="#mbf245c968b" y="184.69198"/>
     <use style="fill:#1f77b4;stroke:#1f77b4;" x="280.970676" xlink:href="#mbf245c968b" y="185.670472"/>
     <use style="fill:#1f77b4;stroke:#1f77b4;" x="283.218262" xlink:href="#mbf245c968b" y="187.139658"/>
     <use style="fill:#1f77b4;stroke:#1f77b4;" x="285.465847" xlink:href="#mbf245c968b" y="189.147526"/>
     <use style="fill:#1f77b4;stroke:#1f77b4;" x="287.713433" xlink:href="#mbf245c968b" y="191.725473"/>
     <use style="fill:#1f77b4;stroke:#1f77b4;" x="289.961018" xlink:href="#mbf245c968b" y="194.887718"/>
     <use style="fill:#1f77b4;stroke:#1f77b4;" x="292.208604" xlink:href="#mbf245c968b" y="198.631126"/>
     <use style="fill:#1f77b4;stroke:#1f77b4;" x="294.45619" xlink:href="#mbf245c968b" y="202.935474"/>
     <use style="fill:#1f77b4;stroke:#1f77b4;" x="296.703775" xlink:href="#mbf245c968b" y="207.764112"/>
     <use style="fill:#1f77b4;stroke:#1f77b4;" x="298.951361" xlink:href="#mbf245c968b" y="213.065033"/>
     <use style="fill:#1f77b4;stroke:#1f77b4;" x="301.198946" xlink:href="#mbf245c968b" y="218.772289"/>
     <use style="fill:#1f77b4;stroke:#1f77b4;" x="303.446532" xlink:href="#mbf245c968b" y="224.807742"/>
     <use style="fill:#1f77b4;stroke:#1f77b4;" x="305.694118" xlink:href="#mbf245c968b" y="231.08309"/>
     <use style="fill:#1f77b4;stroke:#1f77b4;" x="307.941703" xlink:href="#mbf245c968b" y="237.502116"/>
     <use style="fill:#1f77b4;stroke:#1f77b4;" x="310.189289" xlink:href="#mbf245c968b" y="243.963112"/>
     <use style="fill:#1f77b4;stroke:#1f77b4;" x="312.436874" xlink:href="#mbf245c968b" y="250.361417"/>
     <use style="fill:#1f77b4;stroke:#1f77b4;" x="314.68446" xlink:href="#mbf245c968b" y="256.591998"/>
     <use style="fill:#1f77b4;stroke:#1f77b4;" x="316.932046" xlink:href="#mbf245c968b" y="262.552025"/>
     <use style="fill:#1f77b4;stroke:#1f77b4;" x="319.179631" xlink:href="#mbf245c968b" y="268.143375"/>
     <use style="fill:#1f77b4;stroke:#1f77b4;" x="321.427217" xlink:href="#mbf245c968b" y="273.274992"/>
     <use style="fill:#1f77b4;stroke:#1f77b4;" x="323.674802" xlink:href="#mbf245c968b" y="277.865073"/>
     <use style="fill:#1f77b4;stroke:#1f77b4;" x="325.922388" xlink:href="#mbf245c968b" y="281.843006"/>
     <use style="fill:#1f77b4;stroke:#1f77b4;" x="328.169974" xlink:href="#mbf245c968b" y="285.15103"/>
     <use style="fill:#1f77b4;stroke:#1f77b4;" x="330.417559" xlink:href="#mbf245c968b" y="287.745568"/>
     <use style="fill:#1f77b4;stroke:#1f77b4;" x="332.665145" xlink:href="#mbf245c968b" y="289.598214"/>
     <use style="fill:#1f77b4;stroke:#1f77b4;" x="334.91273" xlink:href="#mbf245c968b" y="290.696345"/>
     <use style="fill:#1f77b4;stroke:#1f77b4;" x="337.160316" xlink:href="#mbf245c968b" y="291.043342"/>
     <use style="fill:#1f77b4;stroke:#1f77b4;" x="339.407902" xlink:href="#mbf245c968b" y="290.658433"/>
     <use style="fill:#1f77b4;stroke:#1f77b4;" x="341.655487" xlink:href="#mbf245c968b" y="289.576139"/>
     <use style="fill:#1f77b4;stroke:#1f77b4;" x="343.903073" xlink:href="#mbf245c968b" y="287.84536"/>
     <use style="fill:#1f77b4;stroke:#1f77b4;" x="346.150658" xlink:href="#mbf245c968b" y="285.528112"/>
     <use style="fill:#1f77b4;stroke:#1f77b4;" x="348.398244" xlink:href="#mbf245c968b" y="282.697946"/>
     <use style="fill:#1f77b4;stroke:#1f77b4;" x="350.64583" xlink:href="#mbf245c968b" y="279.438095"/>
     <use style="fill:#1f77b4;stroke:#1f77b4;" x="352.893415" xlink:href="#mbf245c968b" y="275.839391"/>
     <use style="fill:#1f77b4;stroke:#1f77b4;" x="355.141001" xlink:href="#mbf245c968b" y="271.997992"/>
     <use style="fill:#1f77b4;stroke:#1f77b4;" x="357.388586" xlink:href="#mbf245c968b" y="268.012999"/>
     <use style="fill:#1f77b4;stroke:#1f77b4;" x="359.636172" xlink:href="#mbf245c968b" y="263.983986"/>
     <use style="fill:#1f77b4;stroke:#1f77b4;" x="361.883758" xlink:href="#mbf245c968b" y="260.008535"/>
     <use style="fill:#1f77b4;stroke:#1f77b4;" x="364.131343" xlink:href="#mbf245c968b" y="256.179811"/>
     <use style="fill:#1f77b4;stroke:#1f77b4;" x="366.378929" xlink:href="#mbf245c968b" y="252.58425"/>
     <use style="fill:#1f77b4;stroke:#1f77b4;" x="368.626514" xlink:href="#mbf245c968b" y="249.299408"/>
     <use style="fill:#1f77b4;stroke:#1f77b4;" x="370.8741" xlink:href="#mbf245c968b" y="246.392023"/>
     <use style="fill:#1f77b4;stroke:#1f77b4;" x="373.121686" xlink:href="#mbf245c968b" y="243.916345"/>
     <use style="fill:#1f77b4;stroke:#1f77b4;" x="375.369271" xlink:href="#mbf245c968b" y="241.912754"/>
     <use style="fill:#1f77b4;stroke:#1f77b4;" x="377.616857" xlink:href="#mbf245c968b" y="240.406733"/>
     <use style="fill:#1f77b4;stroke:#1f77b4;" x="379.864442" xlink:href="#mbf245c968b" y="239.408186"/>
     <use style="fill:#1f77b4;stroke:#1f77b4;" x="382.112028" xlink:href="#mbf245c968b" y="238.911141"/>
     <use style="fill:#1f77b4;stroke:#1f77b4;" x="384.359614" xlink:href="#mbf245c968b" y="238.893846"/>
     <use style="fill:#1f77b4;stroke:#1f77b4;" x="386.607199" xlink:href="#mbf245c968b" y="239.319242"/>
     <use style="fill:#1f77b4;stroke:#1f77b4;" x="388.854785" xlink:href="#mbf245c968b" y="240.135818"/>
     <use style="fill:#1f77b4;stroke:#1f77b4;" x="391.102371" xlink:href="#mbf245c968b" y="241.278835"/>
     <use style="fill:#1f77b4;stroke:#1f77b4;" x="393.349956" xlink:href="#mbf245c968b" y="242.671864"/>
     <use style="fill:#1f77b4;stroke:#1f77b4;" x="395.597542" xlink:href="#mbf245c968b" y="244.228646"/>
     <use style="fill:#1f77b4;stroke:#1f77b4;" x="397.845127" xlink:href="#mbf245c968b" y="245.855186"/>
     <use style="fill:#1f77b4;stroke:#1f77b4;" x="400.092713" xlink:href="#mbf245c968b" y="247.452081"/>
     <use style="fill:#1f77b4;stroke:#1f77b4;" x="402.340299" xlink:href="#mbf245c968b" y="248.916985"/>
     <use style="fill:#1f77b4;stroke:#1f77b4;" x="404.587884" xlink:href="#mbf245c968b" y="250.14719"/>
     <use style="fill:#1f77b4;stroke:#1f77b4;" x="406.83547" xlink:href="#mbf245c968b" y="251.042242"/>
     <use style="fill:#1f77b4;stroke:#1f77b4;" x="409.083055" xlink:href="#mbf245c968b" y="251.506543"/>
     <use style="fill:#1f77b4;stroke:#1f77b4;" x="411.330641" xlink:href="#mbf245c968b" y="251.451871"/>
     <use style="fill:#1f77b4;stroke:#1f77b4;" x="413.578227" xlink:href="#mbf245c968b" y="250.799773"/>
     <use style="fill:#1f77b4;stroke:#1f77b4;" x="415.825812" xlink:href="#mbf245c968b" y="249.483751"/>
     <use style="fill:#1f77b4;stroke:#1f77b4;" x="418.073398" xlink:href="#mbf245c968b" y="247.451223"/>
     <use style="fill:#1f77b4;stroke:#1f77b4;" x="420.320983" xlink:href="#mbf245c968b" y="244.665175"/>
     <use style="fill:#1f77b4;stroke:#1f77b4;" x="422.568569" xlink:href="#mbf245c968b" y="241.105497"/>
     <use style="fill:#1f77b4;stroke:#1f77b4;" x="424.816155" xlink:href="#mbf245c968b" y="236.769945"/>
     <use style="fill:#1f77b4;stroke:#1f77b4;" x="427.06374" xlink:href="#mbf245c968b" y="231.674722"/>
     <use style="fill:#1f77b4;stroke:#1f77b4;" x="429.311326" xlink:href="#mbf245c968b" y="225.854648"/>
     <use style="fill:#1f77b4;stroke:#1f77b4;" x="431.558911" xlink:href="#mbf245c968b" y="219.362919"/>
     <use style="fill:#1f77b4;stroke:#1f77b4;" x="433.806497" xlink:href="#mbf245c968b" y="212.270455"/>
     <use style="fill:#1f77b4;stroke:#1f77b4;" x="436.054083" xlink:href="#mbf245c968b" y="204.664846"/>
     <use style="fill:#1f77b4;stroke:#1f77b4;" x="438.301668" xlink:href="#mbf245c968b" y="196.648915"/>
     <use style="fill:#1f77b4;stroke:#1f77b4;" x="440.549254" xlink:href="#mbf245c968b" y="188.338933"/>
     <use style="fill:#1f77b4;stroke:#1f77b4;" x="442.796839" xlink:href="#mbf245c968b" y="179.862504"/>
     <use style="fill:#1f77b4;stroke:#1f77b4;" x="445.044425" xlink:href="#mbf245c968b" y="171.356191"/>
     <use style="fill:#1f77b4;stroke:#1f77b4;" x="447.292011" xlink:href="#mbf245c968b" y="162.962902"/>
     <use style="fill:#1f77b4;stroke:#1f77b4;" x="449.539596" xlink:href="#mbf245c968b" y="154.829114"/>
     <use style="fill:#1f77b4;stroke:#1f77b4;" x="451.787182" xlink:href="#mbf245c968b" y="147.101976"/>
     <use style="fill:#1f77b4;stroke:#1f77b4;" x="454.034767" xlink:href="#mbf245c968b" y="139.926365"/>
     <use style="fill:#1f77b4;stroke:#1f77b4;" x="456.282353" xlink:href="#mbf245c968b" y="133.441949"/>
    </g>
   </g>
   <g id="line2d_19">
    <path clip-path="url(#pea17209124)" d="M 4.517647 179.544434 
L 35.983845 179.546846 
L 85.430729 179.546437 
L 87.678314 157.68499 
L 89.9259 179.552405 
L 116.896927 179.544266 
L 173.086567 179.548701 
L 211.295522 179.547495 
L 276.475505 179.544265 
L 456.282353 179.546202 
L 456.282353 179.546202 
" style="fill:none;stroke:#ff7f0e;stroke-linecap:square;"/>
   </g>
   <g id="line2d_20">
    <path clip-path="url(#pea17209124)" d="M 87.678314 345.6 
L 87.678314 0 
" style="fill:none;stroke:#008000;stroke-linecap:square;"/>
   </g>
   <g id="patch_3">
    <path d="M 0 345.6 
L 0 0 
" style="fill:none;stroke:#000000;stroke-linecap:square;stroke-linejoin:miter;stroke-width:0.8;"/>
   </g>
   <g id="patch_4">
    <path d="M 460.8 345.6 
L 460.8 0 
" style="fill:none;stroke:#000000;stroke-linecap:square;stroke-linejoin:miter;stroke-width:0.8;"/>
   </g>
   <g id="patch_5">
    <path d="M 0 345.6 
L 460.8 345.6 
" style="fill:none;stroke:#000000;stroke-linecap:square;stroke-linejoin:miter;stroke-width:0.8;"/>
   </g>
   <g id="patch_6">
    <path d="M 0 0 
L 460.8 0 
" style="fill:none;stroke:#000000;stroke-linecap:square;stroke-linejoin:miter;stroke-width:0.8;"/>
   </g>
   <g id="legend_1">
    <g id="patch_7">
     <path d="M 355.6125 37.35625 
L 453.8 37.35625 
Q 455.8 37.35625 455.8 35.35625 
L 455.8 7 
Q 455.8 5 453.8 5 
L 355.6125 5 
Q 353.6125 5 353.6125 7 
L 353.6125 35.35625 
Q 353.6125 37.35625 355.6125 37.35625 
z
" style="fill:#ffffff;opacity:0.8;stroke:#cccccc;stroke-linejoin:miter;"/>
    </g>
    <g id="line2d_21"/>
    <g id="line2d_22">
     <g>
      <use style="fill:#1f77b4;stroke:#1f77b4;" x="367.6125" xlink:href="#mbf245c968b" y="13.098437"/>
     </g>
    </g>
    <g id="text_18">
     <!-- Original data -->
     <defs>
      <path d="M 39.40625 66.21875 
Q 28.65625 66.21875 22.328125 58.203125 
Q 16.015625 50.203125 16.015625 36.375 
Q 16.015625 22.609375 22.328125 14.59375 
Q 28.65625 6.59375 39.40625 6.59375 
Q 50.140625 6.59375 56.421875 14.59375 
Q 62.703125 22.609375 62.703125 36.375 
Q 62.703125 50.203125 56.421875 58.203125 
Q 50.140625 66.21875 39.40625 66.21875 
z
M 39.40625 74.21875 
Q 54.734375 74.21875 63.90625 63.9375 
Q 73.09375 53.65625 73.09375 36.375 
Q 73.09375 19.140625 63.90625 8.859375 
Q 54.734375 -1.421875 39.40625 -1.421875 
Q 24.03125 -1.421875 14.8125 8.828125 
Q 5.609375 19.09375 5.609375 36.375 
Q 5.609375 53.65625 14.8125 63.9375 
Q 24.03125 74.21875 39.40625 74.21875 
z
" id="DejaVuSans-4f"/>
      <path d="M 41.109375 46.296875 
Q 39.59375 47.171875 37.8125 47.578125 
Q 36.03125 48 33.890625 48 
Q 26.265625 48 22.1875 43.046875 
Q 18.109375 38.09375 18.109375 28.8125 
L 18.109375 0 
L 9.078125 0 
L 9.078125 54.6875 
L 18.109375 54.6875 
L 18.109375 46.1875 
Q 20.953125 51.171875 25.484375 53.578125 
Q 30.03125 56 36.53125 56 
Q 37.453125 56 38.578125 55.875 
Q 39.703125 55.765625 41.0625 55.515625 
z
" id="DejaVuSans-72"/>
      <path d="M 9.421875 54.6875 
L 18.40625 54.6875 
L 18.40625 0 
L 9.421875 0 
z
M 9.421875 75.984375 
L 18.40625 75.984375 
L 18.40625 64.59375 
L 9.421875 64.59375 
z
" id="DejaVuSans-69"/>
      <path d="M 45.40625 27.984375 
Q 45.40625 37.75 41.375 43.109375 
Q 37.359375 48.484375 30.078125 48.484375 
Q 22.859375 48.484375 18.828125 43.109375 
Q 14.796875 37.75 14.796875 27.984375 
Q 14.796875 18.265625 18.828125 12.890625 
Q 22.859375 7.515625 30.078125 7.515625 
Q 37.359375 7.515625 41.375 12.890625 
Q 45.40625 18.265625 45.40625 27.984375 
z
M 54.390625 6.78125 
Q 54.390625 -7.171875 48.1875 -13.984375 
Q 42 -20.796875 29.203125 -20.796875 
Q 24.46875 -20.796875 20.265625 -20.09375 
Q 16.0625 -19.390625 12.109375 -17.921875 
L 12.109375 -9.1875 
Q 16.0625 -11.328125 19.921875 -12.34375 
Q 23.78125 -13.375 27.78125 -13.375 
Q 36.625 -13.375 41.015625 -8.765625 
Q 45.40625 -4.15625 45.40625 5.171875 
L 45.40625 9.625 
Q 42.625 4.78125 38.28125 2.390625 
Q 33.9375 0 27.875 0 
Q 17.828125 0 11.671875 7.65625 
Q 5.515625 15.328125 5.515625 27.984375 
Q 5.515625 40.671875 11.671875 48.328125 
Q 17.828125 56 27.875 56 
Q 33.9375 56 38.28125 53.609375 
Q 42.625 51.21875 45.40625 46.390625 
L 45.40625 54.6875 
L 54.390625 54.6875 
z
" id="DejaVuSans-67"/>
      <path d="M 54.890625 33.015625 
L 54.890625 0 
L 45.90625 0 
L 45.90625 32.71875 
Q 45.90625 40.484375 42.875 44.328125 
Q 39.84375 48.1875 33.796875 48.1875 
Q 26.515625 48.1875 22.3125 43.546875 
Q 18.109375 38.921875 18.109375 30.90625 
L 18.109375 0 
L 9.078125 0 
L 9.078125 54.6875 
L 18.109375 54.6875 
L 18.109375 46.1875 
Q 21.34375 51.125 25.703125 53.5625 
Q 30.078125 56 35.796875 56 
Q 45.21875 56 50.046875 50.171875 
Q 54.890625 44.34375 54.890625 33.015625 
z
" id="DejaVuSans-6e"/>
      <path d="M 34.28125 27.484375 
Q 23.390625 27.484375 19.1875 25 
Q 14.984375 22.515625 14.984375 16.5 
Q 14.984375 11.71875 18.140625 8.90625 
Q 21.296875 6.109375 26.703125 6.109375 
Q 34.1875 6.109375 38.703125 11.40625 
Q 43.21875 16.703125 43.21875 25.484375 
L 43.21875 27.484375 
z
M 52.203125 31.203125 
L 52.203125 0 
L 43.21875 0 
L 43.21875 8.296875 
Q 40.140625 3.328125 35.546875 0.953125 
Q 30.953125 -1.421875 24.3125 -1.421875 
Q 15.921875 -1.421875 10.953125 3.296875 
Q 6 8.015625 6 15.921875 
Q 6 25.140625 12.171875 29.828125 
Q 18.359375 34.515625 30.609375 34.515625 
L 43.21875 34.515625 
L 43.21875 35.40625 
Q 43.21875 41.609375 39.140625 45 
Q 35.0625 48.390625 27.6875 48.390625 
Q 23 48.390625 18.546875 47.265625 
Q 14.109375 46.140625 10.015625 43.890625 
L 10.015625 52.203125 
Q 14.9375 54.109375 19.578125 55.046875 
Q 24.21875 56 28.609375 56 
Q 40.484375 56 46.34375 49.84375 
Q 52.203125 43.703125 52.203125 31.203125 
z
" id="DejaVuSans-61"/>
      <path d="M 9.421875 75.984375 
L 18.40625 75.984375 
L 18.40625 0 
L 9.421875 0 
z
" id="DejaVuSans-6c"/>
      <path id="DejaVuSans-20"/>
      <path d="M 45.40625 46.390625 
L 45.40625 75.984375 
L 54.390625 75.984375 
L 54.390625 0 
L 45.40625 0 
L 45.40625 8.203125 
Q 42.578125 3.328125 38.25 0.953125 
Q 33.9375 -1.421875 27.875 -1.421875 
Q 17.96875 -1.421875 11.734375 6.484375 
Q 5.515625 14.40625 5.515625 27.296875 
Q 5.515625 40.1875 11.734375 48.09375 
Q 17.96875 56 27.875 56 
Q 33.9375 56 38.25 53.625 
Q 42.578125 51.265625 45.40625 46.390625 
z
M 14.796875 27.296875 
Q 14.796875 17.390625 18.875 11.75 
Q 22.953125 6.109375 30.078125 6.109375 
Q 37.203125 6.109375 41.296875 11.75 
Q 45.40625 17.390625 45.40625 27.296875 
Q 45.40625 37.203125 41.296875 42.84375 
Q 37.203125 48.484375 30.078125 48.484375 
Q 22.953125 48.484375 18.875 42.84375 
Q 14.796875 37.203125 14.796875 27.296875 
z
" id="DejaVuSans-64"/>
      <path d="M 18.3125 70.21875 
L 18.3125 54.6875 
L 36.8125 54.6875 
L 36.8125 47.703125 
L 18.3125 47.703125 
L 18.3125 18.015625 
Q 18.3125 11.328125 20.140625 9.421875 
Q 21.96875 7.515625 27.59375 7.515625 
L 36.8125 7.515625 
L 36.8125 0 
L 27.59375 0 
Q 17.1875 0 13.234375 3.875 
Q 9.28125 7.765625 9.28125 18.015625 
L 9.28125 47.703125 
L 2.6875 47.703125 
L 2.6875 54.6875 
L 9.28125 54.6875 
L 9.28125 70.21875 
z
" id="DejaVuSans-74"/>
     </defs>
     <g transform="translate(385.6125 16.598437)scale(0.1 -0.1)">
      <use xlink:href="#DejaVuSans-4f"/>
      <use x="78.710938" xlink:href="#DejaVuSans-72"/>
      <use x="119.824219" xlink:href="#DejaVuSans-69"/>
      <use x="147.607422" xlink:href="#DejaVuSans-67"/>
      <use x="211.083984" xlink:href="#DejaVuSans-69"/>
      <use x="238.867188" xlink:href="#DejaVuSans-6e"/>
      <use x="302.246094" xlink:href="#DejaVuSans-61"/>
      <use x="363.525391" xlink:href="#DejaVuSans-6c"/>
      <use x="391.308594" xlink:href="#DejaVuSans-20"/>
      <use x="423.095703" xlink:href="#DejaVuSans-64"/>
      <use x="486.572266" xlink:href="#DejaVuSans-61"/>
      <use x="547.851562" xlink:href="#DejaVuSans-74"/>
      <use x="587.060547" xlink:href="#DejaVuSans-61"/>
     </g>
    </g>
    <g id="line2d_23">
     <path d="M 357.6125 27.776563 
L 377.6125 27.776563 
" style="fill:none;stroke:#ff7f0e;stroke-linecap:square;"/>
    </g>
    <g id="line2d_24"/>
    <g id="text_19">
     <!-- Model output -->
     <defs>
      <path d="M 9.8125 72.90625 
L 24.515625 72.90625 
L 43.109375 23.296875 
L 61.8125 72.90625 
L 76.515625 72.90625 
L 76.515625 0 
L 66.890625 0 
L 66.890625 64.015625 
L 48.09375 14.015625 
L 38.1875 14.015625 
L 19.390625 64.015625 
L 19.390625 0 
L 9.8125 0 
z
" id="DejaVuSans-4d"/>
      <path d="M 30.609375 48.390625 
Q 23.390625 48.390625 19.1875 42.75 
Q 14.984375 37.109375 14.984375 27.296875 
Q 14.984375 17.484375 19.15625 11.84375 
Q 23.34375 6.203125 30.609375 6.203125 
Q 37.796875 6.203125 41.984375 11.859375 
Q 46.1875 17.53125 46.1875 27.296875 
Q 46.1875 37.015625 41.984375 42.703125 
Q 37.796875 48.390625 30.609375 48.390625 
z
M 30.609375 56 
Q 42.328125 56 49.015625 48.375 
Q 55.71875 40.765625 55.71875 27.296875 
Q 55.71875 13.875 49.015625 6.21875 
Q 42.328125 -1.421875 30.609375 -1.421875 
Q 18.84375 -1.421875 12.171875 6.21875 
Q 5.515625 13.875 5.515625 27.296875 
Q 5.515625 40.765625 12.171875 48.375 
Q 18.84375 56 30.609375 56 
z
" id="DejaVuSans-6f"/>
      <path d="M 56.203125 29.59375 
L 56.203125 25.203125 
L 14.890625 25.203125 
Q 15.484375 15.921875 20.484375 11.0625 
Q 25.484375 6.203125 34.421875 6.203125 
Q 39.59375 6.203125 44.453125 7.46875 
Q 49.3125 8.734375 54.109375 11.28125 
L 54.109375 2.78125 
Q 49.265625 0.734375 44.1875 -0.34375 
Q 39.109375 -1.421875 33.890625 -1.421875 
Q 20.796875 -1.421875 13.15625 6.1875 
Q 5.515625 13.8125 5.515625 26.8125 
Q 5.515625 40.234375 12.765625 48.109375 
Q 20.015625 56 32.328125 56 
Q 43.359375 56 49.78125 48.890625 
Q 56.203125 41.796875 56.203125 29.59375 
z
M 47.21875 32.234375 
Q 47.125 39.59375 43.09375 43.984375 
Q 39.0625 48.390625 32.421875 48.390625 
Q 24.90625 48.390625 20.390625 44.140625 
Q 15.875 39.890625 15.1875 32.171875 
z
" id="DejaVuSans-65"/>
      <path d="M 8.5 21.578125 
L 8.5 54.6875 
L 17.484375 54.6875 
L 17.484375 21.921875 
Q 17.484375 14.15625 20.5 10.265625 
Q 23.53125 6.390625 29.59375 6.390625 
Q 36.859375 6.390625 41.078125 11.03125 
Q 45.3125 15.671875 45.3125 23.6875 
L 45.3125 54.6875 
L 54.296875 54.6875 
L 54.296875 0 
L 45.3125 0 
L 45.3125 8.40625 
Q 42.046875 3.421875 37.71875 1 
Q 33.40625 -1.421875 27.6875 -1.421875 
Q 18.265625 -1.421875 13.375 4.4375 
Q 8.5 10.296875 8.5 21.578125 
z
M 31.109375 56 
z
" id="DejaVuSans-75"/>
      <path d="M 18.109375 8.203125 
L 18.109375 -20.796875 
L 9.078125 -20.796875 
L 9.078125 54.6875 
L 18.109375 54.6875 
L 18.109375 46.390625 
Q 20.953125 51.265625 25.265625 53.625 
Q 29.59375 56 35.59375 56 
Q 45.5625 56 51.78125 48.09375 
Q 58.015625 40.1875 58.015625 27.296875 
Q 58.015625 14.40625 51.78125 6.484375 
Q 45.5625 -1.421875 35.59375 -1.421875 
Q 29.59375 -1.421875 25.265625 0.953125 
Q 20.953125 3.328125 18.109375 8.203125 
z
M 48.6875 27.296875 
Q 48.6875 37.203125 44.609375 42.84375 
Q 40.53125 48.484375 33.40625 48.484375 
Q 26.265625 48.484375 22.1875 42.84375 
Q 18.109375 37.203125 18.109375 27.296875 
Q 18.109375 17.390625 22.1875 11.75 
Q 26.265625 6.109375 33.40625 6.109375 
Q 40.53125 6.109375 44.609375 11.75 
Q 48.6875 17.390625 48.6875 27.296875 
z
" id="DejaVuSans-70"/>
     </defs>
     <g transform="translate(385.6125 31.276563)scale(0.1 -0.1)">
      <use xlink:href="#DejaVuSans-4d"/>
      <use x="86.279297" xlink:href="#DejaVuSans-6f"/>
      <use x="147.460938" xlink:href="#DejaVuSans-64"/>
      <use x="210.9375" xlink:href="#DejaVuSans-65"/>
      <use x="272.460938" xlink:href="#DejaVuSans-6c"/>
      <use x="300.244141" xlink:href="#DejaVuSans-20"/>
      <use x="332.03125" xlink:href="#DejaVuSans-6f"/>
      <use x="393.212891" xlink:href="#DejaVuSans-75"/>
      <use x="456.591797" xlink:href="#DejaVuSans-74"/>
      <use x="495.800781" xlink:href="#DejaVuSans-70"/>
      <use x="559.277344" xlink:href="#DejaVuSans-75"/>
      <use x="622.65625" xlink:href="#DejaVuSans-74"/>
     </g>
    </g>
   </g>
  </g>
 </g>
 <defs>
  <clipPath id="pea17209124">
   <rect height="345.6" width="460.8" x="0" y="0"/>
  </clipPath>
 </defs>
</svg>
