<?xml version="1.0" encoding="utf-8" standalone="no"?>
<!DOCTYPE svg PUBLIC "-//W3C//DTD SVG 1.1//EN"
  "http://www.w3.org/Graphics/SVG/1.1/DTD/svg11.dtd">
<!-- Created with matplotlib (http://matplotlib.org/) -->
<svg height="345.6pt" version="1.1" viewBox="0 0 460.8 345.6" width="460.8pt" xmlns="http://www.w3.org/2000/svg" xmlns:xlink="http://www.w3.org/1999/xlink">
 <defs>
  <style type="text/css">
*{stroke-linecap:butt;stroke-linejoin:round;}
  </style>
 </defs>
 <g id="figure_1">
  <g id="patch_1">
   <path d="M 0 345.6 
L 460.8 345.6 
L 460.8 0 
L 0 0 
z
" style="fill:#ffffff;"/>
  </g>
  <g id="axes_1">
   <g id="patch_2">
    <path d="M 57.6 307.584 
L 414.72 307.584 
L 414.72 41.472 
L 57.6 41.472 
z
" style="fill:#ffffff;"/>
   </g>
   <g id="matplotlib.axis_1">
    <g id="xtick_1">
     <g id="line2d_1">
      <defs>
       <path d="M 0 0 
L 0 3.5 
" id="m2ba8817930" style="stroke:#000000;stroke-width:0.8;"/>
      </defs>
      <g>
       <use style="stroke:#000000;stroke-width:0.8;" x="73.832727" xlink:href="#m2ba8817930" y="307.584"/>
      </g>
     </g>
     <g id="text_1">
      <!-- −1.00 -->
      <defs>
       <path d="M 10.59375 35.5 
L 73.1875 35.5 
L 73.1875 27.203125 
L 10.59375 27.203125 
z
" id="DejaVuSans-2212"/>
       <path d="M 12.40625 8.296875 
L 28.515625 8.296875 
L 28.515625 63.921875 
L 10.984375 60.40625 
L 10.984375 69.390625 
L 28.421875 72.90625 
L 38.28125 72.90625 
L 38.28125 8.296875 
L 54.390625 8.296875 
L 54.390625 0 
L 12.40625 0 
z
" id="DejaVuSans-31"/>
       <path d="M 10.6875 12.40625 
L 21 12.40625 
L 21 0 
L 10.6875 0 
z
" id="DejaVuSans-2e"/>
       <path d="M 31.78125 66.40625 
Q 24.171875 66.40625 20.328125 58.90625 
Q 16.5 51.421875 16.5 36.375 
Q 16.5 21.390625 20.328125 13.890625 
Q 24.171875 6.390625 31.78125 6.390625 
Q 39.453125 6.390625 43.28125 13.890625 
Q 47.125 21.390625 47.125 36.375 
Q 47.125 51.421875 43.28125 58.90625 
Q 39.453125 66.40625 31.78125 66.40625 
z
M 31.78125 74.21875 
Q 44.046875 74.21875 50.515625 64.515625 
Q 56.984375 54.828125 56.984375 36.375 
Q 56.984375 17.96875 50.515625 8.265625 
Q 44.046875 -1.421875 31.78125 -1.421875 
Q 19.53125 -1.421875 13.0625 8.265625 
Q 6.59375 17.96875 6.59375 36.375 
Q 6.59375 54.828125 13.0625 64.515625 
Q 19.53125 74.21875 31.78125 74.21875 
z
" id="DejaVuSans-30"/>
      </defs>
      <g transform="translate(58.510071 322.182437)scale(0.1 -0.1)">
       <use xlink:href="#DejaVuSans-2212"/>
       <use x="83.789062" xlink:href="#DejaVuSans-31"/>
       <use x="147.412109" xlink:href="#DejaVuSans-2e"/>
       <use x="179.199219" xlink:href="#DejaVuSans-30"/>
       <use x="242.822266" xlink:href="#DejaVuSans-30"/>
      </g>
     </g>
    </g>
    <g id="xtick_2">
     <g id="line2d_2">
      <g>
       <use style="stroke:#000000;stroke-width:0.8;" x="114.414545" xlink:href="#m2ba8817930" y="307.584"/>
      </g>
     </g>
     <g id="text_2">
      <!-- −0.75 -->
      <defs>
       <path d="M 8.203125 72.90625 
L 55.078125 72.90625 
L 55.078125 68.703125 
L 28.609375 0 
L 18.3125 0 
L 43.21875 64.59375 
L 8.203125 64.59375 
z
" id="DejaVuSans-37"/>
       <path d="M 10.796875 72.90625 
L 49.515625 72.90625 
L 49.515625 64.59375 
L 19.828125 64.59375 
L 19.828125 46.734375 
Q 21.96875 47.46875 24.109375 47.828125 
Q 26.265625 48.1875 28.421875 48.1875 
Q 40.625 48.1875 47.75 41.5 
Q 54.890625 34.8125 54.890625 23.390625 
Q 54.890625 11.625 47.5625 5.09375 
Q 40.234375 -1.421875 26.90625 -1.421875 
Q 22.3125 -1.421875 17.546875 -0.640625 
Q 12.796875 0.140625 7.71875 1.703125 
L 7.71875 11.625 
Q 12.109375 9.234375 16.796875 8.0625 
Q 21.484375 6.890625 26.703125 6.890625 
Q 35.15625 6.890625 40.078125 11.328125 
Q 45.015625 15.765625 45.015625 23.390625 
Q 45.015625 31 40.078125 35.4375 
Q 35.15625 39.890625 26.703125 39.890625 
Q 22.75 39.890625 18.8125 39.015625 
Q 14.890625 38.140625 10.796875 36.28125 
z
" id="DejaVuSans-35"/>
      </defs>
      <g transform="translate(99.091889 322.182437)scale(0.1 -0.1)">
       <use xlink:href="#DejaVuSans-2212"/>
       <use x="83.789062" xlink:href="#DejaVuSans-30"/>
       <use x="147.412109" xlink:href="#DejaVuSans-2e"/>
       <use x="179.199219" xlink:href="#DejaVuSans-37"/>
       <use x="242.822266" xlink:href="#DejaVuSans-35"/>
      </g>
     </g>
    </g>
    <g id="xtick_3">
     <g id="line2d_3">
      <g>
       <use style="stroke:#000000;stroke-width:0.8;" x="154.996364" xlink:href="#m2ba8817930" y="307.584"/>
      </g>
     </g>
     <g id="text_3">
      <!-- −0.50 -->
      <g transform="translate(139.673707 322.182437)scale(0.1 -0.1)">
       <use xlink:href="#DejaVuSans-2212"/>
       <use x="83.789062" xlink:href="#DejaVuSans-30"/>
       <use x="147.412109" xlink:href="#DejaVuSans-2e"/>
       <use x="179.199219" xlink:href="#DejaVuSans-35"/>
       <use x="242.822266" xlink:href="#DejaVuSans-30"/>
      </g>
     </g>
    </g>
    <g id="xtick_4">
     <g id="line2d_4">
      <g>
       <use style="stroke:#000000;stroke-width:0.8;" x="195.578182" xlink:href="#m2ba8817930" y="307.584"/>
      </g>
     </g>
     <g id="text_4">
      <!-- −0.25 -->
      <defs>
       <path d="M 19.1875 8.296875 
L 53.609375 8.296875 
L 53.609375 0 
L 7.328125 0 
L 7.328125 8.296875 
Q 12.9375 14.109375 22.625 23.890625 
Q 32.328125 33.6875 34.8125 36.53125 
Q 39.546875 41.84375 41.421875 45.53125 
Q 43.3125 49.21875 43.3125 52.78125 
Q 43.3125 58.59375 39.234375 62.25 
Q 35.15625 65.921875 28.609375 65.921875 
Q 23.96875 65.921875 18.8125 64.3125 
Q 13.671875 62.703125 7.8125 59.421875 
L 7.8125 69.390625 
Q 13.765625 71.78125 18.9375 73 
Q 24.125 74.21875 28.421875 74.21875 
Q 39.75 74.21875 46.484375 68.546875 
Q 53.21875 62.890625 53.21875 53.421875 
Q 53.21875 48.921875 51.53125 44.890625 
Q 49.859375 40.875 45.40625 35.40625 
Q 44.1875 33.984375 37.640625 27.21875 
Q 31.109375 20.453125 19.1875 8.296875 
z
" id="DejaVuSans-32"/>
      </defs>
      <g transform="translate(180.255526 322.182437)scale(0.1 -0.1)">
       <use xlink:href="#DejaVuSans-2212"/>
       <use x="83.789062" xlink:href="#DejaVuSans-30"/>
       <use x="147.412109" xlink:href="#DejaVuSans-2e"/>
       <use x="179.199219" xlink:href="#DejaVuSans-32"/>
       <use x="242.822266" xlink:href="#DejaVuSans-35"/>
      </g>
     </g>
    </g>
    <g id="xtick_5">
     <g id="line2d_5">
      <g>
       <use style="stroke:#000000;stroke-width:0.8;" x="236.16" xlink:href="#m2ba8817930" y="307.584"/>
      </g>
     </g>
     <g id="text_5">
      <!-- 0.00 -->
      <g transform="translate(225.027187 322.182437)scale(0.1 -0.1)">
       <use xlink:href="#DejaVuSans-30"/>
       <use x="63.623047" xlink:href="#DejaVuSans-2e"/>
       <use x="95.410156" xlink:href="#DejaVuSans-30"/>
       <use x="159.033203" xlink:href="#DejaVuSans-30"/>
      </g>
     </g>
    </g>
    <g id="xtick_6">
     <g id="line2d_6">
      <g>
       <use style="stroke:#000000;stroke-width:0.8;" x="276.741818" xlink:href="#m2ba8817930" y="307.584"/>
      </g>
     </g>
     <g id="text_6">
      <!-- 0.25 -->
      <g transform="translate(265.609006 322.182437)scale(0.1 -0.1)">
       <use xlink:href="#DejaVuSans-30"/>
       <use x="63.623047" xlink:href="#DejaVuSans-2e"/>
       <use x="95.410156" xlink:href="#DejaVuSans-32"/>
       <use x="159.033203" xlink:href="#DejaVuSans-35"/>
      </g>
     </g>
    </g>
    <g id="xtick_7">
     <g id="line2d_7">
      <g>
       <use style="stroke:#000000;stroke-width:0.8;" x="317.323636" xlink:href="#m2ba8817930" y="307.584"/>
      </g>
     </g>
     <g id="text_7">
      <!-- 0.50 -->
      <g transform="translate(306.190824 322.182437)scale(0.1 -0.1)">
       <use xlink:href="#DejaVuSans-30"/>
       <use x="63.623047" xlink:href="#DejaVuSans-2e"/>
       <use x="95.410156" xlink:href="#DejaVuSans-35"/>
       <use x="159.033203" xlink:href="#DejaVuSans-30"/>
      </g>
     </g>
    </g>
    <g id="xtick_8">
     <g id="line2d_8">
      <g>
       <use style="stroke:#000000;stroke-width:0.8;" x="357.905455" xlink:href="#m2ba8817930" y="307.584"/>
      </g>
     </g>
     <g id="text_8">
      <!-- 0.75 -->
      <g transform="translate(346.772642 322.182437)scale(0.1 -0.1)">
       <use xlink:href="#DejaVuSans-30"/>
       <use x="63.623047" xlink:href="#DejaVuSans-2e"/>
       <use x="95.410156" xlink:href="#DejaVuSans-37"/>
       <use x="159.033203" xlink:href="#DejaVuSans-35"/>
      </g>
     </g>
    </g>
    <g id="xtick_9">
     <g id="line2d_9">
      <g>
       <use style="stroke:#000000;stroke-width:0.8;" x="398.487273" xlink:href="#m2ba8817930" y="307.584"/>
      </g>
     </g>
     <g id="text_9">
      <!-- 1.00 -->
      <g transform="translate(387.35446 322.182437)scale(0.1 -0.1)">
       <use xlink:href="#DejaVuSans-31"/>
       <use x="63.623047" xlink:href="#DejaVuSans-2e"/>
       <use x="95.410156" xlink:href="#DejaVuSans-30"/>
       <use x="159.033203" xlink:href="#DejaVuSans-30"/>
      </g>
     </g>
    </g>
   </g>
   <g id="matplotlib.axis_2">
    <g id="ytick_1">
     <g id="line2d_10">
      <defs>
       <path d="M 0 0 
L -3.5 0 
" id="m58d70b8f1b" style="stroke:#000000;stroke-width:0.8;"/>
      </defs>
      <g>
       <use style="stroke:#000000;stroke-width:0.8;" x="57.6" xlink:href="#m58d70b8f1b" y="294.381555"/>
      </g>
     </g>
     <g id="text_10">
      <!-- −1.5 -->
      <g transform="translate(26.317187 298.180774)scale(0.1 -0.1)">
       <use xlink:href="#DejaVuSans-2212"/>
       <use x="83.789062" xlink:href="#DejaVuSans-31"/>
       <use x="147.412109" xlink:href="#DejaVuSans-2e"/>
       <use x="179.199219" xlink:href="#DejaVuSans-35"/>
      </g>
     </g>
    </g>
    <g id="ytick_2">
     <g id="line2d_11">
      <g>
       <use style="stroke:#000000;stroke-width:0.8;" x="57.6" xlink:href="#m58d70b8f1b" y="258.745726"/>
      </g>
     </g>
     <g id="text_11">
      <!-- −1.0 -->
      <g transform="translate(26.317187 262.544945)scale(0.1 -0.1)">
       <use xlink:href="#DejaVuSans-2212"/>
       <use x="83.789062" xlink:href="#DejaVuSans-31"/>
       <use x="147.412109" xlink:href="#DejaVuSans-2e"/>
       <use x="179.199219" xlink:href="#DejaVuSans-30"/>
      </g>
     </g>
    </g>
    <g id="ytick_3">
     <g id="line2d_12">
      <g>
       <use style="stroke:#000000;stroke-width:0.8;" x="57.6" xlink:href="#m58d70b8f1b" y="223.109898"/>
      </g>
     </g>
     <g id="text_12">
      <!-- −0.5 -->
      <g transform="translate(26.317187 226.909117)scale(0.1 -0.1)">
       <use xlink:href="#DejaVuSans-2212"/>
       <use x="83.789062" xlink:href="#DejaVuSans-30"/>
       <use x="147.412109" xlink:href="#DejaVuSans-2e"/>
       <use x="179.199219" xlink:href="#DejaVuSans-35"/>
      </g>
     </g>
    </g>
    <g id="ytick_4">
     <g id="line2d_13">
      <g>
       <use style="stroke:#000000;stroke-width:0.8;" x="57.6" xlink:href="#m58d70b8f1b" y="187.474069"/>
      </g>
     </g>
     <g id="text_13">
      <!-- 0.0 -->
      <g transform="translate(34.696875 191.273288)scale(0.1 -0.1)">
       <use xlink:href="#DejaVuSans-30"/>
       <use x="63.623047" xlink:href="#DejaVuSans-2e"/>
       <use x="95.410156" xlink:href="#DejaVuSans-30"/>
      </g>
     </g>
    </g>
    <g id="ytick_5">
     <g id="line2d_14">
      <g>
       <use style="stroke:#000000;stroke-width:0.8;" x="57.6" xlink:href="#m58d70b8f1b" y="151.838241"/>
      </g>
     </g>
     <g id="text_14">
      <!-- 0.5 -->
      <g transform="translate(34.696875 155.637459)scale(0.1 -0.1)">
       <use xlink:href="#DejaVuSans-30"/>
       <use x="63.623047" xlink:href="#DejaVuSans-2e"/>
       <use x="95.410156" xlink:href="#DejaVuSans-35"/>
      </g>
     </g>
    </g>
    <g id="ytick_6">
     <g id="line2d_15">
      <g>
       <use style="stroke:#000000;stroke-width:0.8;" x="57.6" xlink:href="#m58d70b8f1b" y="116.202412"/>
      </g>
     </g>
     <g id="text_15">
      <!-- 1.0 -->
      <g transform="translate(34.696875 120.001631)scale(0.1 -0.1)">
       <use xlink:href="#DejaVuSans-31"/>
       <use x="63.623047" xlink:href="#DejaVuSans-2e"/>
       <use x="95.410156" xlink:href="#DejaVuSans-30"/>
      </g>
     </g>
    </g>
    <g id="ytick_7">
     <g id="line2d_16">
      <g>
       <use style="stroke:#000000;stroke-width:0.8;" x="57.6" xlink:href="#m58d70b8f1b" y="80.566583"/>
      </g>
     </g>
     <g id="text_16">
      <!-- 1.5 -->
      <g transform="translate(34.696875 84.365802)scale(0.1 -0.1)">
       <use xlink:href="#DejaVuSans-31"/>
       <use x="63.623047" xlink:href="#DejaVuSans-2e"/>
       <use x="95.410156" xlink:href="#DejaVuSans-35"/>
      </g>
     </g>
    </g>
    <g id="ytick_8">
     <g id="line2d_17">
      <g>
       <use style="stroke:#000000;stroke-width:0.8;" x="57.6" xlink:href="#m58d70b8f1b" y="44.930755"/>
      </g>
     </g>
     <g id="text_17">
      <!-- 2.0 -->
      <g transform="translate(34.696875 48.729973)scale(0.1 -0.1)">
       <use xlink:href="#DejaVuSans-32"/>
       <use x="63.623047" xlink:href="#DejaVuSans-2e"/>
       <use x="95.410156" xlink:href="#DejaVuSans-30"/>
      </g>
     </g>
    </g>
   </g>
   <g id="line2d_18">
    <defs>
     <path d="M 0 0.75 
C 0.198902 0.75 0.389685 0.670975 0.53033 0.53033 
C 0.670975 0.389685 0.75 0.198902 0.75 0 
C 0.75 -0.198902 0.670975 -0.389685 0.53033 -0.53033 
C 0.389685 -0.670975 0.198902 -0.75 0 -0.75 
C -0.198902 -0.75 -0.389685 -0.670975 -0.53033 -0.53033 
C -0.670975 -0.389685 -0.75 -0.198902 -0.75 0 
C -0.75 0.198902 -0.670975 0.389685 -0.53033 0.53033 
C -0.389685 0.670975 -0.198902 0.75 0 0.75 
z
" id="madbd745a6f" style="stroke:#1f77b4;"/>
    </defs>
    <g clip-path="url(#p3171a107eb)">
     <use style="fill:#1f77b4;stroke:#1f77b4;" x="73.832727" xlink:href="#madbd745a6f" y="244.87233"/>
     <use style="fill:#1f77b4;stroke:#1f77b4;" x="75.447924" xlink:href="#madbd745a6f" y="236.491437"/>
     <use style="fill:#1f77b4;stroke:#1f77b4;" x="77.063121" xlink:href="#madbd745a6f" y="229.166071"/>
     <use style="fill:#1f77b4;stroke:#1f77b4;" x="78.678318" xlink:href="#madbd745a6f" y="223.013945"/>
     <use style="fill:#1f77b4;stroke:#1f77b4;" x="80.293514" xlink:href="#madbd745a6f" y="218.125804"/>
     <use style="fill:#1f77b4;stroke:#1f77b4;" x="81.908711" xlink:href="#madbd745a6f" y="214.563832"/>
     <use style="fill:#1f77b4;stroke:#1f77b4;" x="83.523908" xlink:href="#madbd745a6f" y="212.36064"/>
     <use style="fill:#1f77b4;stroke:#1f77b4;" x="85.139104" xlink:href="#madbd745a6f" y="211.518847"/>
     <use style="fill:#1f77b4;stroke:#1f77b4;" x="86.754301" xlink:href="#madbd745a6f" y="212.011253"/>
     <use style="fill:#1f77b4;stroke:#1f77b4;" x="88.369498" xlink:href="#madbd745a6f" y="213.781625"/>
     <use style="fill:#1f77b4;stroke:#1f77b4;" x="89.984695" xlink:href="#madbd745a6f" y="216.746044"/>
     <use style="fill:#1f77b4;stroke:#1f77b4;" x="91.599891" xlink:href="#madbd745a6f" y="220.794807"/>
     <use style="fill:#1f77b4;stroke:#1f77b4;" x="93.215088" xlink:href="#madbd745a6f" y="225.794834"/>
     <use style="fill:#1f77b4;stroke:#1f77b4;" x="94.830285" xlink:href="#madbd745a6f" y="231.592534"/>
     <use style="fill:#1f77b4;stroke:#1f77b4;" x="96.445482" xlink:href="#madbd745a6f" y="238.017065"/>
     <use style="fill:#1f77b4;stroke:#1f77b4;" x="98.060678" xlink:href="#madbd745a6f" y="244.88393"/>
     <use style="fill:#1f77b4;stroke:#1f77b4;" x="99.675875" xlink:href="#madbd745a6f" y="251.998818"/>
     <use style="fill:#1f77b4;stroke:#1f77b4;" x="101.291072" xlink:href="#madbd745a6f" y="259.161642"/>
     <use style="fill:#1f77b4;stroke:#1f77b4;" x="102.906269" xlink:href="#madbd745a6f" y="266.170657"/>
     <use style="fill:#1f77b4;stroke:#1f77b4;" x="104.521465" xlink:href="#madbd745a6f" y="272.826602"/>
     <use style="fill:#1f77b4;stroke:#1f77b4;" x="106.136662" xlink:href="#madbd745a6f" y="278.936775"/>
     <use style="fill:#1f77b4;stroke:#1f77b4;" x="107.751859" xlink:href="#madbd745a6f" y="284.318951"/>
     <use style="fill:#1f77b4;stroke:#1f77b4;" x="109.367056" xlink:href="#madbd745a6f" y="288.805078"/>
     <use style="fill:#1f77b4;stroke:#1f77b4;" x="110.982252" xlink:href="#madbd745a6f" y="292.244678"/>
     <use style="fill:#1f77b4;stroke:#1f77b4;" x="112.597449" xlink:href="#madbd745a6f" y="294.507874"/>
     <use style="fill:#1f77b4;stroke:#1f77b4;" x="114.212646" xlink:href="#madbd745a6f" y="295.488"/>
     <use style="fill:#1f77b4;stroke:#1f77b4;" x="115.827843" xlink:href="#madbd745a6f" y="295.103734"/>
     <use style="fill:#1f77b4;stroke:#1f77b4;" x="117.443039" xlink:href="#madbd745a6f" y="293.30072"/>
     <use style="fill:#1f77b4;stroke:#1f77b4;" x="119.058236" xlink:href="#madbd745a6f" y="290.052649"/>
     <use style="fill:#1f77b4;stroke:#1f77b4;" x="120.673433" xlink:href="#madbd745a6f" y="285.361778"/>
     <use style="fill:#1f77b4;stroke:#1f77b4;" x="122.28863" xlink:href="#madbd745a6f" y="279.258884"/>
     <use style="fill:#1f77b4;stroke:#1f77b4;" x="123.903826" xlink:href="#madbd745a6f" y="271.802651"/>
     <use style="fill:#1f77b4;stroke:#1f77b4;" x="125.519023" xlink:href="#madbd745a6f" y="263.078521"/>
     <use style="fill:#1f77b4;stroke:#1f77b4;" x="127.13422" xlink:href="#madbd745a6f" y="253.197016"/>
     <use style="fill:#1f77b4;stroke:#1f77b4;" x="128.749417" xlink:href="#madbd745a6f" y="242.291583"/>
     <use style="fill:#1f77b4;stroke:#1f77b4;" x="130.364613" xlink:href="#madbd745a6f" y="230.516"/>
     <use style="fill:#1f77b4;stroke:#1f77b4;" x="131.97981" xlink:href="#madbd745a6f" y="218.041405"/>
     <use style="fill:#1f77b4;stroke:#1f77b4;" x="133.595007" xlink:href="#madbd745a6f" y="205.053"/>
     <use style="fill:#1f77b4;stroke:#1f77b4;" x="135.210204" xlink:href="#madbd745a6f" y="191.746508"/>
     <use style="fill:#1f77b4;stroke:#1f77b4;" x="136.8254" xlink:href="#madbd745a6f" y="178.324449"/>
     <use style="fill:#1f77b4;stroke:#1f77b4;" x="138.440597" xlink:href="#madbd745a6f" y="164.99231"/>
     <use style="fill:#1f77b4;stroke:#1f77b4;" x="140.055794" xlink:href="#madbd745a6f" y="151.954695"/>
     <use style="fill:#1f77b4;stroke:#1f77b4;" x="141.670991" xlink:href="#madbd745a6f" y="139.41151"/>
     <use style="fill:#1f77b4;stroke:#1f77b4;" x="143.286187" xlink:href="#madbd745a6f" y="127.554285"/>
     <use style="fill:#1f77b4;stroke:#1f77b4;" x="144.901384" xlink:href="#madbd745a6f" y="116.562685"/>
     <use style="fill:#1f77b4;stroke:#1f77b4;" x="146.516581" xlink:href="#madbd745a6f" y="106.60128"/>
     <use style="fill:#1f77b4;stroke:#1f77b4;" x="148.131777" xlink:href="#madbd745a6f" y="97.816642"/>
     <use style="fill:#1f77b4;stroke:#1f77b4;" x="149.746974" xlink:href="#madbd745a6f" y="90.33482"/>
     <use style="fill:#1f77b4;stroke:#1f77b4;" x="151.362171" xlink:href="#madbd745a6f" y="84.259228"/>
     <use style="fill:#1f77b4;stroke:#1f77b4;" x="152.977368" xlink:href="#madbd745a6f" y="79.669001"/>
     <use style="fill:#1f77b4;stroke:#1f77b4;" x="154.592564" xlink:href="#madbd745a6f" y="76.617834"/>
     <use style="fill:#1f77b4;stroke:#1f77b4;" x="156.207761" xlink:href="#madbd745a6f" y="75.133319"/>
     <use style="fill:#1f77b4;stroke:#1f77b4;" x="157.822958" xlink:href="#madbd745a6f" y="75.216796"/>
     <use style="fill:#1f77b4;stroke:#1f77b4;" x="159.438155" xlink:href="#madbd745a6f" y="76.843708"/>
     <use style="fill:#1f77b4;stroke:#1f77b4;" x="161.053351" xlink:href="#madbd745a6f" y="79.964449"/>
     <use style="fill:#1f77b4;stroke:#1f77b4;" x="162.668548" xlink:href="#madbd745a6f" y="84.505676"/>
     <use style="fill:#1f77b4;stroke:#1f77b4;" x="164.283745" xlink:href="#madbd745a6f" y="90.372063"/>
     <use style="fill:#1f77b4;stroke:#1f77b4;" x="165.898942" xlink:href="#madbd745a6f" y="97.448441"/>
     <use style="fill:#1f77b4;stroke:#1f77b4;" x="167.514138" xlink:href="#madbd745a6f" y="105.602295"/>
     <use style="fill:#1f77b4;stroke:#1f77b4;" x="169.129335" xlink:href="#madbd745a6f" y="114.686539"/>
     <use style="fill:#1f77b4;stroke:#1f77b4;" x="170.744532" xlink:href="#madbd745a6f" y="124.542539"/>
     <use style="fill:#1f77b4;stroke:#1f77b4;" x="172.359729" xlink:href="#madbd745a6f" y="135.003287"/>
     <use style="fill:#1f77b4;stroke:#1f77b4;" x="173.974925" xlink:href="#madbd745a6f" y="145.896689"/>
     <use style="fill:#1f77b4;stroke:#1f77b4;" x="175.590122" xlink:href="#madbd745a6f" y="157.048884"/>
     <use style="fill:#1f77b4;stroke:#1f77b4;" x="177.205319" xlink:href="#madbd745a6f" y="168.287527"/>
     <use style="fill:#1f77b4;stroke:#1f77b4;" x="178.820516" xlink:href="#madbd745a6f" y="179.444982"/>
     <use style="fill:#1f77b4;stroke:#1f77b4;" x="180.435712" xlink:href="#madbd745a6f" y="190.361346"/>
     <use style="fill:#1f77b4;stroke:#1f77b4;" x="182.050909" xlink:href="#madbd745a6f" y="200.887266"/>
     <use style="fill:#1f77b4;stroke:#1f77b4;" x="183.666106" xlink:href="#madbd745a6f" y="210.886474"/>
     <use style="fill:#1f77b4;stroke:#1f77b4;" x="185.281303" xlink:href="#madbd745a6f" y="220.238017"/>
     <use style="fill:#1f77b4;stroke:#1f77b4;" x="186.896499" xlink:href="#madbd745a6f" y="228.83812"/>
     <use style="fill:#1f77b4;stroke:#1f77b4;" x="188.511696" xlink:href="#madbd745a6f" y="236.60167"/>
     <use style="fill:#1f77b4;stroke:#1f77b4;" x="190.126893" xlink:href="#madbd745a6f" y="243.46329"/>
     <use style="fill:#1f77b4;stroke:#1f77b4;" x="191.74209" xlink:href="#madbd745a6f" y="249.377984"/>
     <use style="fill:#1f77b4;stroke:#1f77b4;" x="193.357286" xlink:href="#madbd745a6f" y="254.32136"/>
     <use style="fill:#1f77b4;stroke:#1f77b4;" x="194.972483" xlink:href="#madbd745a6f" y="258.289421"/>
     <use style="fill:#1f77b4;stroke:#1f77b4;" x="196.58768" xlink:href="#madbd745a6f" y="261.297954"/>
     <use style="fill:#1f77b4;stroke:#1f77b4;" x="198.202877" xlink:href="#madbd745a6f" y="263.381519"/>
     <use style="fill:#1f77b4;stroke:#1f77b4;" x="199.818073" xlink:href="#madbd745a6f" y="264.59208"/>
     <use style="fill:#1f77b4;stroke:#1f77b4;" x="201.43327" xlink:href="#madbd745a6f" y="264.997307"/>
     <use style="fill:#1f77b4;stroke:#1f77b4;" x="203.048467" xlink:href="#madbd745a6f" y="264.678595"/>
     <use style="fill:#1f77b4;stroke:#1f77b4;" x="204.663664" xlink:href="#madbd745a6f" y="263.728838"/>
     <use style="fill:#1f77b4;stroke:#1f77b4;" x="206.27886" xlink:href="#madbd745a6f" y="262.250028"/>
     <use style="fill:#1f77b4;stroke:#1f77b4;" x="207.894057" xlink:href="#madbd745a6f" y="260.350705"/>
     <use style="fill:#1f77b4;stroke:#1f77b4;" x="209.509254" xlink:href="#madbd745a6f" y="258.143341"/>
     <use style="fill:#1f77b4;stroke:#1f77b4;" x="211.12445" xlink:href="#madbd745a6f" y="255.741695"/>
     <use style="fill:#1f77b4;stroke:#1f77b4;" x="212.739647" xlink:href="#madbd745a6f" y="253.258204"/>
     <use style="fill:#1f77b4;stroke:#1f77b4;" x="214.354844" xlink:href="#madbd745a6f" y="250.801465"/>
     <use style="fill:#1f77b4;stroke:#1f77b4;" x="215.970041" xlink:href="#madbd745a6f" y="248.473849"/>
     <use style="fill:#1f77b4;stroke:#1f77b4;" x="217.585237" xlink:href="#madbd745a6f" y="246.369305"/>
     <use style="fill:#1f77b4;stroke:#1f77b4;" x="219.200434" xlink:href="#madbd745a6f" y="244.571397"/>
     <use style="fill:#1f77b4;stroke:#1f77b4;" x="220.815631" xlink:href="#madbd745a6f" y="243.151595"/>
     <use style="fill:#1f77b4;stroke:#1f77b4;" x="222.430828" xlink:href="#madbd745a6f" y="242.16787"/>
     <use style="fill:#1f77b4;stroke:#1f77b4;" x="224.046024" xlink:href="#madbd745a6f" y="241.663612"/>
     <use style="fill:#1f77b4;stroke:#1f77b4;" x="225.661221" xlink:href="#madbd745a6f" y="241.666872"/>
     <use style="fill:#1f77b4;stroke:#1f77b4;" x="227.276418" xlink:href="#madbd745a6f" y="242.189962"/>
     <use style="fill:#1f77b4;stroke:#1f77b4;" x="228.891615" xlink:href="#madbd745a6f" y="243.229398"/>
     <use style="fill:#1f77b4;stroke:#1f77b4;" x="230.506811" xlink:href="#madbd745a6f" y="244.76618"/>
     <use style="fill:#1f77b4;stroke:#1f77b4;" x="232.122008" xlink:href="#madbd745a6f" y="246.766414"/>
     <use style="fill:#1f77b4;stroke:#1f77b4;" x="233.737205" xlink:href="#madbd745a6f" y="249.182229"/>
     <use style="fill:#1f77b4;stroke:#1f77b4;" x="235.352402" xlink:href="#madbd745a6f" y="251.952995"/>
     <use style="fill:#1f77b4;stroke:#1f77b4;" x="236.967598" xlink:href="#madbd745a6f" y="255.006784"/>
     <use style="fill:#1f77b4;stroke:#1f77b4;" x="238.582795" xlink:href="#madbd745a6f" y="258.262056"/>
     <use style="fill:#1f77b4;stroke:#1f77b4;" x="240.197992" xlink:href="#madbd745a6f" y="261.629525"/>
     <use style="fill:#1f77b4;stroke:#1f77b4;" x="241.813189" xlink:href="#madbd745a6f" y="265.014158"/>
     <use style="fill:#1f77b4;stroke:#1f77b4;" x="243.428385" xlink:href="#madbd745a6f" y="268.317276"/>
     <use style="fill:#1f77b4;stroke:#1f77b4;" x="245.043582" xlink:href="#madbd745a6f" y="271.438696"/>
     <use style="fill:#1f77b4;stroke:#1f77b4;" x="246.658779" xlink:href="#madbd745a6f" y="274.27888"/>
     <use style="fill:#1f77b4;stroke:#1f77b4;" x="248.273976" xlink:href="#madbd745a6f" y="276.741042"/>
     <use style="fill:#1f77b4;stroke:#1f77b4;" x="249.889172" xlink:href="#madbd745a6f" y="278.733173"/>
     <use style="fill:#1f77b4;stroke:#1f77b4;" x="251.504369" xlink:href="#madbd745a6f" y="280.169942"/>
     <use style="fill:#1f77b4;stroke:#1f77b4;" x="253.119566" xlink:href="#madbd745a6f" y="280.974434"/>
     <use style="fill:#1f77b4;stroke:#1f77b4;" x="254.734763" xlink:href="#madbd745a6f" y="281.079701"/>
     <use style="fill:#1f77b4;stroke:#1f77b4;" x="256.349959" xlink:href="#madbd745a6f" y="280.430095"/>
     <use style="fill:#1f77b4;stroke:#1f77b4;" x="257.965156" xlink:href="#madbd745a6f" y="278.98235"/>
     <use style="fill:#1f77b4;stroke:#1f77b4;" x="259.580353" xlink:href="#madbd745a6f" y="276.706417"/>
     <use style="fill:#1f77b4;stroke:#1f77b4;" x="261.19555" xlink:href="#madbd745a6f" y="273.586024"/>
     <use style="fill:#1f77b4;stroke:#1f77b4;" x="262.810746" xlink:href="#madbd745a6f" y="269.618961"/>
     <use style="fill:#1f77b4;stroke:#1f77b4;" x="264.425943" xlink:href="#madbd745a6f" y="264.817092"/>
     <use style="fill:#1f77b4;stroke:#1f77b4;" x="266.04114" xlink:href="#madbd745a6f" y="259.206102"/>
     <use style="fill:#1f77b4;stroke:#1f77b4;" x="267.656336" xlink:href="#madbd745a6f" y="252.824984"/>
     <use style="fill:#1f77b4;stroke:#1f77b4;" x="269.271533" xlink:href="#madbd745a6f" y="245.725286"/>
     <use style="fill:#1f77b4;stroke:#1f77b4;" x="270.88673" xlink:href="#madbd745a6f" y="237.970146"/>
     <use style="fill:#1f77b4;stroke:#1f77b4;" x="272.501927" xlink:href="#madbd745a6f" y="229.63312"/>
     <use style="fill:#1f77b4;stroke:#1f77b4;" x="274.117123" xlink:href="#madbd745a6f" y="220.796859"/>
     <use style="fill:#1f77b4;stroke:#1f77b4;" x="275.73232" xlink:href="#madbd745a6f" y="211.551637"/>
     <use style="fill:#1f77b4;stroke:#1f77b4;" x="277.347517" xlink:href="#madbd745a6f" y="201.993781"/>
     <use style="fill:#1f77b4;stroke:#1f77b4;" x="278.962714" xlink:href="#madbd745a6f" y="192.224033"/>
     <use style="fill:#1f77b4;stroke:#1f77b4;" x="280.57791" xlink:href="#madbd745a6f" y="182.34587"/>
     <use style="fill:#1f77b4;stroke:#1f77b4;" x="282.193107" xlink:href="#madbd745a6f" y="172.463825"/>
     <use style="fill:#1f77b4;stroke:#1f77b4;" x="283.808304" xlink:href="#madbd745a6f" y="162.681826"/>
     <use style="fill:#1f77b4;stroke:#1f77b4;" x="285.423501" xlink:href="#madbd745a6f" y="153.10161"/>
     <use style="fill:#1f77b4;stroke:#1f77b4;" x="287.038697" xlink:href="#madbd745a6f" y="143.821206"/>
     <use style="fill:#1f77b4;stroke:#1f77b4;" x="288.653894" xlink:href="#madbd745a6f" y="134.933538"/>
     <use style="fill:#1f77b4;stroke:#1f77b4;" x="290.269091" xlink:href="#madbd745a6f" y="126.525158"/>
     <use style="fill:#1f77b4;stroke:#1f77b4;" x="291.884288" xlink:href="#madbd745a6f" y="118.67513"/>
     <use style="fill:#1f77b4;stroke:#1f77b4;" x="293.499484" xlink:href="#madbd745a6f" y="111.454074"/>
     <use style="fill:#1f77b4;stroke:#1f77b4;" x="295.114681" xlink:href="#madbd745a6f" y="104.923389"/>
     <use style="fill:#1f77b4;stroke:#1f77b4;" x="296.729878" xlink:href="#madbd745a6f" y="99.134655"/>
     <use style="fill:#1f77b4;stroke:#1f77b4;" x="298.345075" xlink:href="#madbd745a6f" y="94.12921"/>
     <use style="fill:#1f77b4;stroke:#1f77b4;" x="299.960271" xlink:href="#madbd745a6f" y="89.93792"/>
     <use style="fill:#1f77b4;stroke:#1f77b4;" x="301.575468" xlink:href="#madbd745a6f" y="86.58111"/>
     <use style="fill:#1f77b4;stroke:#1f77b4;" x="303.190665" xlink:href="#madbd745a6f" y="84.068665"/>
     <use style="fill:#1f77b4;stroke:#1f77b4;" x="304.805862" xlink:href="#madbd745a6f" y="82.400288"/>
     <use style="fill:#1f77b4;stroke:#1f77b4;" x="306.421058" xlink:href="#madbd745a6f" y="81.565892"/>
     <use style="fill:#1f77b4;stroke:#1f77b4;" x="308.036255" xlink:href="#madbd745a6f" y="81.546116"/>
     <use style="fill:#1f77b4;stroke:#1f77b4;" x="309.651452" xlink:href="#madbd745a6f" y="82.312947"/>
     <use style="fill:#1f77b4;stroke:#1f77b4;" x="311.266649" xlink:href="#madbd745a6f" y="83.830428"/>
     <use style="fill:#1f77b4;stroke:#1f77b4;" x="312.881845" xlink:href="#madbd745a6f" y="86.055427"/>
     <use style="fill:#1f77b4;stroke:#1f77b4;" x="314.497042" xlink:href="#madbd745a6f" y="88.938464"/>
     <use style="fill:#1f77b4;stroke:#1f77b4;" x="316.112239" xlink:href="#madbd745a6f" y="92.42456"/>
     <use style="fill:#1f77b4;stroke:#1f77b4;" x="317.727436" xlink:href="#madbd745a6f" y="96.454094"/>
     <use style="fill:#1f77b4;stroke:#1f77b4;" x="319.342632" xlink:href="#madbd745a6f" y="100.963664"/>
     <use style="fill:#1f77b4;stroke:#1f77b4;" x="320.957829" xlink:href="#madbd745a6f" y="105.886922"/>
     <use style="fill:#1f77b4;stroke:#1f77b4;" x="322.573026" xlink:href="#madbd745a6f" y="111.155377"/>
     <use style="fill:#1f77b4;stroke:#1f77b4;" x="324.188223" xlink:href="#madbd745a6f" y="116.699161"/>
     <use style="fill:#1f77b4;stroke:#1f77b4;" x="325.803419" xlink:href="#madbd745a6f" y="122.447738"/>
     <use style="fill:#1f77b4;stroke:#1f77b4;" x="327.418616" xlink:href="#madbd745a6f" y="128.330564"/>
     <use style="fill:#1f77b4;stroke:#1f77b4;" x="329.033813" xlink:href="#madbd745a6f" y="134.277683"/>
     <use style="fill:#1f77b4;stroke:#1f77b4;" x="330.649009" xlink:href="#madbd745a6f" y="140.22027"/>
     <use style="fill:#1f77b4;stroke:#1f77b4;" x="332.264206" xlink:href="#madbd745a6f" y="146.091106"/>
     <use style="fill:#1f77b4;stroke:#1f77b4;" x="333.879403" xlink:href="#madbd745a6f" y="151.825014"/>
     <use style="fill:#1f77b4;stroke:#1f77b4;" x="335.4946" xlink:href="#madbd745a6f" y="157.359231"/>
     <use style="fill:#1f77b4;stroke:#1f77b4;" x="337.109796" xlink:href="#madbd745a6f" y="162.633742"/>
     <use style="fill:#1f77b4;stroke:#1f77b4;" x="338.724993" xlink:href="#madbd745a6f" y="167.591585"/>
     <use style="fill:#1f77b4;stroke:#1f77b4;" x="340.34019" xlink:href="#madbd745a6f" y="172.179114"/>
     <use style="fill:#1f77b4;stroke:#1f77b4;" x="341.955387" xlink:href="#madbd745a6f" y="176.346257"/>
     <use style="fill:#1f77b4;stroke:#1f77b4;" x="343.570583" xlink:href="#madbd745a6f" y="180.046751"/>
     <use style="fill:#1f77b4;stroke:#1f77b4;" x="345.18578" xlink:href="#madbd745a6f" y="183.238376"/>
     <use style="fill:#1f77b4;stroke:#1f77b4;" x="346.800977" xlink:href="#madbd745a6f" y="185.88319"/>
     <use style="fill:#1f77b4;stroke:#1f77b4;" x="348.416174" xlink:href="#madbd745a6f" y="187.947772"/>
     <use style="fill:#1f77b4;stroke:#1f77b4;" x="350.03137" xlink:href="#madbd745a6f" y="189.40347"/>
     <use style="fill:#1f77b4;stroke:#1f77b4;" x="351.646567" xlink:href="#madbd745a6f" y="190.226665"/>
     <use style="fill:#1f77b4;stroke:#1f77b4;" x="353.261764" xlink:href="#madbd745a6f" y="190.399045"/>
     <use style="fill:#1f77b4;stroke:#1f77b4;" x="354.876961" xlink:href="#madbd745a6f" y="189.907888"/>
     <use style="fill:#1f77b4;stroke:#1f77b4;" x="356.492157" xlink:href="#madbd745a6f" y="188.746346"/>
     <use style="fill:#1f77b4;stroke:#1f77b4;" x="358.107354" xlink:href="#madbd745a6f" y="186.913734"/>
     <use style="fill:#1f77b4;stroke:#1f77b4;" x="359.722551" xlink:href="#madbd745a6f" y="184.415809"/>
     <use style="fill:#1f77b4;stroke:#1f77b4;" x="361.337748" xlink:href="#madbd745a6f" y="181.265023"/>
     <use style="fill:#1f77b4;stroke:#1f77b4;" x="362.952944" xlink:href="#madbd745a6f" y="177.480754"/>
     <use style="fill:#1f77b4;stroke:#1f77b4;" x="364.568141" xlink:href="#madbd745a6f" y="173.089492"/>
     <use style="fill:#1f77b4;stroke:#1f77b4;" x="366.183338" xlink:href="#madbd745a6f" y="168.124974"/>
     <use style="fill:#1f77b4;stroke:#1f77b4;" x="367.798535" xlink:href="#madbd745a6f" y="162.628244"/>
     <use style="fill:#1f77b4;stroke:#1f77b4;" x="369.413731" xlink:href="#madbd745a6f" y="156.647637"/>
     <use style="fill:#1f77b4;stroke:#1f77b4;" x="371.028928" xlink:href="#madbd745a6f" y="150.238676"/>
     <use style="fill:#1f77b4;stroke:#1f77b4;" x="372.644125" xlink:href="#madbd745a6f" y="143.463857"/>
     <use style="fill:#1f77b4;stroke:#1f77b4;" x="374.259322" xlink:href="#madbd745a6f" y="136.392324"/>
     <use style="fill:#1f77b4;stroke:#1f77b4;" x="375.874518" xlink:href="#madbd745a6f" y="129.099422"/>
     <use style="fill:#1f77b4;stroke:#1f77b4;" x="377.489715" xlink:href="#madbd745a6f" y="121.666128"/>
     <use style="fill:#1f77b4;stroke:#1f77b4;" x="379.104912" xlink:href="#madbd745a6f" y="114.17835"/>
     <use style="fill:#1f77b4;stroke:#1f77b4;" x="380.720109" xlink:href="#madbd745a6f" y="106.726093"/>
     <use style="fill:#1f77b4;stroke:#1f77b4;" x="382.335305" xlink:href="#madbd745a6f" y="99.40251"/>
     <use style="fill:#1f77b4;stroke:#1f77b4;" x="383.950502" xlink:href="#madbd745a6f" y="92.302824"/>
     <use style="fill:#1f77b4;stroke:#1f77b4;" x="385.565699" xlink:href="#madbd745a6f" y="85.523151"/>
     <use style="fill:#1f77b4;stroke:#1f77b4;" x="387.180896" xlink:href="#madbd745a6f" y="79.15922"/>
     <use style="fill:#1f77b4;stroke:#1f77b4;" x="388.796092" xlink:href="#madbd745a6f" y="73.30502"/>
     <use style="fill:#1f77b4;stroke:#1f77b4;" x="390.411289" xlink:href="#madbd745a6f" y="68.051391"/>
     <use style="fill:#1f77b4;stroke:#1f77b4;" x="392.026486" xlink:href="#madbd745a6f" y="63.484569"/>
     <use style="fill:#1f77b4;stroke:#1f77b4;" x="393.641682" xlink:href="#madbd745a6f" y="59.684731"/>
     <use style="fill:#1f77b4;stroke:#1f77b4;" x="395.256879" xlink:href="#madbd745a6f" y="56.724549"/>
     <use style="fill:#1f77b4;stroke:#1f77b4;" x="396.872076" xlink:href="#madbd745a6f" y="54.667793"/>
     <use style="fill:#1f77b4;stroke:#1f77b4;" x="398.487273" xlink:href="#madbd745a6f" y="53.568"/>
    </g>
   </g>
   <g id="line2d_19">
    <path clip-path="url(#p3171a107eb)" d="M 73.832727 187.474146 
L 104.521465 187.481206 
L 120.673433 187.473292 
L 180.435712 187.480487 
L 215.970041 187.473924 
L 296.729878 187.479081 
L 329.033813 187.474657 
L 385.565699 187.472951 
L 398.487273 187.474069 
L 398.487273 187.474069 
" style="fill:none;stroke:#ff7f0e;stroke-linecap:square;"/>
   </g>
   <g id="patch_3">
    <path d="M 57.6 307.584 
L 57.6 41.472 
" style="fill:none;stroke:#000000;stroke-linecap:square;stroke-linejoin:miter;stroke-width:0.8;"/>
   </g>
   <g id="patch_4">
    <path d="M 414.72 307.584 
L 414.72 41.472 
" style="fill:none;stroke:#000000;stroke-linecap:square;stroke-linejoin:miter;stroke-width:0.8;"/>
   </g>
   <g id="patch_5">
    <path d="M 57.6 307.584 
L 414.72 307.584 
" style="fill:none;stroke:#000000;stroke-linecap:square;stroke-linejoin:miter;stroke-width:0.8;"/>
   </g>
   <g id="patch_6">
    <path d="M 57.6 41.472 
L 414.72 41.472 
" style="fill:none;stroke:#000000;stroke-linecap:square;stroke-linejoin:miter;stroke-width:0.8;"/>
   </g>
   <g id="text_18">
    <!-- function 3 -->
    <defs>
     <path d="M 37.109375 75.984375 
L 37.109375 68.5 
L 28.515625 68.5 
Q 23.6875 68.5 21.796875 66.546875 
Q 19.921875 64.59375 19.921875 59.515625 
L 19.921875 54.6875 
L 34.71875 54.6875 
L 34.71875 47.703125 
L 19.921875 47.703125 
L 19.921875 0 
L 10.890625 0 
L 10.890625 47.703125 
L 2.296875 47.703125 
L 2.296875 54.6875 
L 10.890625 54.6875 
L 10.890625 58.5 
Q 10.890625 67.625 15.140625 71.796875 
Q 19.390625 75.984375 28.609375 75.984375 
z
" id="DejaVuSans-66"/>
     <path d="M 8.5 21.578125 
L 8.5 54.6875 
L 17.484375 54.6875 
L 17.484375 21.921875 
Q 17.484375 14.15625 20.5 10.265625 
Q 23.53125 6.390625 29.59375 6.390625 
Q 36.859375 6.390625 41.078125 11.03125 
Q 45.3125 15.671875 45.3125 23.6875 
L 45.3125 54.6875 
L 54.296875 54.6875 
L 54.296875 0 
L 45.3125 0 
L 45.3125 8.40625 
Q 42.046875 3.421875 37.71875 1 
Q 33.40625 -1.421875 27.6875 -1.421875 
Q 18.265625 -1.421875 13.375 4.4375 
Q 8.5 10.296875 8.5 21.578125 
z
M 31.109375 56 
z
" id="DejaVuSans-75"/>
     <path d="M 54.890625 33.015625 
L 54.890625 0 
L 45.90625 0 
L 45.90625 32.71875 
Q 45.90625 40.484375 42.875 44.328125 
Q 39.84375 48.1875 33.796875 48.1875 
Q 26.515625 48.1875 22.3125 43.546875 
Q 18.109375 38.921875 18.109375 30.90625 
L 18.109375 0 
L 9.078125 0 
L 9.078125 54.6875 
L 18.109375 54.6875 
L 18.109375 46.1875 
Q 21.34375 51.125 25.703125 53.5625 
Q 30.078125 56 35.796875 56 
Q 45.21875 56 50.046875 50.171875 
Q 54.890625 44.34375 54.890625 33.015625 
z
" id="DejaVuSans-6e"/>
     <path d="M 48.78125 52.59375 
L 48.78125 44.1875 
Q 44.96875 46.296875 41.140625 47.34375 
Q 37.3125 48.390625 33.40625 48.390625 
Q 24.65625 48.390625 19.8125 42.84375 
Q 14.984375 37.3125 14.984375 27.296875 
Q 14.984375 17.28125 19.8125 11.734375 
Q 24.65625 6.203125 33.40625 6.203125 
Q 37.3125 6.203125 41.140625 7.25 
Q 44.96875 8.296875 48.78125 10.40625 
L 48.78125 2.09375 
Q 45.015625 0.34375 40.984375 -0.53125 
Q 36.96875 -1.421875 32.421875 -1.421875 
Q 20.0625 -1.421875 12.78125 6.34375 
Q 5.515625 14.109375 5.515625 27.296875 
Q 5.515625 40.671875 12.859375 48.328125 
Q 20.21875 56 33.015625 56 
Q 37.15625 56 41.109375 55.140625 
Q 45.0625 54.296875 48.78125 52.59375 
z
" id="DejaVuSans-63"/>
     <path d="M 18.3125 70.21875 
L 18.3125 54.6875 
L 36.8125 54.6875 
L 36.8125 47.703125 
L 18.3125 47.703125 
L 18.3125 18.015625 
Q 18.3125 11.328125 20.140625 9.421875 
Q 21.96875 7.515625 27.59375 7.515625 
L 36.8125 7.515625 
L 36.8125 0 
L 27.59375 0 
Q 17.1875 0 13.234375 3.875 
Q 9.28125 7.765625 9.28125 18.015625 
L 9.28125 47.703125 
L 2.6875 47.703125 
L 2.6875 54.6875 
L 9.28125 54.6875 
L 9.28125 70.21875 
z
" id="DejaVuSans-74"/>
     <path d="M 9.421875 54.6875 
L 18.40625 54.6875 
L 18.40625 0 
L 9.421875 0 
z
M 9.421875 75.984375 
L 18.40625 75.984375 
L 18.40625 64.59375 
L 9.421875 64.59375 
z
" id="DejaVuSans-69"/>
     <path d="M 30.609375 48.390625 
Q 23.390625 48.390625 19.1875 42.75 
Q 14.984375 37.109375 14.984375 27.296875 
Q 14.984375 17.484375 19.15625 11.84375 
Q 23.34375 6.203125 30.609375 6.203125 
Q 37.796875 6.203125 41.984375 11.859375 
Q 46.1875 17.53125 46.1875 27.296875 
Q 46.1875 37.015625 41.984375 42.703125 
Q 37.796875 48.390625 30.609375 48.390625 
z
M 30.609375 56 
Q 42.328125 56 49.015625 48.375 
Q 55.71875 40.765625 55.71875 27.296875 
Q 55.71875 13.875 49.015625 6.21875 
Q 42.328125 -1.421875 30.609375 -1.421875 
Q 18.84375 -1.421875 12.171875 6.21875 
Q 5.515625 13.875 5.515625 27.296875 
Q 5.515625 40.765625 12.171875 48.375 
Q 18.84375 56 30.609375 56 
z
" id="DejaVuSans-6f"/>
     <path id="DejaVuSans-20"/>
     <path d="M 40.578125 39.3125 
Q 47.65625 37.796875 51.625 33 
Q 55.609375 28.21875 55.609375 21.1875 
Q 55.609375 10.40625 48.1875 4.484375 
Q 40.765625 -1.421875 27.09375 -1.421875 
Q 22.515625 -1.421875 17.65625 -0.515625 
Q 12.796875 0.390625 7.625 2.203125 
L 7.625 11.71875 
Q 11.71875 9.328125 16.59375 8.109375 
Q 21.484375 6.890625 26.8125 6.890625 
Q 36.078125 6.890625 40.9375 10.546875 
Q 45.796875 14.203125 45.796875 21.1875 
Q 45.796875 27.640625 41.28125 31.265625 
Q 36.765625 34.90625 28.71875 34.90625 
L 20.21875 34.90625 
L 20.21875 43.015625 
L 29.109375 43.015625 
Q 36.375 43.015625 40.234375 45.921875 
Q 44.09375 48.828125 44.09375 54.296875 
Q 44.09375 59.90625 40.109375 62.90625 
Q 36.140625 65.921875 28.71875 65.921875 
Q 24.65625 65.921875 20.015625 65.03125 
Q 15.375 64.15625 9.8125 62.3125 
L 9.8125 71.09375 
Q 15.4375 72.65625 20.34375 73.4375 
Q 25.25 74.21875 29.59375 74.21875 
Q 40.828125 74.21875 47.359375 69.109375 
Q 53.90625 64.015625 53.90625 55.328125 
Q 53.90625 49.265625 50.4375 45.09375 
Q 46.96875 40.921875 40.578125 39.3125 
z
" id="DejaVuSans-33"/>
    </defs>
    <g transform="translate(205.926562 35.472)scale(0.12 -0.12)">
     <use xlink:href="#DejaVuSans-66"/>
     <use x="35.205078" xlink:href="#DejaVuSans-75"/>
     <use x="98.583984" xlink:href="#DejaVuSans-6e"/>
     <use x="161.962891" xlink:href="#DejaVuSans-63"/>
     <use x="216.943359" xlink:href="#DejaVuSans-74"/>
     <use x="256.152344" xlink:href="#DejaVuSans-69"/>
     <use x="283.935547" xlink:href="#DejaVuSans-6f"/>
     <use x="345.117188" xlink:href="#DejaVuSans-6e"/>
     <use x="408.496094" xlink:href="#DejaVuSans-20"/>
     <use x="440.283203" xlink:href="#DejaVuSans-33"/>
    </g>
   </g>
   <g id="legend_1">
    <g id="patch_7">
     <path d="M 312.63875 302.584 
L 407.72 302.584 
Q 409.72 302.584 409.72 300.584 
L 409.72 272.22775 
Q 409.72 270.22775 407.72 270.22775 
L 312.63875 270.22775 
Q 310.63875 270.22775 310.63875 272.22775 
L 310.63875 300.584 
Q 310.63875 302.584 312.63875 302.584 
z
" style="fill:#ffffff;opacity:0.8;stroke:#cccccc;stroke-linejoin:miter;"/>
    </g>
    <g id="line2d_20"/>
    <g id="line2d_21">
     <g>
      <use style="fill:#1f77b4;stroke:#1f77b4;" x="324.63875" xlink:href="#madbd745a6f" y="278.326187"/>
     </g>
    </g>
    <g id="text_19">
     <!-- original data -->
     <defs>
      <path d="M 41.109375 46.296875 
Q 39.59375 47.171875 37.8125 47.578125 
Q 36.03125 48 33.890625 48 
Q 26.265625 48 22.1875 43.046875 
Q 18.109375 38.09375 18.109375 28.8125 
L 18.109375 0 
L 9.078125 0 
L 9.078125 54.6875 
L 18.109375 54.6875 
L 18.109375 46.1875 
Q 20.953125 51.171875 25.484375 53.578125 
Q 30.03125 56 36.53125 56 
Q 37.453125 56 38.578125 55.875 
Q 39.703125 55.765625 41.0625 55.515625 
z
" id="DejaVuSans-72"/>
      <path d="M 45.40625 27.984375 
Q 45.40625 37.75 41.375 43.109375 
Q 37.359375 48.484375 30.078125 48.484375 
Q 22.859375 48.484375 18.828125 43.109375 
Q 14.796875 37.75 14.796875 27.984375 
Q 14.796875 18.265625 18.828125 12.890625 
Q 22.859375 7.515625 30.078125 7.515625 
Q 37.359375 7.515625 41.375 12.890625 
Q 45.40625 18.265625 45.40625 27.984375 
z
M 54.390625 6.78125 
Q 54.390625 -7.171875 48.1875 -13.984375 
Q 42 -20.796875 29.203125 -20.796875 
Q 24.46875 -20.796875 20.265625 -20.09375 
Q 16.0625 -19.390625 12.109375 -17.921875 
L 12.109375 -9.1875 
Q 16.0625 -11.328125 19.921875 -12.34375 
Q 23.78125 -13.375 27.78125 -13.375 
Q 36.625 -13.375 41.015625 -8.765625 
Q 45.40625 -4.15625 45.40625 5.171875 
L 45.40625 9.625 
Q 42.625 4.78125 38.28125 2.390625 
Q 33.9375 0 27.875 0 
Q 17.828125 0 11.671875 7.65625 
Q 5.515625 15.328125 5.515625 27.984375 
Q 5.515625 40.671875 11.671875 48.328125 
Q 17.828125 56 27.875 56 
Q 33.9375 56 38.28125 53.609375 
Q 42.625 51.21875 45.40625 46.390625 
L 45.40625 54.6875 
L 54.390625 54.6875 
z
" id="DejaVuSans-67"/>
      <path d="M 34.28125 27.484375 
Q 23.390625 27.484375 19.1875 25 
Q 14.984375 22.515625 14.984375 16.5 
Q 14.984375 11.71875 18.140625 8.90625 
Q 21.296875 6.109375 26.703125 6.109375 
Q 34.1875 6.109375 38.703125 11.40625 
Q 43.21875 16.703125 43.21875 25.484375 
L 43.21875 27.484375 
z
M 52.203125 31.203125 
L 52.203125 0 
L 43.21875 0 
L 43.21875 8.296875 
Q 40.140625 3.328125 35.546875 0.953125 
Q 30.953125 -1.421875 24.3125 -1.421875 
Q 15.921875 -1.421875 10.953125 3.296875 
Q 6 8.015625 6 15.921875 
Q 6 25.140625 12.171875 29.828125 
Q 18.359375 34.515625 30.609375 34.515625 
L 43.21875 34.515625 
L 43.21875 35.40625 
Q 43.21875 41.609375 39.140625 45 
Q 35.0625 48.390625 27.6875 48.390625 
Q 23 48.390625 18.546875 47.265625 
Q 14.109375 46.140625 10.015625 43.890625 
L 10.015625 52.203125 
Q 14.9375 54.109375 19.578125 55.046875 
Q 24.21875 56 28.609375 56 
Q 40.484375 56 46.34375 49.84375 
Q 52.203125 43.703125 52.203125 31.203125 
z
" id="DejaVuSans-61"/>
      <path d="M 9.421875 75.984375 
L 18.40625 75.984375 
L 18.40625 0 
L 9.421875 0 
z
" id="DejaVuSans-6c"/>
      <path d="M 45.40625 46.390625 
L 45.40625 75.984375 
L 54.390625 75.984375 
L 54.390625 0 
L 45.40625 0 
L 45.40625 8.203125 
Q 42.578125 3.328125 38.25 0.953125 
Q 33.9375 -1.421875 27.875 -1.421875 
Q 17.96875 -1.421875 11.734375 6.484375 
Q 5.515625 14.40625 5.515625 27.296875 
Q 5.515625 40.1875 11.734375 48.09375 
Q 17.96875 56 27.875 56 
Q 33.9375 56 38.25 53.625 
Q 42.578125 51.265625 45.40625 46.390625 
z
M 14.796875 27.296875 
Q 14.796875 17.390625 18.875 11.75 
Q 22.953125 6.109375 30.078125 6.109375 
Q 37.203125 6.109375 41.296875 11.75 
Q 45.40625 17.390625 45.40625 27.296875 
Q 45.40625 37.203125 41.296875 42.84375 
Q 37.203125 48.484375 30.078125 48.484375 
Q 22.953125 48.484375 18.875 42.84375 
Q 14.796875 37.203125 14.796875 27.296875 
z
" id="DejaVuSans-64"/>
     </defs>
     <g transform="translate(342.63875 281.826187)scale(0.1 -0.1)">
      <use xlink:href="#DejaVuSans-6f"/>
      <use x="61.181641" xlink:href="#DejaVuSans-72"/>
      <use x="102.294922" xlink:href="#DejaVuSans-69"/>
      <use x="130.078125" xlink:href="#DejaVuSans-67"/>
      <use x="193.554688" xlink:href="#DejaVuSans-69"/>
      <use x="221.337891" xlink:href="#DejaVuSans-6e"/>
      <use x="284.716797" xlink:href="#DejaVuSans-61"/>
      <use x="345.996094" xlink:href="#DejaVuSans-6c"/>
      <use x="373.779297" xlink:href="#DejaVuSans-20"/>
      <use x="405.566406" xlink:href="#DejaVuSans-64"/>
      <use x="469.042969" xlink:href="#DejaVuSans-61"/>
      <use x="530.322266" xlink:href="#DejaVuSans-74"/>
      <use x="569.53125" xlink:href="#DejaVuSans-61"/>
     </g>
    </g>
    <g id="line2d_22">
     <path d="M 314.63875 293.004312 
L 334.63875 293.004312 
" style="fill:none;stroke:#ff7f0e;stroke-linecap:square;"/>
    </g>
    <g id="line2d_23"/>
    <g id="text_20">
     <!-- CNN output -->
     <defs>
      <path d="M 64.40625 67.28125 
L 64.40625 56.890625 
Q 59.421875 61.53125 53.78125 63.8125 
Q 48.140625 66.109375 41.796875 66.109375 
Q 29.296875 66.109375 22.65625 58.46875 
Q 16.015625 50.828125 16.015625 36.375 
Q 16.015625 21.96875 22.65625 14.328125 
Q 29.296875 6.6875 41.796875 6.6875 
Q 48.140625 6.6875 53.78125 8.984375 
Q 59.421875 11.28125 64.40625 15.921875 
L 64.40625 5.609375 
Q 59.234375 2.09375 53.4375 0.328125 
Q 47.65625 -1.421875 41.21875 -1.421875 
Q 24.65625 -1.421875 15.125 8.703125 
Q 5.609375 18.84375 5.609375 36.375 
Q 5.609375 53.953125 15.125 64.078125 
Q 24.65625 74.21875 41.21875 74.21875 
Q 47.75 74.21875 53.53125 72.484375 
Q 59.328125 70.75 64.40625 67.28125 
z
" id="DejaVuSans-43"/>
      <path d="M 9.8125 72.90625 
L 23.09375 72.90625 
L 55.421875 11.921875 
L 55.421875 72.90625 
L 64.984375 72.90625 
L 64.984375 0 
L 51.703125 0 
L 19.390625 60.984375 
L 19.390625 0 
L 9.8125 0 
z
" id="DejaVuSans-4e"/>
      <path d="M 18.109375 8.203125 
L 18.109375 -20.796875 
L 9.078125 -20.796875 
L 9.078125 54.6875 
L 18.109375 54.6875 
L 18.109375 46.390625 
Q 20.953125 51.265625 25.265625 53.625 
Q 29.59375 56 35.59375 56 
Q 45.5625 56 51.78125 48.09375 
Q 58.015625 40.1875 58.015625 27.296875 
Q 58.015625 14.40625 51.78125 6.484375 
Q 45.5625 -1.421875 35.59375 -1.421875 
Q 29.59375 -1.421875 25.265625 0.953125 
Q 20.953125 3.328125 18.109375 8.203125 
z
M 48.6875 27.296875 
Q 48.6875 37.203125 44.609375 42.84375 
Q 40.53125 48.484375 33.40625 48.484375 
Q 26.265625 48.484375 22.1875 42.84375 
Q 18.109375 37.203125 18.109375 27.296875 
Q 18.109375 17.390625 22.1875 11.75 
Q 26.265625 6.109375 33.40625 6.109375 
Q 40.53125 6.109375 44.609375 11.75 
Q 48.6875 17.390625 48.6875 27.296875 
z
" id="DejaVuSans-70"/>
     </defs>
     <g transform="translate(342.63875 296.504312)scale(0.1 -0.1)">
      <use xlink:href="#DejaVuSans-43"/>
      <use x="69.824219" xlink:href="#DejaVuSans-4e"/>
      <use x="144.628906" xlink:href="#DejaVuSans-4e"/>
      <use x="219.433594" xlink:href="#DejaVuSans-20"/>
      <use x="251.220703" xlink:href="#DejaVuSans-6f"/>
      <use x="312.402344" xlink:href="#DejaVuSans-75"/>
      <use x="375.78125" xlink:href="#DejaVuSans-74"/>
      <use x="414.990234" xlink:href="#DejaVuSans-70"/>
      <use x="478.466797" xlink:href="#DejaVuSans-75"/>
      <use x="541.845703" xlink:href="#DejaVuSans-74"/>
     </g>
    </g>
   </g>
  </g>
 </g>
 <defs>
  <clipPath id="p3171a107eb">
   <rect height="266.112" width="357.12" x="57.6" y="41.472"/>
  </clipPath>
 </defs>
</svg>
