<?xml version="1.0" encoding="utf-8" standalone="no"?>
<!DOCTYPE svg PUBLIC "-//W3C//DTD SVG 1.1//EN"
  "http://www.w3.org/Graphics/SVG/1.1/DTD/svg11.dtd">
<!-- Created with matplotlib (http://matplotlib.org/) -->
<svg height="345.6pt" version="1.1" viewBox="0 0 460.8 345.6" width="460.8pt" xmlns="http://www.w3.org/2000/svg" xmlns:xlink="http://www.w3.org/1999/xlink">
 <defs>
  <style type="text/css">
*{stroke-linecap:butt;stroke-linejoin:round;}
  </style>
 </defs>
 <g id="figure_1">
  <g id="patch_1">
   <path d="M 0 345.6 
L 460.8 345.6 
L 460.8 0 
L 0 0 
z
" style="fill:#ffffff;"/>
  </g>
  <g id="axes_1">
   <g id="patch_2">
    <path d="M 57.6 307.584 
L 414.72 307.584 
L 414.72 41.472 
L 57.6 41.472 
z
" style="fill:#ffffff;"/>
   </g>
   <g id="matplotlib.axis_1">
    <g id="xtick_1">
     <g id="line2d_1">
      <defs>
       <path d="M 0 0 
L 0 3.5 
" id="m3b5da77241" style="stroke:#000000;stroke-width:0.8;"/>
      </defs>
      <g>
       <use style="stroke:#000000;stroke-width:0.8;" x="73.832727" xlink:href="#m3b5da77241" y="307.584"/>
      </g>
     </g>
     <g id="text_1">
      <!-- −1.00 -->
      <defs>
       <path d="M 10.59375 35.5 
L 73.1875 35.5 
L 73.1875 27.203125 
L 10.59375 27.203125 
z
" id="DejaVuSans-2212"/>
       <path d="M 12.40625 8.296875 
L 28.515625 8.296875 
L 28.515625 63.921875 
L 10.984375 60.40625 
L 10.984375 69.390625 
L 28.421875 72.90625 
L 38.28125 72.90625 
L 38.28125 8.296875 
L 54.390625 8.296875 
L 54.390625 0 
L 12.40625 0 
z
" id="DejaVuSans-31"/>
       <path d="M 10.6875 12.40625 
L 21 12.40625 
L 21 0 
L 10.6875 0 
z
" id="DejaVuSans-2e"/>
       <path d="M 31.78125 66.40625 
Q 24.171875 66.40625 20.328125 58.90625 
Q 16.5 51.421875 16.5 36.375 
Q 16.5 21.390625 20.328125 13.890625 
Q 24.171875 6.390625 31.78125 6.390625 
Q 39.453125 6.390625 43.28125 13.890625 
Q 47.125 21.390625 47.125 36.375 
Q 47.125 51.421875 43.28125 58.90625 
Q 39.453125 66.40625 31.78125 66.40625 
z
M 31.78125 74.21875 
Q 44.046875 74.21875 50.515625 64.515625 
Q 56.984375 54.828125 56.984375 36.375 
Q 56.984375 17.96875 50.515625 8.265625 
Q 44.046875 -1.421875 31.78125 -1.421875 
Q 19.53125 -1.421875 13.0625 8.265625 
Q 6.59375 17.96875 6.59375 36.375 
Q 6.59375 54.828125 13.0625 64.515625 
Q 19.53125 74.21875 31.78125 74.21875 
z
" id="DejaVuSans-30"/>
      </defs>
      <g transform="translate(58.510071 322.182437)scale(0.1 -0.1)">
       <use xlink:href="#DejaVuSans-2212"/>
       <use x="83.789062" xlink:href="#DejaVuSans-31"/>
       <use x="147.412109" xlink:href="#DejaVuSans-2e"/>
       <use x="179.199219" xlink:href="#DejaVuSans-30"/>
       <use x="242.822266" xlink:href="#DejaVuSans-30"/>
      </g>
     </g>
    </g>
    <g id="xtick_2">
     <g id="line2d_2">
      <g>
       <use style="stroke:#000000;stroke-width:0.8;" x="114.414545" xlink:href="#m3b5da77241" y="307.584"/>
      </g>
     </g>
     <g id="text_2">
      <!-- −0.75 -->
      <defs>
       <path d="M 8.203125 72.90625 
L 55.078125 72.90625 
L 55.078125 68.703125 
L 28.609375 0 
L 18.3125 0 
L 43.21875 64.59375 
L 8.203125 64.59375 
z
" id="DejaVuSans-37"/>
       <path d="M 10.796875 72.90625 
L 49.515625 72.90625 
L 49.515625 64.59375 
L 19.828125 64.59375 
L 19.828125 46.734375 
Q 21.96875 47.46875 24.109375 47.828125 
Q 26.265625 48.1875 28.421875 48.1875 
Q 40.625 48.1875 47.75 41.5 
Q 54.890625 34.8125 54.890625 23.390625 
Q 54.890625 11.625 47.5625 5.09375 
Q 40.234375 -1.421875 26.90625 -1.421875 
Q 22.3125 -1.421875 17.546875 -0.640625 
Q 12.796875 0.140625 7.71875 1.703125 
L 7.71875 11.625 
Q 12.109375 9.234375 16.796875 8.0625 
Q 21.484375 6.890625 26.703125 6.890625 
Q 35.15625 6.890625 40.078125 11.328125 
Q 45.015625 15.765625 45.015625 23.390625 
Q 45.015625 31 40.078125 35.4375 
Q 35.15625 39.890625 26.703125 39.890625 
Q 22.75 39.890625 18.8125 39.015625 
Q 14.890625 38.140625 10.796875 36.28125 
z
" id="DejaVuSans-35"/>
      </defs>
      <g transform="translate(99.091889 322.182437)scale(0.1 -0.1)">
       <use xlink:href="#DejaVuSans-2212"/>
       <use x="83.789062" xlink:href="#DejaVuSans-30"/>
       <use x="147.412109" xlink:href="#DejaVuSans-2e"/>
       <use x="179.199219" xlink:href="#DejaVuSans-37"/>
       <use x="242.822266" xlink:href="#DejaVuSans-35"/>
      </g>
     </g>
    </g>
    <g id="xtick_3">
     <g id="line2d_3">
      <g>
       <use style="stroke:#000000;stroke-width:0.8;" x="154.996364" xlink:href="#m3b5da77241" y="307.584"/>
      </g>
     </g>
     <g id="text_3">
      <!-- −0.50 -->
      <g transform="translate(139.673707 322.182437)scale(0.1 -0.1)">
       <use xlink:href="#DejaVuSans-2212"/>
       <use x="83.789062" xlink:href="#DejaVuSans-30"/>
       <use x="147.412109" xlink:href="#DejaVuSans-2e"/>
       <use x="179.199219" xlink:href="#DejaVuSans-35"/>
       <use x="242.822266" xlink:href="#DejaVuSans-30"/>
      </g>
     </g>
    </g>
    <g id="xtick_4">
     <g id="line2d_4">
      <g>
       <use style="stroke:#000000;stroke-width:0.8;" x="195.578182" xlink:href="#m3b5da77241" y="307.584"/>
      </g>
     </g>
     <g id="text_4">
      <!-- −0.25 -->
      <defs>
       <path d="M 19.1875 8.296875 
L 53.609375 8.296875 
L 53.609375 0 
L 7.328125 0 
L 7.328125 8.296875 
Q 12.9375 14.109375 22.625 23.890625 
Q 32.328125 33.6875 34.8125 36.53125 
Q 39.546875 41.84375 41.421875 45.53125 
Q 43.3125 49.21875 43.3125 52.78125 
Q 43.3125 58.59375 39.234375 62.25 
Q 35.15625 65.921875 28.609375 65.921875 
Q 23.96875 65.921875 18.8125 64.3125 
Q 13.671875 62.703125 7.8125 59.421875 
L 7.8125 69.390625 
Q 13.765625 71.78125 18.9375 73 
Q 24.125 74.21875 28.421875 74.21875 
Q 39.75 74.21875 46.484375 68.546875 
Q 53.21875 62.890625 53.21875 53.421875 
Q 53.21875 48.921875 51.53125 44.890625 
Q 49.859375 40.875 45.40625 35.40625 
Q 44.1875 33.984375 37.640625 27.21875 
Q 31.109375 20.453125 19.1875 8.296875 
z
" id="DejaVuSans-32"/>
      </defs>
      <g transform="translate(180.255526 322.182437)scale(0.1 -0.1)">
       <use xlink:href="#DejaVuSans-2212"/>
       <use x="83.789062" xlink:href="#DejaVuSans-30"/>
       <use x="147.412109" xlink:href="#DejaVuSans-2e"/>
       <use x="179.199219" xlink:href="#DejaVuSans-32"/>
       <use x="242.822266" xlink:href="#DejaVuSans-35"/>
      </g>
     </g>
    </g>
    <g id="xtick_5">
     <g id="line2d_5">
      <g>
       <use style="stroke:#000000;stroke-width:0.8;" x="236.16" xlink:href="#m3b5da77241" y="307.584"/>
      </g>
     </g>
     <g id="text_5">
      <!-- 0.00 -->
      <g transform="translate(225.027187 322.182437)scale(0.1 -0.1)">
       <use xlink:href="#DejaVuSans-30"/>
       <use x="63.623047" xlink:href="#DejaVuSans-2e"/>
       <use x="95.410156" xlink:href="#DejaVuSans-30"/>
       <use x="159.033203" xlink:href="#DejaVuSans-30"/>
      </g>
     </g>
    </g>
    <g id="xtick_6">
     <g id="line2d_6">
      <g>
       <use style="stroke:#000000;stroke-width:0.8;" x="276.741818" xlink:href="#m3b5da77241" y="307.584"/>
      </g>
     </g>
     <g id="text_6">
      <!-- 0.25 -->
      <g transform="translate(265.609006 322.182437)scale(0.1 -0.1)">
       <use xlink:href="#DejaVuSans-30"/>
       <use x="63.623047" xlink:href="#DejaVuSans-2e"/>
       <use x="95.410156" xlink:href="#DejaVuSans-32"/>
       <use x="159.033203" xlink:href="#DejaVuSans-35"/>
      </g>
     </g>
    </g>
    <g id="xtick_7">
     <g id="line2d_7">
      <g>
       <use style="stroke:#000000;stroke-width:0.8;" x="317.323636" xlink:href="#m3b5da77241" y="307.584"/>
      </g>
     </g>
     <g id="text_7">
      <!-- 0.50 -->
      <g transform="translate(306.190824 322.182437)scale(0.1 -0.1)">
       <use xlink:href="#DejaVuSans-30"/>
       <use x="63.623047" xlink:href="#DejaVuSans-2e"/>
       <use x="95.410156" xlink:href="#DejaVuSans-35"/>
       <use x="159.033203" xlink:href="#DejaVuSans-30"/>
      </g>
     </g>
    </g>
    <g id="xtick_8">
     <g id="line2d_8">
      <g>
       <use style="stroke:#000000;stroke-width:0.8;" x="357.905455" xlink:href="#m3b5da77241" y="307.584"/>
      </g>
     </g>
     <g id="text_8">
      <!-- 0.75 -->
      <g transform="translate(346.772642 322.182437)scale(0.1 -0.1)">
       <use xlink:href="#DejaVuSans-30"/>
       <use x="63.623047" xlink:href="#DejaVuSans-2e"/>
       <use x="95.410156" xlink:href="#DejaVuSans-37"/>
       <use x="159.033203" xlink:href="#DejaVuSans-35"/>
      </g>
     </g>
    </g>
    <g id="xtick_9">
     <g id="line2d_9">
      <g>
       <use style="stroke:#000000;stroke-width:0.8;" x="398.487273" xlink:href="#m3b5da77241" y="307.584"/>
      </g>
     </g>
     <g id="text_9">
      <!-- 1.00 -->
      <g transform="translate(387.35446 322.182437)scale(0.1 -0.1)">
       <use xlink:href="#DejaVuSans-31"/>
       <use x="63.623047" xlink:href="#DejaVuSans-2e"/>
       <use x="95.410156" xlink:href="#DejaVuSans-30"/>
       <use x="159.033203" xlink:href="#DejaVuSans-30"/>
      </g>
     </g>
    </g>
   </g>
   <g id="matplotlib.axis_2">
    <g id="ytick_1">
     <g id="line2d_10">
      <defs>
       <path d="M 0 0 
L -3.5 0 
" id="m7e2d484976" style="stroke:#000000;stroke-width:0.8;"/>
      </defs>
      <g>
       <use style="stroke:#000000;stroke-width:0.8;" x="57.6" xlink:href="#m7e2d484976" y="281.12551"/>
      </g>
     </g>
     <g id="text_10">
      <!-- −8 -->
      <defs>
       <path d="M 31.78125 34.625 
Q 24.75 34.625 20.71875 30.859375 
Q 16.703125 27.09375 16.703125 20.515625 
Q 16.703125 13.921875 20.71875 10.15625 
Q 24.75 6.390625 31.78125 6.390625 
Q 38.8125 6.390625 42.859375 10.171875 
Q 46.921875 13.96875 46.921875 20.515625 
Q 46.921875 27.09375 42.890625 30.859375 
Q 38.875 34.625 31.78125 34.625 
z
M 21.921875 38.8125 
Q 15.578125 40.375 12.03125 44.71875 
Q 8.5 49.078125 8.5 55.328125 
Q 8.5 64.0625 14.71875 69.140625 
Q 20.953125 74.21875 31.78125 74.21875 
Q 42.671875 74.21875 48.875 69.140625 
Q 55.078125 64.0625 55.078125 55.328125 
Q 55.078125 49.078125 51.53125 44.71875 
Q 48 40.375 41.703125 38.8125 
Q 48.828125 37.15625 52.796875 32.3125 
Q 56.78125 27.484375 56.78125 20.515625 
Q 56.78125 9.90625 50.3125 4.234375 
Q 43.84375 -1.421875 31.78125 -1.421875 
Q 19.734375 -1.421875 13.25 4.234375 
Q 6.78125 9.90625 6.78125 20.515625 
Q 6.78125 27.484375 10.78125 32.3125 
Q 14.796875 37.15625 21.921875 38.8125 
z
M 18.3125 54.390625 
Q 18.3125 48.734375 21.84375 45.5625 
Q 25.390625 42.390625 31.78125 42.390625 
Q 38.140625 42.390625 41.71875 45.5625 
Q 45.3125 48.734375 45.3125 54.390625 
Q 45.3125 60.0625 41.71875 63.234375 
Q 38.140625 66.40625 31.78125 66.40625 
Q 25.390625 66.40625 21.84375 63.234375 
Q 18.3125 60.0625 18.3125 54.390625 
z
" id="DejaVuSans-38"/>
      </defs>
      <g transform="translate(35.857813 284.924729)scale(0.1 -0.1)">
       <use xlink:href="#DejaVuSans-2212"/>
       <use x="83.789062" xlink:href="#DejaVuSans-38"/>
      </g>
     </g>
    </g>
    <g id="ytick_2">
     <g id="line2d_11">
      <g>
       <use style="stroke:#000000;stroke-width:0.8;" x="57.6" xlink:href="#m7e2d484976" y="249.405117"/>
      </g>
     </g>
     <g id="text_11">
      <!-- −6 -->
      <defs>
       <path d="M 33.015625 40.375 
Q 26.375 40.375 22.484375 35.828125 
Q 18.609375 31.296875 18.609375 23.390625 
Q 18.609375 15.53125 22.484375 10.953125 
Q 26.375 6.390625 33.015625 6.390625 
Q 39.65625 6.390625 43.53125 10.953125 
Q 47.40625 15.53125 47.40625 23.390625 
Q 47.40625 31.296875 43.53125 35.828125 
Q 39.65625 40.375 33.015625 40.375 
z
M 52.59375 71.296875 
L 52.59375 62.3125 
Q 48.875 64.0625 45.09375 64.984375 
Q 41.3125 65.921875 37.59375 65.921875 
Q 27.828125 65.921875 22.671875 59.328125 
Q 17.53125 52.734375 16.796875 39.40625 
Q 19.671875 43.65625 24.015625 45.921875 
Q 28.375 48.1875 33.59375 48.1875 
Q 44.578125 48.1875 50.953125 41.515625 
Q 57.328125 34.859375 57.328125 23.390625 
Q 57.328125 12.15625 50.6875 5.359375 
Q 44.046875 -1.421875 33.015625 -1.421875 
Q 20.359375 -1.421875 13.671875 8.265625 
Q 6.984375 17.96875 6.984375 36.375 
Q 6.984375 53.65625 15.1875 63.9375 
Q 23.390625 74.21875 37.203125 74.21875 
Q 40.921875 74.21875 44.703125 73.484375 
Q 48.484375 72.75 52.59375 71.296875 
z
" id="DejaVuSans-36"/>
      </defs>
      <g transform="translate(35.857813 253.204336)scale(0.1 -0.1)">
       <use xlink:href="#DejaVuSans-2212"/>
       <use x="83.789062" xlink:href="#DejaVuSans-36"/>
      </g>
     </g>
    </g>
    <g id="ytick_3">
     <g id="line2d_12">
      <g>
       <use style="stroke:#000000;stroke-width:0.8;" x="57.6" xlink:href="#m7e2d484976" y="217.684724"/>
      </g>
     </g>
     <g id="text_12">
      <!-- −4 -->
      <defs>
       <path d="M 37.796875 64.3125 
L 12.890625 25.390625 
L 37.796875 25.390625 
z
M 35.203125 72.90625 
L 47.609375 72.90625 
L 47.609375 25.390625 
L 58.015625 25.390625 
L 58.015625 17.1875 
L 47.609375 17.1875 
L 47.609375 0 
L 37.796875 0 
L 37.796875 17.1875 
L 4.890625 17.1875 
L 4.890625 26.703125 
z
" id="DejaVuSans-34"/>
      </defs>
      <g transform="translate(35.857813 221.483943)scale(0.1 -0.1)">
       <use xlink:href="#DejaVuSans-2212"/>
       <use x="83.789062" xlink:href="#DejaVuSans-34"/>
      </g>
     </g>
    </g>
    <g id="ytick_4">
     <g id="line2d_13">
      <g>
       <use style="stroke:#000000;stroke-width:0.8;" x="57.6" xlink:href="#m7e2d484976" y="185.964331"/>
      </g>
     </g>
     <g id="text_13">
      <!-- −2 -->
      <g transform="translate(35.857813 189.76355)scale(0.1 -0.1)">
       <use xlink:href="#DejaVuSans-2212"/>
       <use x="83.789062" xlink:href="#DejaVuSans-32"/>
      </g>
     </g>
    </g>
    <g id="ytick_5">
     <g id="line2d_14">
      <g>
       <use style="stroke:#000000;stroke-width:0.8;" x="57.6" xlink:href="#m7e2d484976" y="154.243938"/>
      </g>
     </g>
     <g id="text_14">
      <!-- 0 -->
      <g transform="translate(44.2375 158.043157)scale(0.1 -0.1)">
       <use xlink:href="#DejaVuSans-30"/>
      </g>
     </g>
    </g>
    <g id="ytick_6">
     <g id="line2d_15">
      <g>
       <use style="stroke:#000000;stroke-width:0.8;" x="57.6" xlink:href="#m7e2d484976" y="122.523545"/>
      </g>
     </g>
     <g id="text_15">
      <!-- 2 -->
      <g transform="translate(44.2375 126.322764)scale(0.1 -0.1)">
       <use xlink:href="#DejaVuSans-32"/>
      </g>
     </g>
    </g>
    <g id="ytick_7">
     <g id="line2d_16">
      <g>
       <use style="stroke:#000000;stroke-width:0.8;" x="57.6" xlink:href="#m7e2d484976" y="90.803152"/>
      </g>
     </g>
     <g id="text_16">
      <!-- 4 -->
      <g transform="translate(44.2375 94.602371)scale(0.1 -0.1)">
       <use xlink:href="#DejaVuSans-34"/>
      </g>
     </g>
    </g>
    <g id="ytick_8">
     <g id="line2d_17">
      <g>
       <use style="stroke:#000000;stroke-width:0.8;" x="57.6" xlink:href="#m7e2d484976" y="59.08276"/>
      </g>
     </g>
     <g id="text_17">
      <!-- 6 -->
      <g transform="translate(44.2375 62.881978)scale(0.1 -0.1)">
       <use xlink:href="#DejaVuSans-36"/>
      </g>
     </g>
    </g>
   </g>
   <g id="line2d_18">
    <defs>
     <path d="M 0 0.75 
C 0.198902 0.75 0.389685 0.670975 0.53033 0.53033 
C 0.670975 0.389685 0.75 0.198902 0.75 0 
C 0.75 -0.198902 0.670975 -0.389685 0.53033 -0.53033 
C 0.389685 -0.670975 0.198902 -0.75 0 -0.75 
C -0.198902 -0.75 -0.389685 -0.670975 -0.53033 -0.53033 
C -0.670975 -0.389685 -0.75 -0.198902 -0.75 0 
C -0.75 0.198902 -0.670975 0.389685 -0.53033 0.53033 
C -0.389685 0.670975 -0.198902 0.75 0 0.75 
z
" id="m575ce05241" style="stroke:#1f77b4;"/>
    </defs>
    <g clip-path="url(#p83a91359ee)">
     <use style="fill:#1f77b4;stroke:#1f77b4;" x="73.832727" xlink:href="#m575ce05241" y="75.510836"/>
     <use style="fill:#1f77b4;stroke:#1f77b4;" x="77.047129" xlink:href="#m575ce05241" y="77.345369"/>
     <use style="fill:#1f77b4;stroke:#1f77b4;" x="80.26153" xlink:href="#m575ce05241" y="79.806556"/>
     <use style="fill:#1f77b4;stroke:#1f77b4;" x="83.475932" xlink:href="#m575ce05241" y="82.745359"/>
     <use style="fill:#1f77b4;stroke:#1f77b4;" x="86.690333" xlink:href="#m575ce05241" y="86.037204"/>
     <use style="fill:#1f77b4;stroke:#1f77b4;" x="89.904734" xlink:href="#m575ce05241" y="89.593469"/>
     <use style="fill:#1f77b4;stroke:#1f77b4;" x="93.119136" xlink:href="#m575ce05241" y="93.370259"/>
     <use style="fill:#1f77b4;stroke:#1f77b4;" x="96.333537" xlink:href="#m575ce05241" y="97.373658"/>
     <use style="fill:#1f77b4;stroke:#1f77b4;" x="99.547939" xlink:href="#m575ce05241" y="101.660903"/>
     <use style="fill:#1f77b4;stroke:#1f77b4;" x="102.76234" xlink:href="#m575ce05241" y="106.337174"/>
     <use style="fill:#1f77b4;stroke:#1f77b4;" x="105.976742" xlink:href="#m575ce05241" y="111.548036"/>
     <use style="fill:#1f77b4;stroke:#1f77b4;" x="109.191143" xlink:href="#m575ce05241" y="117.467847"/>
     <use style="fill:#1f77b4;stroke:#1f77b4;" x="112.405545" xlink:href="#m575ce05241" y="124.284797"/>
     <use style="fill:#1f77b4;stroke:#1f77b4;" x="115.619946" xlink:href="#m575ce05241" y="132.183516"/>
     <use style="fill:#1f77b4;stroke:#1f77b4;" x="118.834347" xlink:href="#m575ce05241" y="141.326396"/>
     <use style="fill:#1f77b4;stroke:#1f77b4;" x="122.048749" xlink:href="#m575ce05241" y="151.834928"/>
     <use style="fill:#1f77b4;stroke:#1f77b4;" x="125.26315" xlink:href="#m575ce05241" y="163.772432"/>
     <use style="fill:#1f77b4;stroke:#1f77b4;" x="128.477552" xlink:href="#m575ce05241" y="113.480853"/>
     <use style="fill:#1f77b4;stroke:#1f77b4;" x="131.691953" xlink:href="#m575ce05241" y="116.512402"/>
     <use style="fill:#1f77b4;stroke:#1f77b4;" x="134.906355" xlink:href="#m575ce05241" y="118.366706"/>
     <use style="fill:#1f77b4;stroke:#1f77b4;" x="138.120756" xlink:href="#m575ce05241" y="119.220568"/>
     <use style="fill:#1f77b4;stroke:#1f77b4;" x="141.335158" xlink:href="#m575ce05241" y="119.287571"/>
     <use style="fill:#1f77b4;stroke:#1f77b4;" x="144.549559" xlink:href="#m575ce05241" y="118.791395"/>
     <use style="fill:#1f77b4;stroke:#1f77b4;" x="147.76396" xlink:href="#m575ce05241" y="117.940495"/>
     <use style="fill:#1f77b4;stroke:#1f77b4;" x="150.978362" xlink:href="#m575ce05241" y="116.906519"/>
     <use style="fill:#1f77b4;stroke:#1f77b4;" x="154.192763" xlink:href="#m575ce05241" y="115.808518"/>
     <use style="fill:#1f77b4;stroke:#1f77b4;" x="157.407165" xlink:href="#m575ce05241" y="114.7044"/>
     <use style="fill:#1f77b4;stroke:#1f77b4;" x="160.621566" xlink:href="#m575ce05241" y="113.590385"/>
     <use style="fill:#1f77b4;stroke:#1f77b4;" x="163.835968" xlink:href="#m575ce05241" y="112.408475"/>
     <use style="fill:#1f77b4;stroke:#1f77b4;" x="167.050369" xlink:href="#m575ce05241" y="111.061103"/>
     <use style="fill:#1f77b4;stroke:#1f77b4;" x="170.26477" xlink:href="#m575ce05241" y="109.431476"/>
     <use style="fill:#1f77b4;stroke:#1f77b4;" x="173.479172" xlink:href="#m575ce05241" y="107.407473"/>
     <use style="fill:#1f77b4;stroke:#1f77b4;" x="176.693573" xlink:href="#m575ce05241" y="135.366518"/>
     <use style="fill:#1f77b4;stroke:#1f77b4;" x="179.907975" xlink:href="#m575ce05241" y="134.000696"/>
     <use style="fill:#1f77b4;stroke:#1f77b4;" x="183.122376" xlink:href="#m575ce05241" y="132.56382"/>
     <use style="fill:#1f77b4;stroke:#1f77b4;" x="186.336778" xlink:href="#m575ce05241" y="131.223957"/>
     <use style="fill:#1f77b4;stroke:#1f77b4;" x="189.551179" xlink:href="#m575ce05241" y="130.19578"/>
     <use style="fill:#1f77b4;stroke:#1f77b4;" x="192.765581" xlink:href="#m575ce05241" y="129.728698"/>
     <use style="fill:#1f77b4;stroke:#1f77b4;" x="195.979982" xlink:href="#m575ce05241" y="130.089673"/>
     <use style="fill:#1f77b4;stroke:#1f77b4;" x="199.194383" xlink:href="#m575ce05241" y="131.541615"/>
     <use style="fill:#1f77b4;stroke:#1f77b4;" x="202.408785" xlink:href="#m575ce05241" y="134.318766"/>
     <use style="fill:#1f77b4;stroke:#1f77b4;" x="205.623186" xlink:href="#m575ce05241" y="138.600897"/>
     <use style="fill:#1f77b4;stroke:#1f77b4;" x="208.837588" xlink:href="#m575ce05241" y="144.488484"/>
     <use style="fill:#1f77b4;stroke:#1f77b4;" x="212.051989" xlink:href="#m575ce05241" y="151.981132"/>
     <use style="fill:#1f77b4;stroke:#1f77b4;" x="215.266391" xlink:href="#m575ce05241" y="160.961477"/>
     <use style="fill:#1f77b4;stroke:#1f77b4;" x="218.480792" xlink:href="#m575ce05241" y="171.186539"/>
     <use style="fill:#1f77b4;stroke:#1f77b4;" x="221.695194" xlink:href="#m575ce05241" y="182.288025"/>
     <use style="fill:#1f77b4;stroke:#1f77b4;" x="224.909595" xlink:href="#m575ce05241" y="193.782474"/>
     <use style="fill:#1f77b4;stroke:#1f77b4;" x="228.123996" xlink:href="#m575ce05241" y="205.091364"/>
     <use style="fill:#1f77b4;stroke:#1f77b4;" x="231.338398" xlink:href="#m575ce05241" y="215.570511"/>
     <use style="fill:#1f77b4;stroke:#1f77b4;" x="234.552799" xlink:href="#m575ce05241" y="224.547247"/>
     <use style="fill:#1f77b4;stroke:#1f77b4;" x="237.767201" xlink:href="#m575ce05241" y="231.363124"/>
     <use style="fill:#1f77b4;stroke:#1f77b4;" x="240.981602" xlink:href="#m575ce05241" y="295.488"/>
     <use style="fill:#1f77b4;stroke:#1f77b4;" x="244.196004" xlink:href="#m575ce05241" y="269.147827"/>
     <use style="fill:#1f77b4;stroke:#1f77b4;" x="247.410405" xlink:href="#m575ce05241" y="239.658804"/>
     <use style="fill:#1f77b4;stroke:#1f77b4;" x="250.624806" xlink:href="#m575ce05241" y="208.381902"/>
     <use style="fill:#1f77b4;stroke:#1f77b4;" x="253.839208" xlink:href="#m575ce05241" y="176.790628"/>
     <use style="fill:#1f77b4;stroke:#1f77b4;" x="257.053609" xlink:href="#m575ce05241" y="146.381007"/>
     <use style="fill:#1f77b4;stroke:#1f77b4;" x="260.268011" xlink:href="#m575ce05241" y="118.579012"/>
     <use style="fill:#1f77b4;stroke:#1f77b4;" x="263.482412" xlink:href="#m575ce05241" y="94.651941"/>
     <use style="fill:#1f77b4;stroke:#1f77b4;" x="266.696814" xlink:href="#m575ce05241" y="75.62998"/>
     <use style="fill:#1f77b4;stroke:#1f77b4;" x="269.911215" xlink:href="#m575ce05241" y="62.243528"/>
     <use style="fill:#1f77b4;stroke:#1f77b4;" x="273.125617" xlink:href="#m575ce05241" y="54.880706"/>
     <use style="fill:#1f77b4;stroke:#1f77b4;" x="276.340018" xlink:href="#m575ce05241" y="53.568"/>
     <use style="fill:#1f77b4;stroke:#1f77b4;" x="279.554419" xlink:href="#m575ce05241" y="57.975323"/>
     <use style="fill:#1f77b4;stroke:#1f77b4;" x="282.768821" xlink:href="#m575ce05241" y="67.444974"/>
     <use style="fill:#1f77b4;stroke:#1f77b4;" x="285.983222" xlink:href="#m575ce05241" y="81.042226"/>
     <use style="fill:#1f77b4;stroke:#1f77b4;" x="289.197624" xlink:href="#m575ce05241" y="97.623726"/>
     <use style="fill:#1f77b4;stroke:#1f77b4;" x="292.412025" xlink:href="#m575ce05241" y="115.918608"/>
     <use style="fill:#1f77b4;stroke:#1f77b4;" x="295.626427" xlink:href="#m575ce05241" y="76.984588"/>
     <use style="fill:#1f77b4;stroke:#1f77b4;" x="298.840828" xlink:href="#m575ce05241" y="81.932612"/>
     <use style="fill:#1f77b4;stroke:#1f77b4;" x="302.05523" xlink:href="#m575ce05241" y="86.633716"/>
     <use style="fill:#1f77b4;stroke:#1f77b4;" x="305.269631" xlink:href="#m575ce05241" y="90.614417"/>
     <use style="fill:#1f77b4;stroke:#1f77b4;" x="308.484032" xlink:href="#m575ce05241" y="93.525265"/>
     <use style="fill:#1f77b4;stroke:#1f77b4;" x="311.698434" xlink:href="#m575ce05241" y="95.167079"/>
     <use style="fill:#1f77b4;stroke:#1f77b4;" x="314.912835" xlink:href="#m575ce05241" y="95.503761"/>
     <use style="fill:#1f77b4;stroke:#1f77b4;" x="318.127237" xlink:href="#m575ce05241" y="94.660845"/>
     <use style="fill:#1f77b4;stroke:#1f77b4;" x="321.341638" xlink:href="#m575ce05241" y="92.910035"/>
     <use style="fill:#1f77b4;stroke:#1f77b4;" x="324.55604" xlink:href="#m575ce05241" y="90.641156"/>
     <use style="fill:#1f77b4;stroke:#1f77b4;" x="327.770441" xlink:href="#m575ce05241" y="88.323963"/>
     <use style="fill:#1f77b4;stroke:#1f77b4;" x="330.984842" xlink:href="#m575ce05241" y="86.463033"/>
     <use style="fill:#1f77b4;stroke:#1f77b4;" x="334.199244" xlink:href="#m575ce05241" y="85.549551"/>
     <use style="fill:#1f77b4;stroke:#1f77b4;" x="337.413645" xlink:href="#m575ce05241" y="86.014037"/>
     <use style="fill:#1f77b4;stroke:#1f77b4;" x="340.628047" xlink:href="#m575ce05241" y="88.183968"/>
     <use style="fill:#1f77b4;stroke:#1f77b4;" x="343.842448" xlink:href="#m575ce05241" y="92.249878"/>
     <use style="fill:#1f77b4;stroke:#1f77b4;" x="347.05685" xlink:href="#m575ce05241" y="98.242803"/>
     <use style="fill:#1f77b4;stroke:#1f77b4;" x="350.271251" xlink:href="#m575ce05241" y="163.028517"/>
     <use style="fill:#1f77b4;stroke:#1f77b4;" x="353.485653" xlink:href="#m575ce05241" y="146.407248"/>
     <use style="fill:#1f77b4;stroke:#1f77b4;" x="356.700054" xlink:href="#m575ce05241" y="130.088629"/>
     <use style="fill:#1f77b4;stroke:#1f77b4;" x="359.914455" xlink:href="#m575ce05241" y="115.040221"/>
     <use style="fill:#1f77b4;stroke:#1f77b4;" x="363.128857" xlink:href="#m575ce05241" y="102.163138"/>
     <use style="fill:#1f77b4;stroke:#1f77b4;" x="366.343258" xlink:href="#m575ce05241" y="92.230101"/>
     <use style="fill:#1f77b4;stroke:#1f77b4;" x="369.55766" xlink:href="#m575ce05241" y="85.834015"/>
     <use style="fill:#1f77b4;stroke:#1f77b4;" x="372.772061" xlink:href="#m575ce05241" y="83.35063"/>
     <use style="fill:#1f77b4;stroke:#1f77b4;" x="375.986463" xlink:href="#m575ce05241" y="84.917686"/>
     <use style="fill:#1f77b4;stroke:#1f77b4;" x="379.200864" xlink:href="#m575ce05241" y="90.431541"/>
     <use style="fill:#1f77b4;stroke:#1f77b4;" x="382.415266" xlink:href="#m575ce05241" y="99.560927"/>
     <use style="fill:#1f77b4;stroke:#1f77b4;" x="385.629667" xlink:href="#m575ce05241" y="111.77612"/>
     <use style="fill:#1f77b4;stroke:#1f77b4;" x="388.844068" xlink:href="#m575ce05241" y="126.390734"/>
     <use style="fill:#1f77b4;stroke:#1f77b4;" x="392.05847" xlink:href="#m575ce05241" y="142.612445"/>
     <use style="fill:#1f77b4;stroke:#1f77b4;" x="395.272871" xlink:href="#m575ce05241" y="159.598449"/>
     <use style="fill:#1f77b4;stroke:#1f77b4;" x="398.487273" xlink:href="#m575ce05241" y="176.511299"/>
    </g>
   </g>
   <g id="line2d_19">
    <path clip-path="url(#p83a91359ee)" d="M 73.832727 150.817283 
L 77.047129 154.243938 
L 80.26153 154.243938 
L 83.475932 154.226909 
L 86.690333 154.243938 
L 89.904734 154.226203 
L 93.119136 154.243938 
L 96.333537 154.243938 
L 99.547939 154.243938 
L 102.76234 154.243938 
L 105.976742 154.243938 
L 109.191143 154.243938 
L 112.405545 153.498281 
L 115.619946 154.15048 
L 118.834347 154.243938 
L 122.048749 154.243938 
L 125.26315 138.578544 
L 128.477552 154.229316 
L 131.691953 154.189064 
L 134.906355 154.243938 
L 138.120756 154.243938 
L 141.335158 154.243938 
L 144.549559 154.243938 
L 147.76396 154.243938 
L 150.978362 154.20787 
L 154.192763 154.243938 
L 157.407165 154.199595 
L 160.621566 154.230322 
L 163.835968 154.243938 
L 167.050369 154.243938 
L 170.26477 154.219628 
L 173.479172 138.433139 
L 176.693573 154.243938 
L 179.907975 154.191816 
L 183.122376 154.149273 
L 186.336778 154.243938 
L 189.551179 154.1209 
L 192.765581 154.243938 
L 195.979982 153.614489 
L 199.194383 152.785581 
L 202.408785 154.243938 
L 205.623186 154.243938 
L 208.837588 154.186019 
L 212.051989 154.138686 
L 215.266391 154.243938 
L 218.480792 154.243938 
L 221.695194 154.175474 
L 224.909595 154.243938 
L 228.123996 154.243938 
L 231.338398 154.243938 
L 234.552799 154.243938 
L 237.767201 138.692349 
L 240.981602 152.006459 
L 244.196004 154.243938 
L 247.410405 154.243938 
L 250.624806 154.243938 
L 253.839208 154.173403 
L 257.053609 154.193196 
L 260.268011 153.115942 
L 263.482412 150.523762 
L 266.696814 151.203812 
L 269.911215 153.588382 
L 273.125617 154.243938 
L 276.340018 153.936228 
L 279.554419 153.307502 
L 282.768821 152.068134 
L 285.983222 153.067 
L 289.197624 154.243938 
L 292.412025 138.094552 
L 295.626427 154.22175 
L 298.840828 154.243938 
L 302.05523 154.243938 
L 305.269631 154.128188 
L 308.484032 154.243938 
L 311.698434 154.177643 
L 314.912835 154.243938 
L 318.127237 154.243938 
L 321.341638 154.220076 
L 324.55604 154.243938 
L 327.770441 154.243938 
L 330.984842 154.243938 
L 334.199244 154.243938 
L 337.413645 152.364816 
L 340.628047 153.840368 
L 343.842448 154.038781 
L 347.05685 138.329341 
L 350.271251 154.243938 
L 353.485653 154.098061 
L 356.700054 154.185605 
L 359.914455 147.669208 
L 363.128857 154.243938 
L 366.343258 154.069272 
L 369.55766 154.243938 
L 372.772061 153.892004 
L 375.986463 153.739152 
L 379.200864 152.878711 
L 382.415266 152.808989 
L 385.629667 154.108882 
L 388.844068 154.243938 
L 392.05847 154.18388 
L 395.272871 148.61386 
L 398.487273 154.243938 
" style="fill:none;stroke:#ff7f0e;stroke-linecap:square;"/>
   </g>
   <g id="line2d_20">
    <path clip-path="url(#p83a91359ee)" d="M 125.26315 307.584 
L 125.26315 41.472 
" style="fill:none;stroke:#008000;stroke-linecap:square;stroke-width:0.5;"/>
   </g>
   <g id="line2d_21">
    <path clip-path="url(#p83a91359ee)" d="M 173.479172 307.584 
L 173.479172 41.472 
" style="fill:none;stroke:#008000;stroke-linecap:square;stroke-width:0.5;"/>
   </g>
   <g id="line2d_22">
    <path clip-path="url(#p83a91359ee)" d="M 237.767201 307.584 
L 237.767201 41.472 
" style="fill:none;stroke:#008000;stroke-linecap:square;stroke-width:0.5;"/>
   </g>
   <g id="line2d_23">
    <path clip-path="url(#p83a91359ee)" d="M 292.412025 307.584 
L 292.412025 41.472 
" style="fill:none;stroke:#008000;stroke-linecap:square;stroke-width:0.5;"/>
   </g>
   <g id="line2d_24">
    <path clip-path="url(#p83a91359ee)" d="M 347.05685 307.584 
L 347.05685 41.472 
" style="fill:none;stroke:#008000;stroke-linecap:square;stroke-width:0.5;"/>
   </g>
   <g id="patch_3">
    <path d="M 57.6 307.584 
L 57.6 41.472 
" style="fill:none;stroke:#000000;stroke-linecap:square;stroke-linejoin:miter;stroke-width:0.8;"/>
   </g>
   <g id="patch_4">
    <path d="M 414.72 307.584 
L 414.72 41.472 
" style="fill:none;stroke:#000000;stroke-linecap:square;stroke-linejoin:miter;stroke-width:0.8;"/>
   </g>
   <g id="patch_5">
    <path d="M 57.6 307.584 
L 414.72 307.584 
" style="fill:none;stroke:#000000;stroke-linecap:square;stroke-linejoin:miter;stroke-width:0.8;"/>
   </g>
   <g id="patch_6">
    <path d="M 57.6 41.472 
L 414.72 41.472 
" style="fill:none;stroke:#000000;stroke-linecap:square;stroke-linejoin:miter;stroke-width:0.8;"/>
   </g>
   <g id="text_18">
    <!-- (d) -->
    <defs>
     <path d="M 31 75.875 
Q 24.46875 64.65625 21.28125 53.65625 
Q 18.109375 42.671875 18.109375 31.390625 
Q 18.109375 20.125 21.3125 9.0625 
Q 24.515625 -2 31 -13.1875 
L 23.1875 -13.1875 
Q 15.875 -1.703125 12.234375 9.375 
Q 8.59375 20.453125 8.59375 31.390625 
Q 8.59375 42.28125 12.203125 53.3125 
Q 15.828125 64.359375 23.1875 75.875 
z
" id="DejaVuSans-28"/>
     <path d="M 45.40625 46.390625 
L 45.40625 75.984375 
L 54.390625 75.984375 
L 54.390625 0 
L 45.40625 0 
L 45.40625 8.203125 
Q 42.578125 3.328125 38.25 0.953125 
Q 33.9375 -1.421875 27.875 -1.421875 
Q 17.96875 -1.421875 11.734375 6.484375 
Q 5.515625 14.40625 5.515625 27.296875 
Q 5.515625 40.1875 11.734375 48.09375 
Q 17.96875 56 27.875 56 
Q 33.9375 56 38.25 53.625 
Q 42.578125 51.265625 45.40625 46.390625 
z
M 14.796875 27.296875 
Q 14.796875 17.390625 18.875 11.75 
Q 22.953125 6.109375 30.078125 6.109375 
Q 37.203125 6.109375 41.296875 11.75 
Q 45.40625 17.390625 45.40625 27.296875 
Q 45.40625 37.203125 41.296875 42.84375 
Q 37.203125 48.484375 30.078125 48.484375 
Q 22.953125 48.484375 18.875 42.84375 
Q 14.796875 37.203125 14.796875 27.296875 
z
" id="DejaVuSans-64"/>
     <path d="M 8.015625 75.875 
L 15.828125 75.875 
Q 23.140625 64.359375 26.78125 53.3125 
Q 30.421875 42.28125 30.421875 31.390625 
Q 30.421875 20.453125 26.78125 9.375 
Q 23.140625 -1.703125 15.828125 -13.1875 
L 8.015625 -13.1875 
Q 14.5 -2 17.703125 9.0625 
Q 20.90625 20.125 20.90625 31.390625 
Q 20.90625 42.671875 17.703125 53.65625 
Q 14.5 64.65625 8.015625 75.875 
z
" id="DejaVuSans-29"/>
    </defs>
    <g transform="translate(227.669062 35.472)scale(0.12 -0.12)">
     <use xlink:href="#DejaVuSans-28"/>
     <use x="39.013672" xlink:href="#DejaVuSans-64"/>
     <use x="102.490234" xlink:href="#DejaVuSans-29"/>
    </g>
   </g>
   <g id="legend_1">
    <g id="patch_7">
     <path d="M 312.63875 78.82825 
L 407.72 78.82825 
Q 409.72 78.82825 409.72 76.82825 
L 409.72 48.472 
Q 409.72 46.472 407.72 46.472 
L 312.63875 46.472 
Q 310.63875 46.472 310.63875 48.472 
L 310.63875 76.82825 
Q 310.63875 78.82825 312.63875 78.82825 
z
" style="fill:#ffffff;opacity:0.8;stroke:#cccccc;stroke-linejoin:miter;"/>
    </g>
    <g id="line2d_25"/>
    <g id="line2d_26">
     <g>
      <use style="fill:#1f77b4;stroke:#1f77b4;" x="324.63875" xlink:href="#m575ce05241" y="54.570437"/>
     </g>
    </g>
    <g id="text_19">
     <!-- original data -->
     <defs>
      <path d="M 30.609375 48.390625 
Q 23.390625 48.390625 19.1875 42.75 
Q 14.984375 37.109375 14.984375 27.296875 
Q 14.984375 17.484375 19.15625 11.84375 
Q 23.34375 6.203125 30.609375 6.203125 
Q 37.796875 6.203125 41.984375 11.859375 
Q 46.1875 17.53125 46.1875 27.296875 
Q 46.1875 37.015625 41.984375 42.703125 
Q 37.796875 48.390625 30.609375 48.390625 
z
M 30.609375 56 
Q 42.328125 56 49.015625 48.375 
Q 55.71875 40.765625 55.71875 27.296875 
Q 55.71875 13.875 49.015625 6.21875 
Q 42.328125 -1.421875 30.609375 -1.421875 
Q 18.84375 -1.421875 12.171875 6.21875 
Q 5.515625 13.875 5.515625 27.296875 
Q 5.515625 40.765625 12.171875 48.375 
Q 18.84375 56 30.609375 56 
z
" id="DejaVuSans-6f"/>
      <path d="M 41.109375 46.296875 
Q 39.59375 47.171875 37.8125 47.578125 
Q 36.03125 48 33.890625 48 
Q 26.265625 48 22.1875 43.046875 
Q 18.109375 38.09375 18.109375 28.8125 
L 18.109375 0 
L 9.078125 0 
L 9.078125 54.6875 
L 18.109375 54.6875 
L 18.109375 46.1875 
Q 20.953125 51.171875 25.484375 53.578125 
Q 30.03125 56 36.53125 56 
Q 37.453125 56 38.578125 55.875 
Q 39.703125 55.765625 41.0625 55.515625 
z
" id="DejaVuSans-72"/>
      <path d="M 9.421875 54.6875 
L 18.40625 54.6875 
L 18.40625 0 
L 9.421875 0 
z
M 9.421875 75.984375 
L 18.40625 75.984375 
L 18.40625 64.59375 
L 9.421875 64.59375 
z
" id="DejaVuSans-69"/>
      <path d="M 45.40625 27.984375 
Q 45.40625 37.75 41.375 43.109375 
Q 37.359375 48.484375 30.078125 48.484375 
Q 22.859375 48.484375 18.828125 43.109375 
Q 14.796875 37.75 14.796875 27.984375 
Q 14.796875 18.265625 18.828125 12.890625 
Q 22.859375 7.515625 30.078125 7.515625 
Q 37.359375 7.515625 41.375 12.890625 
Q 45.40625 18.265625 45.40625 27.984375 
z
M 54.390625 6.78125 
Q 54.390625 -7.171875 48.1875 -13.984375 
Q 42 -20.796875 29.203125 -20.796875 
Q 24.46875 -20.796875 20.265625 -20.09375 
Q 16.0625 -19.390625 12.109375 -17.921875 
L 12.109375 -9.1875 
Q 16.0625 -11.328125 19.921875 -12.34375 
Q 23.78125 -13.375 27.78125 -13.375 
Q 36.625 -13.375 41.015625 -8.765625 
Q 45.40625 -4.15625 45.40625 5.171875 
L 45.40625 9.625 
Q 42.625 4.78125 38.28125 2.390625 
Q 33.9375 0 27.875 0 
Q 17.828125 0 11.671875 7.65625 
Q 5.515625 15.328125 5.515625 27.984375 
Q 5.515625 40.671875 11.671875 48.328125 
Q 17.828125 56 27.875 56 
Q 33.9375 56 38.28125 53.609375 
Q 42.625 51.21875 45.40625 46.390625 
L 45.40625 54.6875 
L 54.390625 54.6875 
z
" id="DejaVuSans-67"/>
      <path d="M 54.890625 33.015625 
L 54.890625 0 
L 45.90625 0 
L 45.90625 32.71875 
Q 45.90625 40.484375 42.875 44.328125 
Q 39.84375 48.1875 33.796875 48.1875 
Q 26.515625 48.1875 22.3125 43.546875 
Q 18.109375 38.921875 18.109375 30.90625 
L 18.109375 0 
L 9.078125 0 
L 9.078125 54.6875 
L 18.109375 54.6875 
L 18.109375 46.1875 
Q 21.34375 51.125 25.703125 53.5625 
Q 30.078125 56 35.796875 56 
Q 45.21875 56 50.046875 50.171875 
Q 54.890625 44.34375 54.890625 33.015625 
z
" id="DejaVuSans-6e"/>
      <path d="M 34.28125 27.484375 
Q 23.390625 27.484375 19.1875 25 
Q 14.984375 22.515625 14.984375 16.5 
Q 14.984375 11.71875 18.140625 8.90625 
Q 21.296875 6.109375 26.703125 6.109375 
Q 34.1875 6.109375 38.703125 11.40625 
Q 43.21875 16.703125 43.21875 25.484375 
L 43.21875 27.484375 
z
M 52.203125 31.203125 
L 52.203125 0 
L 43.21875 0 
L 43.21875 8.296875 
Q 40.140625 3.328125 35.546875 0.953125 
Q 30.953125 -1.421875 24.3125 -1.421875 
Q 15.921875 -1.421875 10.953125 3.296875 
Q 6 8.015625 6 15.921875 
Q 6 25.140625 12.171875 29.828125 
Q 18.359375 34.515625 30.609375 34.515625 
L 43.21875 34.515625 
L 43.21875 35.40625 
Q 43.21875 41.609375 39.140625 45 
Q 35.0625 48.390625 27.6875 48.390625 
Q 23 48.390625 18.546875 47.265625 
Q 14.109375 46.140625 10.015625 43.890625 
L 10.015625 52.203125 
Q 14.9375 54.109375 19.578125 55.046875 
Q 24.21875 56 28.609375 56 
Q 40.484375 56 46.34375 49.84375 
Q 52.203125 43.703125 52.203125 31.203125 
z
" id="DejaVuSans-61"/>
      <path d="M 9.421875 75.984375 
L 18.40625 75.984375 
L 18.40625 0 
L 9.421875 0 
z
" id="DejaVuSans-6c"/>
      <path id="DejaVuSans-20"/>
      <path d="M 18.3125 70.21875 
L 18.3125 54.6875 
L 36.8125 54.6875 
L 36.8125 47.703125 
L 18.3125 47.703125 
L 18.3125 18.015625 
Q 18.3125 11.328125 20.140625 9.421875 
Q 21.96875 7.515625 27.59375 7.515625 
L 36.8125 7.515625 
L 36.8125 0 
L 27.59375 0 
Q 17.1875 0 13.234375 3.875 
Q 9.28125 7.765625 9.28125 18.015625 
L 9.28125 47.703125 
L 2.6875 47.703125 
L 2.6875 54.6875 
L 9.28125 54.6875 
L 9.28125 70.21875 
z
" id="DejaVuSans-74"/>
     </defs>
     <g transform="translate(342.63875 58.070437)scale(0.1 -0.1)">
      <use xlink:href="#DejaVuSans-6f"/>
      <use x="61.181641" xlink:href="#DejaVuSans-72"/>
      <use x="102.294922" xlink:href="#DejaVuSans-69"/>
      <use x="130.078125" xlink:href="#DejaVuSans-67"/>
      <use x="193.554688" xlink:href="#DejaVuSans-69"/>
      <use x="221.337891" xlink:href="#DejaVuSans-6e"/>
      <use x="284.716797" xlink:href="#DejaVuSans-61"/>
      <use x="345.996094" xlink:href="#DejaVuSans-6c"/>
      <use x="373.779297" xlink:href="#DejaVuSans-20"/>
      <use x="405.566406" xlink:href="#DejaVuSans-64"/>
      <use x="469.042969" xlink:href="#DejaVuSans-61"/>
      <use x="530.322266" xlink:href="#DejaVuSans-74"/>
      <use x="569.53125" xlink:href="#DejaVuSans-61"/>
     </g>
    </g>
    <g id="line2d_27">
     <path d="M 314.63875 69.248562 
L 334.63875 69.248562 
" style="fill:none;stroke:#ff7f0e;stroke-linecap:square;"/>
    </g>
    <g id="line2d_28"/>
    <g id="text_20">
     <!-- CNN output -->
     <defs>
      <path d="M 64.40625 67.28125 
L 64.40625 56.890625 
Q 59.421875 61.53125 53.78125 63.8125 
Q 48.140625 66.109375 41.796875 66.109375 
Q 29.296875 66.109375 22.65625 58.46875 
Q 16.015625 50.828125 16.015625 36.375 
Q 16.015625 21.96875 22.65625 14.328125 
Q 29.296875 6.6875 41.796875 6.6875 
Q 48.140625 6.6875 53.78125 8.984375 
Q 59.421875 11.28125 64.40625 15.921875 
L 64.40625 5.609375 
Q 59.234375 2.09375 53.4375 0.328125 
Q 47.65625 -1.421875 41.21875 -1.421875 
Q 24.65625 -1.421875 15.125 8.703125 
Q 5.609375 18.84375 5.609375 36.375 
Q 5.609375 53.953125 15.125 64.078125 
Q 24.65625 74.21875 41.21875 74.21875 
Q 47.75 74.21875 53.53125 72.484375 
Q 59.328125 70.75 64.40625 67.28125 
z
" id="DejaVuSans-43"/>
      <path d="M 9.8125 72.90625 
L 23.09375 72.90625 
L 55.421875 11.921875 
L 55.421875 72.90625 
L 64.984375 72.90625 
L 64.984375 0 
L 51.703125 0 
L 19.390625 60.984375 
L 19.390625 0 
L 9.8125 0 
z
" id="DejaVuSans-4e"/>
      <path d="M 8.5 21.578125 
L 8.5 54.6875 
L 17.484375 54.6875 
L 17.484375 21.921875 
Q 17.484375 14.15625 20.5 10.265625 
Q 23.53125 6.390625 29.59375 6.390625 
Q 36.859375 6.390625 41.078125 11.03125 
Q 45.3125 15.671875 45.3125 23.6875 
L 45.3125 54.6875 
L 54.296875 54.6875 
L 54.296875 0 
L 45.3125 0 
L 45.3125 8.40625 
Q 42.046875 3.421875 37.71875 1 
Q 33.40625 -1.421875 27.6875 -1.421875 
Q 18.265625 -1.421875 13.375 4.4375 
Q 8.5 10.296875 8.5 21.578125 
z
M 31.109375 56 
z
" id="DejaVuSans-75"/>
      <path d="M 18.109375 8.203125 
L 18.109375 -20.796875 
L 9.078125 -20.796875 
L 9.078125 54.6875 
L 18.109375 54.6875 
L 18.109375 46.390625 
Q 20.953125 51.265625 25.265625 53.625 
Q 29.59375 56 35.59375 56 
Q 45.5625 56 51.78125 48.09375 
Q 58.015625 40.1875 58.015625 27.296875 
Q 58.015625 14.40625 51.78125 6.484375 
Q 45.5625 -1.421875 35.59375 -1.421875 
Q 29.59375 -1.421875 25.265625 0.953125 
Q 20.953125 3.328125 18.109375 8.203125 
z
M 48.6875 27.296875 
Q 48.6875 37.203125 44.609375 42.84375 
Q 40.53125 48.484375 33.40625 48.484375 
Q 26.265625 48.484375 22.1875 42.84375 
Q 18.109375 37.203125 18.109375 27.296875 
Q 18.109375 17.390625 22.1875 11.75 
Q 26.265625 6.109375 33.40625 6.109375 
Q 40.53125 6.109375 44.609375 11.75 
Q 48.6875 17.390625 48.6875 27.296875 
z
" id="DejaVuSans-70"/>
     </defs>
     <g transform="translate(342.63875 72.748562)scale(0.1 -0.1)">
      <use xlink:href="#DejaVuSans-43"/>
      <use x="69.824219" xlink:href="#DejaVuSans-4e"/>
      <use x="144.628906" xlink:href="#DejaVuSans-4e"/>
      <use x="219.433594" xlink:href="#DejaVuSans-20"/>
      <use x="251.220703" xlink:href="#DejaVuSans-6f"/>
      <use x="312.402344" xlink:href="#DejaVuSans-75"/>
      <use x="375.78125" xlink:href="#DejaVuSans-74"/>
      <use x="414.990234" xlink:href="#DejaVuSans-70"/>
      <use x="478.466797" xlink:href="#DejaVuSans-75"/>
      <use x="541.845703" xlink:href="#DejaVuSans-74"/>
     </g>
    </g>
   </g>
  </g>
 </g>
 <defs>
  <clipPath id="p83a91359ee">
   <rect height="266.112" width="357.12" x="57.6" y="41.472"/>
  </clipPath>
 </defs>
</svg>
