<?xml version="1.0" encoding="utf-8" standalone="no"?>
<!DOCTYPE svg PUBLIC "-//W3C//DTD SVG 1.1//EN"
  "http://www.w3.org/Graphics/SVG/1.1/DTD/svg11.dtd">
<!-- Created with matplotlib (http://matplotlib.org/) -->
<svg height="345.6pt" version="1.1" viewBox="0 0 460.8 345.6" width="460.8pt" xmlns="http://www.w3.org/2000/svg" xmlns:xlink="http://www.w3.org/1999/xlink">
 <defs>
  <style type="text/css">
*{stroke-linecap:butt;stroke-linejoin:round;}
  </style>
 </defs>
 <g id="figure_1">
  <g id="patch_1">
   <path d="M 0 345.6 
L 460.8 345.6 
L 460.8 0 
L 0 0 
z
" style="fill:#ffffff;"/>
  </g>
  <g id="axes_1">
   <g id="patch_2">
    <path d="M 57.6 307.584 
L 414.72 307.584 
L 414.72 41.472 
L 57.6 41.472 
z
" style="fill:#ffffff;"/>
   </g>
   <g id="matplotlib.axis_1">
    <g id="xtick_1">
     <g id="line2d_1">
      <defs>
       <path d="M 0 0 
L 0 3.5 
" id="mfd379c2a1e" style="stroke:#000000;stroke-width:0.8;"/>
      </defs>
      <g>
       <use style="stroke:#000000;stroke-width:0.8;" x="73.832727" xlink:href="#mfd379c2a1e" y="307.584"/>
      </g>
     </g>
     <g id="text_1">
      <!-- −1.00 -->
      <defs>
       <path d="M 10.59375 35.5 
L 73.1875 35.5 
L 73.1875 27.203125 
L 10.59375 27.203125 
z
" id="DejaVuSans-2212"/>
       <path d="M 12.40625 8.296875 
L 28.515625 8.296875 
L 28.515625 63.921875 
L 10.984375 60.40625 
L 10.984375 69.390625 
L 28.421875 72.90625 
L 38.28125 72.90625 
L 38.28125 8.296875 
L 54.390625 8.296875 
L 54.390625 0 
L 12.40625 0 
z
" id="DejaVuSans-31"/>
       <path d="M 10.6875 12.40625 
L 21 12.40625 
L 21 0 
L 10.6875 0 
z
" id="DejaVuSans-2e"/>
       <path d="M 31.78125 66.40625 
Q 24.171875 66.40625 20.328125 58.90625 
Q 16.5 51.421875 16.5 36.375 
Q 16.5 21.390625 20.328125 13.890625 
Q 24.171875 6.390625 31.78125 6.390625 
Q 39.453125 6.390625 43.28125 13.890625 
Q 47.125 21.390625 47.125 36.375 
Q 47.125 51.421875 43.28125 58.90625 
Q 39.453125 66.40625 31.78125 66.40625 
z
M 31.78125 74.21875 
Q 44.046875 74.21875 50.515625 64.515625 
Q 56.984375 54.828125 56.984375 36.375 
Q 56.984375 17.96875 50.515625 8.265625 
Q 44.046875 -1.421875 31.78125 -1.421875 
Q 19.53125 -1.421875 13.0625 8.265625 
Q 6.59375 17.96875 6.59375 36.375 
Q 6.59375 54.828125 13.0625 64.515625 
Q 19.53125 74.21875 31.78125 74.21875 
z
" id="DejaVuSans-30"/>
      </defs>
      <g transform="translate(58.510071 322.182437)scale(0.1 -0.1)">
       <use xlink:href="#DejaVuSans-2212"/>
       <use x="83.789062" xlink:href="#DejaVuSans-31"/>
       <use x="147.412109" xlink:href="#DejaVuSans-2e"/>
       <use x="179.199219" xlink:href="#DejaVuSans-30"/>
       <use x="242.822266" xlink:href="#DejaVuSans-30"/>
      </g>
     </g>
    </g>
    <g id="xtick_2">
     <g id="line2d_2">
      <g>
       <use style="stroke:#000000;stroke-width:0.8;" x="114.414545" xlink:href="#mfd379c2a1e" y="307.584"/>
      </g>
     </g>
     <g id="text_2">
      <!-- −0.75 -->
      <defs>
       <path d="M 8.203125 72.90625 
L 55.078125 72.90625 
L 55.078125 68.703125 
L 28.609375 0 
L 18.3125 0 
L 43.21875 64.59375 
L 8.203125 64.59375 
z
" id="DejaVuSans-37"/>
       <path d="M 10.796875 72.90625 
L 49.515625 72.90625 
L 49.515625 64.59375 
L 19.828125 64.59375 
L 19.828125 46.734375 
Q 21.96875 47.46875 24.109375 47.828125 
Q 26.265625 48.1875 28.421875 48.1875 
Q 40.625 48.1875 47.75 41.5 
Q 54.890625 34.8125 54.890625 23.390625 
Q 54.890625 11.625 47.5625 5.09375 
Q 40.234375 -1.421875 26.90625 -1.421875 
Q 22.3125 -1.421875 17.546875 -0.640625 
Q 12.796875 0.140625 7.71875 1.703125 
L 7.71875 11.625 
Q 12.109375 9.234375 16.796875 8.0625 
Q 21.484375 6.890625 26.703125 6.890625 
Q 35.15625 6.890625 40.078125 11.328125 
Q 45.015625 15.765625 45.015625 23.390625 
Q 45.015625 31 40.078125 35.4375 
Q 35.15625 39.890625 26.703125 39.890625 
Q 22.75 39.890625 18.8125 39.015625 
Q 14.890625 38.140625 10.796875 36.28125 
z
" id="DejaVuSans-35"/>
      </defs>
      <g transform="translate(99.091889 322.182437)scale(0.1 -0.1)">
       <use xlink:href="#DejaVuSans-2212"/>
       <use x="83.789062" xlink:href="#DejaVuSans-30"/>
       <use x="147.412109" xlink:href="#DejaVuSans-2e"/>
       <use x="179.199219" xlink:href="#DejaVuSans-37"/>
       <use x="242.822266" xlink:href="#DejaVuSans-35"/>
      </g>
     </g>
    </g>
    <g id="xtick_3">
     <g id="line2d_3">
      <g>
       <use style="stroke:#000000;stroke-width:0.8;" x="154.996364" xlink:href="#mfd379c2a1e" y="307.584"/>
      </g>
     </g>
     <g id="text_3">
      <!-- −0.50 -->
      <g transform="translate(139.673707 322.182437)scale(0.1 -0.1)">
       <use xlink:href="#DejaVuSans-2212"/>
       <use x="83.789062" xlink:href="#DejaVuSans-30"/>
       <use x="147.412109" xlink:href="#DejaVuSans-2e"/>
       <use x="179.199219" xlink:href="#DejaVuSans-35"/>
       <use x="242.822266" xlink:href="#DejaVuSans-30"/>
      </g>
     </g>
    </g>
    <g id="xtick_4">
     <g id="line2d_4">
      <g>
       <use style="stroke:#000000;stroke-width:0.8;" x="195.578182" xlink:href="#mfd379c2a1e" y="307.584"/>
      </g>
     </g>
     <g id="text_4">
      <!-- −0.25 -->
      <defs>
       <path d="M 19.1875 8.296875 
L 53.609375 8.296875 
L 53.609375 0 
L 7.328125 0 
L 7.328125 8.296875 
Q 12.9375 14.109375 22.625 23.890625 
Q 32.328125 33.6875 34.8125 36.53125 
Q 39.546875 41.84375 41.421875 45.53125 
Q 43.3125 49.21875 43.3125 52.78125 
Q 43.3125 58.59375 39.234375 62.25 
Q 35.15625 65.921875 28.609375 65.921875 
Q 23.96875 65.921875 18.8125 64.3125 
Q 13.671875 62.703125 7.8125 59.421875 
L 7.8125 69.390625 
Q 13.765625 71.78125 18.9375 73 
Q 24.125 74.21875 28.421875 74.21875 
Q 39.75 74.21875 46.484375 68.546875 
Q 53.21875 62.890625 53.21875 53.421875 
Q 53.21875 48.921875 51.53125 44.890625 
Q 49.859375 40.875 45.40625 35.40625 
Q 44.1875 33.984375 37.640625 27.21875 
Q 31.109375 20.453125 19.1875 8.296875 
z
" id="DejaVuSans-32"/>
      </defs>
      <g transform="translate(180.255526 322.182437)scale(0.1 -0.1)">
       <use xlink:href="#DejaVuSans-2212"/>
       <use x="83.789062" xlink:href="#DejaVuSans-30"/>
       <use x="147.412109" xlink:href="#DejaVuSans-2e"/>
       <use x="179.199219" xlink:href="#DejaVuSans-32"/>
       <use x="242.822266" xlink:href="#DejaVuSans-35"/>
      </g>
     </g>
    </g>
    <g id="xtick_5">
     <g id="line2d_5">
      <g>
       <use style="stroke:#000000;stroke-width:0.8;" x="236.16" xlink:href="#mfd379c2a1e" y="307.584"/>
      </g>
     </g>
     <g id="text_5">
      <!-- 0.00 -->
      <g transform="translate(225.027187 322.182437)scale(0.1 -0.1)">
       <use xlink:href="#DejaVuSans-30"/>
       <use x="63.623047" xlink:href="#DejaVuSans-2e"/>
       <use x="95.410156" xlink:href="#DejaVuSans-30"/>
       <use x="159.033203" xlink:href="#DejaVuSans-30"/>
      </g>
     </g>
    </g>
    <g id="xtick_6">
     <g id="line2d_6">
      <g>
       <use style="stroke:#000000;stroke-width:0.8;" x="276.741818" xlink:href="#mfd379c2a1e" y="307.584"/>
      </g>
     </g>
     <g id="text_6">
      <!-- 0.25 -->
      <g transform="translate(265.609006 322.182437)scale(0.1 -0.1)">
       <use xlink:href="#DejaVuSans-30"/>
       <use x="63.623047" xlink:href="#DejaVuSans-2e"/>
       <use x="95.410156" xlink:href="#DejaVuSans-32"/>
       <use x="159.033203" xlink:href="#DejaVuSans-35"/>
      </g>
     </g>
    </g>
    <g id="xtick_7">
     <g id="line2d_7">
      <g>
       <use style="stroke:#000000;stroke-width:0.8;" x="317.323636" xlink:href="#mfd379c2a1e" y="307.584"/>
      </g>
     </g>
     <g id="text_7">
      <!-- 0.50 -->
      <g transform="translate(306.190824 322.182437)scale(0.1 -0.1)">
       <use xlink:href="#DejaVuSans-30"/>
       <use x="63.623047" xlink:href="#DejaVuSans-2e"/>
       <use x="95.410156" xlink:href="#DejaVuSans-35"/>
       <use x="159.033203" xlink:href="#DejaVuSans-30"/>
      </g>
     </g>
    </g>
    <g id="xtick_8">
     <g id="line2d_8">
      <g>
       <use style="stroke:#000000;stroke-width:0.8;" x="357.905455" xlink:href="#mfd379c2a1e" y="307.584"/>
      </g>
     </g>
     <g id="text_8">
      <!-- 0.75 -->
      <g transform="translate(346.772642 322.182437)scale(0.1 -0.1)">
       <use xlink:href="#DejaVuSans-30"/>
       <use x="63.623047" xlink:href="#DejaVuSans-2e"/>
       <use x="95.410156" xlink:href="#DejaVuSans-37"/>
       <use x="159.033203" xlink:href="#DejaVuSans-35"/>
      </g>
     </g>
    </g>
    <g id="xtick_9">
     <g id="line2d_9">
      <g>
       <use style="stroke:#000000;stroke-width:0.8;" x="398.487273" xlink:href="#mfd379c2a1e" y="307.584"/>
      </g>
     </g>
     <g id="text_9">
      <!-- 1.00 -->
      <g transform="translate(387.35446 322.182437)scale(0.1 -0.1)">
       <use xlink:href="#DejaVuSans-31"/>
       <use x="63.623047" xlink:href="#DejaVuSans-2e"/>
       <use x="95.410156" xlink:href="#DejaVuSans-30"/>
       <use x="159.033203" xlink:href="#DejaVuSans-30"/>
      </g>
     </g>
    </g>
   </g>
   <g id="matplotlib.axis_2">
    <g id="ytick_1">
     <g id="line2d_10">
      <defs>
       <path d="M 0 0 
L -3.5 0 
" id="ma6832df822" style="stroke:#000000;stroke-width:0.8;"/>
      </defs>
      <g>
       <use style="stroke:#000000;stroke-width:0.8;" x="57.6" xlink:href="#ma6832df822" y="286.481007"/>
      </g>
     </g>
     <g id="text_10">
      <!-- −8 -->
      <defs>
       <path d="M 31.78125 34.625 
Q 24.75 34.625 20.71875 30.859375 
Q 16.703125 27.09375 16.703125 20.515625 
Q 16.703125 13.921875 20.71875 10.15625 
Q 24.75 6.390625 31.78125 6.390625 
Q 38.8125 6.390625 42.859375 10.171875 
Q 46.921875 13.96875 46.921875 20.515625 
Q 46.921875 27.09375 42.890625 30.859375 
Q 38.875 34.625 31.78125 34.625 
z
M 21.921875 38.8125 
Q 15.578125 40.375 12.03125 44.71875 
Q 8.5 49.078125 8.5 55.328125 
Q 8.5 64.0625 14.71875 69.140625 
Q 20.953125 74.21875 31.78125 74.21875 
Q 42.671875 74.21875 48.875 69.140625 
Q 55.078125 64.0625 55.078125 55.328125 
Q 55.078125 49.078125 51.53125 44.71875 
Q 48 40.375 41.703125 38.8125 
Q 48.828125 37.15625 52.796875 32.3125 
Q 56.78125 27.484375 56.78125 20.515625 
Q 56.78125 9.90625 50.3125 4.234375 
Q 43.84375 -1.421875 31.78125 -1.421875 
Q 19.734375 -1.421875 13.25 4.234375 
Q 6.78125 9.90625 6.78125 20.515625 
Q 6.78125 27.484375 10.78125 32.3125 
Q 14.796875 37.15625 21.921875 38.8125 
z
M 18.3125 54.390625 
Q 18.3125 48.734375 21.84375 45.5625 
Q 25.390625 42.390625 31.78125 42.390625 
Q 38.140625 42.390625 41.71875 45.5625 
Q 45.3125 48.734375 45.3125 54.390625 
Q 45.3125 60.0625 41.71875 63.234375 
Q 38.140625 66.40625 31.78125 66.40625 
Q 25.390625 66.40625 21.84375 63.234375 
Q 18.3125 60.0625 18.3125 54.390625 
z
" id="DejaVuSans-38"/>
      </defs>
      <g transform="translate(35.857813 290.280226)scale(0.1 -0.1)">
       <use xlink:href="#DejaVuSans-2212"/>
       <use x="83.789062" xlink:href="#DejaVuSans-38"/>
      </g>
     </g>
    </g>
    <g id="ytick_2">
     <g id="line2d_11">
      <g>
       <use style="stroke:#000000;stroke-width:0.8;" x="57.6" xlink:href="#ma6832df822" y="255.529718"/>
      </g>
     </g>
     <g id="text_11">
      <!-- −6 -->
      <defs>
       <path d="M 33.015625 40.375 
Q 26.375 40.375 22.484375 35.828125 
Q 18.609375 31.296875 18.609375 23.390625 
Q 18.609375 15.53125 22.484375 10.953125 
Q 26.375 6.390625 33.015625 6.390625 
Q 39.65625 6.390625 43.53125 10.953125 
Q 47.40625 15.53125 47.40625 23.390625 
Q 47.40625 31.296875 43.53125 35.828125 
Q 39.65625 40.375 33.015625 40.375 
z
M 52.59375 71.296875 
L 52.59375 62.3125 
Q 48.875 64.0625 45.09375 64.984375 
Q 41.3125 65.921875 37.59375 65.921875 
Q 27.828125 65.921875 22.671875 59.328125 
Q 17.53125 52.734375 16.796875 39.40625 
Q 19.671875 43.65625 24.015625 45.921875 
Q 28.375 48.1875 33.59375 48.1875 
Q 44.578125 48.1875 50.953125 41.515625 
Q 57.328125 34.859375 57.328125 23.390625 
Q 57.328125 12.15625 50.6875 5.359375 
Q 44.046875 -1.421875 33.015625 -1.421875 
Q 20.359375 -1.421875 13.671875 8.265625 
Q 6.984375 17.96875 6.984375 36.375 
Q 6.984375 53.65625 15.1875 63.9375 
Q 23.390625 74.21875 37.203125 74.21875 
Q 40.921875 74.21875 44.703125 73.484375 
Q 48.484375 72.75 52.59375 71.296875 
z
" id="DejaVuSans-36"/>
      </defs>
      <g transform="translate(35.857813 259.328937)scale(0.1 -0.1)">
       <use xlink:href="#DejaVuSans-2212"/>
       <use x="83.789062" xlink:href="#DejaVuSans-36"/>
      </g>
     </g>
    </g>
    <g id="ytick_3">
     <g id="line2d_12">
      <g>
       <use style="stroke:#000000;stroke-width:0.8;" x="57.6" xlink:href="#ma6832df822" y="224.578428"/>
      </g>
     </g>
     <g id="text_12">
      <!-- −4 -->
      <defs>
       <path d="M 37.796875 64.3125 
L 12.890625 25.390625 
L 37.796875 25.390625 
z
M 35.203125 72.90625 
L 47.609375 72.90625 
L 47.609375 25.390625 
L 58.015625 25.390625 
L 58.015625 17.1875 
L 47.609375 17.1875 
L 47.609375 0 
L 37.796875 0 
L 37.796875 17.1875 
L 4.890625 17.1875 
L 4.890625 26.703125 
z
" id="DejaVuSans-34"/>
      </defs>
      <g transform="translate(35.857813 228.377647)scale(0.1 -0.1)">
       <use xlink:href="#DejaVuSans-2212"/>
       <use x="83.789062" xlink:href="#DejaVuSans-34"/>
      </g>
     </g>
    </g>
    <g id="ytick_4">
     <g id="line2d_13">
      <g>
       <use style="stroke:#000000;stroke-width:0.8;" x="57.6" xlink:href="#ma6832df822" y="193.627139"/>
      </g>
     </g>
     <g id="text_13">
      <!-- −2 -->
      <g transform="translate(35.857813 197.426358)scale(0.1 -0.1)">
       <use xlink:href="#DejaVuSans-2212"/>
       <use x="83.789062" xlink:href="#DejaVuSans-32"/>
      </g>
     </g>
    </g>
    <g id="ytick_5">
     <g id="line2d_14">
      <g>
       <use style="stroke:#000000;stroke-width:0.8;" x="57.6" xlink:href="#ma6832df822" y="162.675849"/>
      </g>
     </g>
     <g id="text_14">
      <!-- 0 -->
      <g transform="translate(44.2375 166.475068)scale(0.1 -0.1)">
       <use xlink:href="#DejaVuSans-30"/>
      </g>
     </g>
    </g>
    <g id="ytick_6">
     <g id="line2d_15">
      <g>
       <use style="stroke:#000000;stroke-width:0.8;" x="57.6" xlink:href="#ma6832df822" y="131.72456"/>
      </g>
     </g>
     <g id="text_15">
      <!-- 2 -->
      <g transform="translate(44.2375 135.523779)scale(0.1 -0.1)">
       <use xlink:href="#DejaVuSans-32"/>
      </g>
     </g>
    </g>
    <g id="ytick_7">
     <g id="line2d_16">
      <g>
       <use style="stroke:#000000;stroke-width:0.8;" x="57.6" xlink:href="#ma6832df822" y="100.77327"/>
      </g>
     </g>
     <g id="text_16">
      <!-- 4 -->
      <g transform="translate(44.2375 104.572489)scale(0.1 -0.1)">
       <use xlink:href="#DejaVuSans-34"/>
      </g>
     </g>
    </g>
    <g id="ytick_8">
     <g id="line2d_17">
      <g>
       <use style="stroke:#000000;stroke-width:0.8;" x="57.6" xlink:href="#ma6832df822" y="69.821981"/>
      </g>
     </g>
     <g id="text_17">
      <!-- 6 -->
      <g transform="translate(44.2375 73.6212)scale(0.1 -0.1)">
       <use xlink:href="#DejaVuSans-36"/>
      </g>
     </g>
    </g>
   </g>
   <g id="line2d_18">
    <defs>
     <path d="M 0 0.75 
C 0.198902 0.75 0.389685 0.670975 0.53033 0.53033 
C 0.670975 0.389685 0.75 0.198902 0.75 0 
C 0.75 -0.198902 0.670975 -0.389685 0.53033 -0.53033 
C 0.389685 -0.670975 0.198902 -0.75 0 -0.75 
C -0.198902 -0.75 -0.389685 -0.670975 -0.53033 -0.53033 
C -0.670975 -0.389685 -0.75 -0.198902 -0.75 0 
C -0.75 0.198902 -0.670975 0.389685 -0.53033 0.53033 
C -0.389685 0.670975 -0.198902 0.75 0 0.75 
z
" id="m2c6aff7c0e" style="stroke:#1f77b4;"/>
    </defs>
    <g clip-path="url(#p88724ed3c2)">
     <use style="fill:#1f77b4;stroke:#1f77b4;" x="73.832727" xlink:href="#m2c6aff7c0e" y="85.851737"/>
     <use style="fill:#1f77b4;stroke:#1f77b4;" x="75.447924" xlink:href="#m2c6aff7c0e" y="86.665128"/>
     <use style="fill:#1f77b4;stroke:#1f77b4;" x="77.063121" xlink:href="#m2c6aff7c0e" y="87.652351"/>
     <use style="fill:#1f77b4;stroke:#1f77b4;" x="78.678318" xlink:href="#m2c6aff7c0e" y="88.793597"/>
     <use style="fill:#1f77b4;stroke:#1f77b4;" x="80.293514" xlink:href="#m2c6aff7c0e" y="90.069763"/>
     <use style="fill:#1f77b4;stroke:#1f77b4;" x="81.908711" xlink:href="#m2c6aff7c0e" y="91.46288"/>
     <use style="fill:#1f77b4;stroke:#1f77b4;" x="83.523908" xlink:href="#m2c6aff7c0e" y="92.956521"/>
     <use style="fill:#1f77b4;stroke:#1f77b4;" x="85.139104" xlink:href="#m2c6aff7c0e" y="94.536185"/>
     <use style="fill:#1f77b4;stroke:#1f77b4;" x="86.754301" xlink:href="#m2c6aff7c0e" y="96.189636"/>
     <use style="fill:#1f77b4;stroke:#1f77b4;" x="88.369498" xlink:href="#m2c6aff7c0e" y="97.90721"/>
     <use style="fill:#1f77b4;stroke:#1f77b4;" x="89.984695" xlink:href="#m2c6aff7c0e" y="99.682057"/>
     <use style="fill:#1f77b4;stroke:#1f77b4;" x="91.599891" xlink:href="#m2c6aff7c0e" y="101.510344"/>
     <use style="fill:#1f77b4;stroke:#1f77b4;" x="93.215088" xlink:href="#m2c6aff7c0e" y="103.391383"/>
     <use style="fill:#1f77b4;stroke:#1f77b4;" x="94.830285" xlink:href="#m2c6aff7c0e" y="105.327698"/>
     <use style="fill:#1f77b4;stroke:#1f77b4;" x="96.445482" xlink:href="#m2c6aff7c0e" y="107.32503"/>
     <use style="fill:#1f77b4;stroke:#1f77b4;" x="98.060678" xlink:href="#m2c6aff7c0e" y="109.392263"/>
     <use style="fill:#1f77b4;stroke:#1f77b4;" x="99.675875" xlink:href="#m2c6aff7c0e" y="111.541288"/>
     <use style="fill:#1f77b4;stroke:#1f77b4;" x="101.291072" xlink:href="#m2c6aff7c0e" y="113.78679"/>
     <use style="fill:#1f77b4;stroke:#1f77b4;" x="102.906269" xlink:href="#m2c6aff7c0e" y="116.145974"/>
     <use style="fill:#1f77b4;stroke:#1f77b4;" x="104.521465" xlink:href="#m2c6aff7c0e" y="118.638223"/>
     <use style="fill:#1f77b4;stroke:#1f77b4;" x="106.136662" xlink:href="#m2c6aff7c0e" y="121.284701"/>
     <use style="fill:#1f77b4;stroke:#1f77b4;" x="107.751859" xlink:href="#m2c6aff7c0e" y="124.107899"/>
     <use style="fill:#1f77b4;stroke:#1f77b4;" x="109.367056" xlink:href="#m2c6aff7c0e" y="127.131136"/>
     <use style="fill:#1f77b4;stroke:#1f77b4;" x="110.982252" xlink:href="#m2c6aff7c0e" y="130.378024"/>
     <use style="fill:#1f77b4;stroke:#1f77b4;" x="112.597449" xlink:href="#m2c6aff7c0e" y="133.871899"/>
     <use style="fill:#1f77b4;stroke:#1f77b4;" x="114.212646" xlink:href="#m2c6aff7c0e" y="137.635239"/>
     <use style="fill:#1f77b4;stroke:#1f77b4;" x="115.827843" xlink:href="#m2c6aff7c0e" y="141.689067"/>
     <use style="fill:#1f77b4;stroke:#1f77b4;" x="117.443039" xlink:href="#m2c6aff7c0e" y="146.052359"/>
     <use style="fill:#1f77b4;stroke:#1f77b4;" x="119.058236" xlink:href="#m2c6aff7c0e" y="150.74146"/>
     <use style="fill:#1f77b4;stroke:#1f77b4;" x="120.673433" xlink:href="#m2c6aff7c0e" y="155.769531"/>
     <use style="fill:#1f77b4;stroke:#1f77b4;" x="122.28863" xlink:href="#m2c6aff7c0e" y="161.146024"/>
     <use style="fill:#1f77b4;stroke:#1f77b4;" x="123.903826" xlink:href="#m2c6aff7c0e" y="166.876197"/>
     <use style="fill:#1f77b4;stroke:#1f77b4;" x="125.519023" xlink:href="#m2c6aff7c0e" y="122.23123"/>
     <use style="fill:#1f77b4;stroke:#1f77b4;" x="127.13422" xlink:href="#m2c6aff7c0e" y="124.460629"/>
     <use style="fill:#1f77b4;stroke:#1f77b4;" x="128.749417" xlink:href="#m2c6aff7c0e" y="126.364416"/>
     <use style="fill:#1f77b4;stroke:#1f77b4;" x="130.364613" xlink:href="#m2c6aff7c0e" y="127.950315"/>
     <use style="fill:#1f77b4;stroke:#1f77b4;" x="131.97981" xlink:href="#m2c6aff7c0e" y="129.231215"/>
     <use style="fill:#1f77b4;stroke:#1f77b4;" x="133.595007" xlink:href="#m2c6aff7c0e" y="130.224511"/>
     <use style="fill:#1f77b4;stroke:#1f77b4;" x="135.210204" xlink:href="#m2c6aff7c0e" y="130.951359"/>
     <use style="fill:#1f77b4;stroke:#1f77b4;" x="136.8254" xlink:href="#m2c6aff7c0e" y="131.435888"/>
     <use style="fill:#1f77b4;stroke:#1f77b4;" x="138.440597" xlink:href="#m2c6aff7c0e" y="131.704364"/>
     <use style="fill:#1f77b4;stroke:#1f77b4;" x="140.055794" xlink:href="#m2c6aff7c0e" y="131.784348"/>
     <use style="fill:#1f77b4;stroke:#1f77b4;" x="141.670991" xlink:href="#m2c6aff7c0e" y="131.703852"/>
     <use style="fill:#1f77b4;stroke:#1f77b4;" x="143.286187" xlink:href="#m2c6aff7c0e" y="131.490526"/>
     <use style="fill:#1f77b4;stroke:#1f77b4;" x="144.901384" xlink:href="#m2c6aff7c0e" y="131.170889"/>
     <use style="fill:#1f77b4;stroke:#1f77b4;" x="146.516581" xlink:href="#m2c6aff7c0e" y="130.769619"/>
     <use style="fill:#1f77b4;stroke:#1f77b4;" x="148.131777" xlink:href="#m2c6aff7c0e" y="130.308934"/>
     <use style="fill:#1f77b4;stroke:#1f77b4;" x="149.746974" xlink:href="#m2c6aff7c0e" y="129.808057"/>
     <use style="fill:#1f77b4;stroke:#1f77b4;" x="151.362171" xlink:href="#m2c6aff7c0e" y="129.282794"/>
     <use style="fill:#1f77b4;stroke:#1f77b4;" x="152.977368" xlink:href="#m2c6aff7c0e" y="128.745236"/>
     <use style="fill:#1f77b4;stroke:#1f77b4;" x="154.592564" xlink:href="#m2c6aff7c0e" y="128.203574"/>
     <use style="fill:#1f77b4;stroke:#1f77b4;" x="156.207761" xlink:href="#m2c6aff7c0e" y="127.662051"/>
     <use style="fill:#1f77b4;stroke:#1f77b4;" x="157.822958" xlink:href="#m2c6aff7c0e" y="127.121044"/>
     <use style="fill:#1f77b4;stroke:#1f77b4;" x="159.438155" xlink:href="#m2c6aff7c0e" y="126.577265"/>
     <use style="fill:#1f77b4;stroke:#1f77b4;" x="161.053351" xlink:href="#m2c6aff7c0e" y="126.024093"/>
     <use style="fill:#1f77b4;stroke:#1f77b4;" x="162.668548" xlink:href="#m2c6aff7c0e" y="125.452014"/>
     <use style="fill:#1f77b4;stroke:#1f77b4;" x="164.283745" xlink:href="#m2c6aff7c0e" y="124.849161"/>
     <use style="fill:#1f77b4;stroke:#1f77b4;" x="165.898942" xlink:href="#m2c6aff7c0e" y="124.201943"/>
     <use style="fill:#1f77b4;stroke:#1f77b4;" x="167.514138" xlink:href="#m2c6aff7c0e" y="123.495747"/>
     <use style="fill:#1f77b4;stroke:#1f77b4;" x="169.129335" xlink:href="#m2c6aff7c0e" y="122.715684"/>
     <use style="fill:#1f77b4;stroke:#1f77b4;" x="170.744532" xlink:href="#m2c6aff7c0e" y="121.847376"/>
     <use style="fill:#1f77b4;stroke:#1f77b4;" x="172.359729" xlink:href="#m2c6aff7c0e" y="120.877745"/>
     <use style="fill:#1f77b4;stroke:#1f77b4;" x="173.974925" xlink:href="#m2c6aff7c0e" y="119.795803"/>
     <use style="fill:#1f77b4;stroke:#1f77b4;" x="175.590122" xlink:href="#m2c6aff7c0e" y="118.593398"/>
     <use style="fill:#1f77b4;stroke:#1f77b4;" x="177.205319" xlink:href="#m2c6aff7c0e" y="143.018637"/>
     <use style="fill:#1f77b4;stroke:#1f77b4;" x="178.820516" xlink:href="#m2c6aff7c0e" y="142.353553"/>
     <use style="fill:#1f77b4;stroke:#1f77b4;" x="180.435712" xlink:href="#m2c6aff7c0e" y="141.659032"/>
     <use style="fill:#1f77b4;stroke:#1f77b4;" x="182.050909" xlink:href="#m2c6aff7c0e" y="140.952122"/>
     <use style="fill:#1f77b4;stroke:#1f77b4;" x="183.666106" xlink:href="#m2c6aff7c0e" y="140.253163"/>
     <use style="fill:#1f77b4;stroke:#1f77b4;" x="185.281303" xlink:href="#m2c6aff7c0e" y="139.585606"/>
     <use style="fill:#1f77b4;stroke:#1f77b4;" x="186.896499" xlink:href="#m2c6aff7c0e" y="138.975745"/>
     <use style="fill:#1f77b4;stroke:#1f77b4;" x="188.511696" xlink:href="#m2c6aff7c0e" y="138.452359"/>
     <use style="fill:#1f77b4;stroke:#1f77b4;" x="190.126893" xlink:href="#m2c6aff7c0e" y="138.046267"/>
     <use style="fill:#1f77b4;stroke:#1f77b4;" x="191.74209" xlink:href="#m2c6aff7c0e" y="137.789792"/>
     <use style="fill:#1f77b4;stroke:#1f77b4;" x="193.357286" xlink:href="#m2c6aff7c0e" y="137.716165"/>
     <use style="fill:#1f77b4;stroke:#1f77b4;" x="194.972483" xlink:href="#m2c6aff7c0e" y="137.858842"/>
     <use style="fill:#1f77b4;stroke:#1f77b4;" x="196.58768" xlink:href="#m2c6aff7c0e" y="138.250779"/>
     <use style="fill:#1f77b4;stroke:#1f77b4;" x="198.202877" xlink:href="#m2c6aff7c0e" y="138.923656"/>
     <use style="fill:#1f77b4;stroke:#1f77b4;" x="199.818073" xlink:href="#m2c6aff7c0e" y="139.907075"/>
     <use style="fill:#1f77b4;stroke:#1f77b4;" x="201.43327" xlink:href="#m2c6aff7c0e" y="141.227743"/>
     <use style="fill:#1f77b4;stroke:#1f77b4;" x="203.048467" xlink:href="#m2c6aff7c0e" y="142.908658"/>
     <use style="fill:#1f77b4;stroke:#1f77b4;" x="204.663664" xlink:href="#m2c6aff7c0e" y="144.968321"/>
     <use style="fill:#1f77b4;stroke:#1f77b4;" x="206.27886" xlink:href="#m2c6aff7c0e" y="147.419982"/>
     <use style="fill:#1f77b4;stroke:#1f77b4;" x="207.894057" xlink:href="#m2c6aff7c0e" y="150.27095"/>
     <use style="fill:#1f77b4;stroke:#1f77b4;" x="209.509254" xlink:href="#m2c6aff7c0e" y="153.521976"/>
     <use style="fill:#1f77b4;stroke:#1f77b4;" x="211.12445" xlink:href="#m2c6aff7c0e" y="157.166732"/>
     <use style="fill:#1f77b4;stroke:#1f77b4;" x="212.739647" xlink:href="#m2c6aff7c0e" y="161.1914"/>
     <use style="fill:#1f77b4;stroke:#1f77b4;" x="214.354844" xlink:href="#m2c6aff7c0e" y="165.57438"/>
     <use style="fill:#1f77b4;stroke:#1f77b4;" x="215.970041" xlink:href="#m2c6aff7c0e" y="170.286141"/>
     <use style="fill:#1f77b4;stroke:#1f77b4;" x="217.585237" xlink:href="#m2c6aff7c0e" y="175.289214"/>
     <use style="fill:#1f77b4;stroke:#1f77b4;" x="219.200434" xlink:href="#m2c6aff7c0e" y="180.538344"/>
     <use style="fill:#1f77b4;stroke:#1f77b4;" x="220.815631" xlink:href="#m2c6aff7c0e" y="185.980791"/>
     <use style="fill:#1f77b4;stroke:#1f77b4;" x="222.430828" xlink:href="#m2c6aff7c0e" y="191.556803"/>
     <use style="fill:#1f77b4;stroke:#1f77b4;" x="224.046024" xlink:href="#m2c6aff7c0e" y="197.200235"/>
     <use style="fill:#1f77b4;stroke:#1f77b4;" x="225.661221" xlink:href="#m2c6aff7c0e" y="202.839329"/>
     <use style="fill:#1f77b4;stroke:#1f77b4;" x="227.276418" xlink:href="#m2c6aff7c0e" y="208.397633"/>
     <use style="fill:#1f77b4;stroke:#1f77b4;" x="228.891615" xlink:href="#m2c6aff7c0e" y="213.795055"/>
     <use style="fill:#1f77b4;stroke:#1f77b4;" x="230.506811" xlink:href="#m2c6aff7c0e" y="218.949033"/>
     <use style="fill:#1f77b4;stroke:#1f77b4;" x="232.122008" xlink:href="#m2c6aff7c0e" y="223.775803"/>
     <use style="fill:#1f77b4;stroke:#1f77b4;" x="233.737205" xlink:href="#m2c6aff7c0e" y="228.191746"/>
     <use style="fill:#1f77b4;stroke:#1f77b4;" x="235.352402" xlink:href="#m2c6aff7c0e" y="232.114796"/>
     <use style="fill:#1f77b4;stroke:#1f77b4;" x="236.967598" xlink:href="#m2c6aff7c0e" y="235.465869"/>
     <use style="fill:#1f77b4;stroke:#1f77b4;" x="238.582795" xlink:href="#m2c6aff7c0e" y="238.170305"/>
     <use style="fill:#1f77b4;stroke:#1f77b4;" x="240.197992" xlink:href="#m2c6aff7c0e" y="295.488"/>
     <use style="fill:#1f77b4;stroke:#1f77b4;" x="241.813189" xlink:href="#m2c6aff7c0e" y="283.535287"/>
     <use style="fill:#1f77b4;stroke:#1f77b4;" x="243.428385" xlink:href="#m2c6aff7c0e" y="270.584252"/>
     <use style="fill:#1f77b4;stroke:#1f77b4;" x="245.043582" xlink:href="#m2c6aff7c0e" y="256.78046"/>
     <use style="fill:#1f77b4;stroke:#1f77b4;" x="246.658779" xlink:href="#m2c6aff7c0e" y="242.282737"/>
     <use style="fill:#1f77b4;stroke:#1f77b4;" x="248.273976" xlink:href="#m2c6aff7c0e" y="227.260807"/>
     <use style="fill:#1f77b4;stroke:#1f77b4;" x="249.889172" xlink:href="#m2c6aff7c0e" y="211.892716"/>
     <use style="fill:#1f77b4;stroke:#1f77b4;" x="251.504369" xlink:href="#m2c6aff7c0e" y="196.362101"/>
     <use style="fill:#1f77b4;stroke:#1f77b4;" x="253.119566" xlink:href="#m2c6aff7c0e" y="180.855344"/>
     <use style="fill:#1f77b4;stroke:#1f77b4;" x="254.734763" xlink:href="#m2c6aff7c0e" y="165.558654"/>
     <use style="fill:#1f77b4;stroke:#1f77b4;" x="256.349959" xlink:href="#m2c6aff7c0e" y="150.655145"/>
     <use style="fill:#1f77b4;stroke:#1f77b4;" x="257.965156" xlink:href="#m2c6aff7c0e" y="136.321954"/>
     <use style="fill:#1f77b4;stroke:#1f77b4;" x="259.580353" xlink:href="#m2c6aff7c0e" y="122.72744"/>
     <use style="fill:#1f77b4;stroke:#1f77b4;" x="261.19555" xlink:href="#m2c6aff7c0e" y="110.028535"/>
     <use style="fill:#1f77b4;stroke:#1f77b4;" x="262.810746" xlink:href="#m2c6aff7c0e" y="98.368279"/>
     <use style="fill:#1f77b4;stroke:#1f77b4;" x="264.425943" xlink:href="#m2c6aff7c0e" y="87.873587"/>
     <use style="fill:#1f77b4;stroke:#1f77b4;" x="266.04114" xlink:href="#m2c6aff7c0e" y="78.653293"/>
     <use style="fill:#1f77b4;stroke:#1f77b4;" x="267.656336" xlink:href="#m2c6aff7c0e" y="70.7965"/>
     <use style="fill:#1f77b4;stroke:#1f77b4;" x="269.271533" xlink:href="#m2c6aff7c0e" y="64.371267"/>
     <use style="fill:#1f77b4;stroke:#1f77b4;" x="270.88673" xlink:href="#m2c6aff7c0e" y="59.423659"/>
     <use style="fill:#1f77b4;stroke:#1f77b4;" x="272.501927" xlink:href="#m2c6aff7c0e" y="55.977174"/>
     <use style="fill:#1f77b4;stroke:#1f77b4;" x="274.117123" xlink:href="#m2c6aff7c0e" y="54.032557"/>
     <use style="fill:#1f77b4;stroke:#1f77b4;" x="275.73232" xlink:href="#m2c6aff7c0e" y="53.568"/>
     <use style="fill:#1f77b4;stroke:#1f77b4;" x="277.347517" xlink:href="#m2c6aff7c0e" y="54.539735"/>
     <use style="fill:#1f77b4;stroke:#1f77b4;" x="278.962714" xlink:href="#m2c6aff7c0e" y="56.88299"/>
     <use style="fill:#1f77b4;stroke:#1f77b4;" x="280.57791" xlink:href="#m2c6aff7c0e" y="60.5133"/>
     <use style="fill:#1f77b4;stroke:#1f77b4;" x="282.193107" xlink:href="#m2c6aff7c0e" y="65.328154"/>
     <use style="fill:#1f77b4;stroke:#1f77b4;" x="283.808304" xlink:href="#m2c6aff7c0e" y="71.208925"/>
     <use style="fill:#1f77b4;stroke:#1f77b4;" x="285.423501" xlink:href="#m2c6aff7c0e" y="78.023072"/>
     <use style="fill:#1f77b4;stroke:#1f77b4;" x="287.038697" xlink:href="#m2c6aff7c0e" y="85.626555"/>
     <use style="fill:#1f77b4;stroke:#1f77b4;" x="288.653894" xlink:href="#m2c6aff7c0e" y="93.866418"/>
     <use style="fill:#1f77b4;stroke:#1f77b4;" x="290.269091" xlink:href="#m2c6aff7c0e" y="102.583505"/>
     <use style="fill:#1f77b4;stroke:#1f77b4;" x="291.884288" xlink:href="#m2c6aff7c0e" y="111.615243"/>
     <use style="fill:#1f77b4;stroke:#1f77b4;" x="293.499484" xlink:href="#m2c6aff7c0e" y="81.544853"/>
     <use style="fill:#1f77b4;stroke:#1f77b4;" x="295.114681" xlink:href="#m2c6aff7c0e" y="83.852292"/>
     <use style="fill:#1f77b4;stroke:#1f77b4;" x="296.729878" xlink:href="#m2c6aff7c0e" y="86.259518"/>
     <use style="fill:#1f77b4;stroke:#1f77b4;" x="298.345075" xlink:href="#m2c6aff7c0e" y="88.693886"/>
     <use style="fill:#1f77b4;stroke:#1f77b4;" x="299.960271" xlink:href="#m2c6aff7c0e" y="91.08633"/>
     <use style="fill:#1f77b4;stroke:#1f77b4;" x="301.575468" xlink:href="#m2c6aff7c0e" y="93.372811"/>
     <use style="fill:#1f77b4;stroke:#1f77b4;" x="303.190665" xlink:href="#m2c6aff7c0e" y="95.495624"/>
     <use style="fill:#1f77b4;stroke:#1f77b4;" x="304.805862" xlink:href="#m2c6aff7c0e" y="97.404558"/>
     <use style="fill:#1f77b4;stroke:#1f77b4;" x="306.421058" xlink:href="#m2c6aff7c0e" y="99.057879"/>
     <use style="fill:#1f77b4;stroke:#1f77b4;" x="308.036255" xlink:href="#m2c6aff7c0e" y="100.423118"/>
     <use style="fill:#1f77b4;stroke:#1f77b4;" x="309.651452" xlink:href="#m2c6aff7c0e" y="101.477649"/>
     <use style="fill:#1f77b4;stroke:#1f77b4;" x="311.266649" xlink:href="#m2c6aff7c0e" y="102.209044"/>
     <use style="fill:#1f77b4;stroke:#1f77b4;" x="312.881845" xlink:href="#m2c6aff7c0e" y="102.615202"/>
     <use style="fill:#1f77b4;stroke:#1f77b4;" x="314.497042" xlink:href="#m2c6aff7c0e" y="102.704254"/>
     <use style="fill:#1f77b4;stroke:#1f77b4;" x="316.112239" xlink:href="#m2c6aff7c0e" y="102.494235"/>
     <use style="fill:#1f77b4;stroke:#1f77b4;" x="317.727436" xlink:href="#m2c6aff7c0e" y="102.012543"/>
     <use style="fill:#1f77b4;stroke:#1f77b4;" x="319.342632" xlink:href="#m2c6aff7c0e" y="101.295196"/>
     <use style="fill:#1f77b4;stroke:#1f77b4;" x="320.957829" xlink:href="#m2c6aff7c0e" y="100.385899"/>
     <use style="fill:#1f77b4;stroke:#1f77b4;" x="322.573026" xlink:href="#m2c6aff7c0e" y="99.334941"/>
     <use style="fill:#1f77b4;stroke:#1f77b4;" x="324.188223" xlink:href="#m2c6aff7c0e" y="98.19795"/>
     <use style="fill:#1f77b4;stroke:#1f77b4;" x="325.803419" xlink:href="#m2c6aff7c0e" y="97.034534"/>
     <use style="fill:#1f77b4;stroke:#1f77b4;" x="327.418616" xlink:href="#m2c6aff7c0e" y="95.906831"/>
     <use style="fill:#1f77b4;stroke:#1f77b4;" x="329.033813" xlink:href="#m2c6aff7c0e" y="94.878001"/>
     <use style="fill:#1f77b4;stroke:#1f77b4;" x="330.649009" xlink:href="#m2c6aff7c0e" y="94.0107"/>
     <use style="fill:#1f77b4;stroke:#1f77b4;" x="332.264206" xlink:href="#m2c6aff7c0e" y="93.365552"/>
     <use style="fill:#1f77b4;stroke:#1f77b4;" x="333.879403" xlink:href="#m2c6aff7c0e" y="92.999669"/>
     <use style="fill:#1f77b4;stroke:#1f77b4;" x="335.4946" xlink:href="#m2c6aff7c0e" y="92.965241"/>
     <use style="fill:#1f77b4;stroke:#1f77b4;" x="337.109796" xlink:href="#m2c6aff7c0e" y="93.308227"/>
     <use style="fill:#1f77b4;stroke:#1f77b4;" x="338.724993" xlink:href="#m2c6aff7c0e" y="94.067173"/>
     <use style="fill:#1f77b4;stroke:#1f77b4;" x="340.34019" xlink:href="#m2c6aff7c0e" y="95.272192"/>
     <use style="fill:#1f77b4;stroke:#1f77b4;" x="341.955387" xlink:href="#m2c6aff7c0e" y="96.944114"/>
     <use style="fill:#1f77b4;stroke:#1f77b4;" x="343.570583" xlink:href="#m2c6aff7c0e" y="99.093839"/>
     <use style="fill:#1f77b4;stroke:#1f77b4;" x="345.18578" xlink:href="#m2c6aff7c0e" y="101.721894"/>
     <use style="fill:#1f77b4;stroke:#1f77b4;" x="346.800977" xlink:href="#m2c6aff7c0e" y="104.818212"/>
     <use style="fill:#1f77b4;stroke:#1f77b4;" x="348.416174" xlink:href="#m2c6aff7c0e" y="162.684547"/>
     <use style="fill:#1f77b4;stroke:#1f77b4;" x="350.03137" xlink:href="#m2c6aff7c0e" y="154.756686"/>
     <use style="fill:#1f77b4;stroke:#1f77b4;" x="351.646567" xlink:href="#m2c6aff7c0e" y="146.646935"/>
     <use style="fill:#1f77b4;stroke:#1f77b4;" x="353.261764" xlink:href="#m2c6aff7c0e" y="138.473795"/>
     <use style="fill:#1f77b4;stroke:#1f77b4;" x="354.876961" xlink:href="#m2c6aff7c0e" y="130.358336"/>
     <use style="fill:#1f77b4;stroke:#1f77b4;" x="356.492157" xlink:href="#m2c6aff7c0e" y="122.422017"/>
     <use style="fill:#1f77b4;stroke:#1f77b4;" x="358.107354" xlink:href="#m2c6aff7c0e" y="114.78451"/>
     <use style="fill:#1f77b4;stroke:#1f77b4;" x="359.722551" xlink:href="#m2c6aff7c0e" y="107.561575"/>
     <use style="fill:#1f77b4;stroke:#1f77b4;" x="361.337748" xlink:href="#m2c6aff7c0e" y="100.863023"/>
     <use style="fill:#1f77b4;stroke:#1f77b4;" x="362.952944" xlink:href="#m2c6aff7c0e" y="94.790812"/>
     <use style="fill:#1f77b4;stroke:#1f77b4;" x="364.568141" xlink:href="#m2c6aff7c0e" y="89.437306"/>
     <use style="fill:#1f77b4;stroke:#1f77b4;" x="366.183338" xlink:href="#m2c6aff7c0e" y="84.883727"/>
     <use style="fill:#1f77b4;stroke:#1f77b4;" x="367.798535" xlink:href="#m2c6aff7c0e" y="81.198831"/>
     <use style="fill:#1f77b4;stroke:#1f77b4;" x="369.413731" xlink:href="#m2c6aff7c0e" y="78.437829"/>
     <use style="fill:#1f77b4;stroke:#1f77b4;" x="371.028928" xlink:href="#m2c6aff7c0e" y="76.64157"/>
     <use style="fill:#1f77b4;stroke:#1f77b4;" x="372.644125" xlink:href="#m2c6aff7c0e" y="75.835995"/>
     <use style="fill:#1f77b4;stroke:#1f77b4;" x="374.259322" xlink:href="#m2c6aff7c0e" y="76.031869"/>
     <use style="fill:#1f77b4;stroke:#1f77b4;" x="375.874518" xlink:href="#m2c6aff7c0e" y="77.224795"/>
     <use style="fill:#1f77b4;stroke:#1f77b4;" x="377.489715" xlink:href="#m2c6aff7c0e" y="79.395498"/>
     <use style="fill:#1f77b4;stroke:#1f77b4;" x="379.104912" xlink:href="#m2c6aff7c0e" y="82.510377"/>
     <use style="fill:#1f77b4;stroke:#1f77b4;" x="380.720109" xlink:href="#m2c6aff7c0e" y="86.522295"/>
     <use style="fill:#1f77b4;stroke:#1f77b4;" x="382.335305" xlink:href="#m2c6aff7c0e" y="91.371605"/>
     <use style="fill:#1f77b4;stroke:#1f77b4;" x="383.950502" xlink:href="#m2c6aff7c0e" y="96.987374"/>
     <use style="fill:#1f77b4;stroke:#1f77b4;" x="385.565699" xlink:href="#m2c6aff7c0e" y="103.288777"/>
     <use style="fill:#1f77b4;stroke:#1f77b4;" x="387.180896" xlink:href="#m2c6aff7c0e" y="110.186645"/>
     <use style="fill:#1f77b4;stroke:#1f77b4;" x="388.796092" xlink:href="#m2c6aff7c0e" y="117.585113"/>
     <use style="fill:#1f77b4;stroke:#1f77b4;" x="390.411289" xlink:href="#m2c6aff7c0e" y="125.383353"/>
     <use style="fill:#1f77b4;stroke:#1f77b4;" x="392.026486" xlink:href="#m2c6aff7c0e" y="133.477338"/>
     <use style="fill:#1f77b4;stroke:#1f77b4;" x="393.641682" xlink:href="#m2c6aff7c0e" y="141.761625"/>
     <use style="fill:#1f77b4;stroke:#1f77b4;" x="395.256879" xlink:href="#m2c6aff7c0e" y="150.131097"/>
     <use style="fill:#1f77b4;stroke:#1f77b4;" x="396.872076" xlink:href="#m2c6aff7c0e" y="158.482656"/>
     <use style="fill:#1f77b4;stroke:#1f77b4;" x="398.487273" xlink:href="#m2c6aff7c0e" y="166.716816"/>
    </g>
   </g>
   <g id="line2d_19">
    <path clip-path="url(#p88724ed3c2)" d="M 73.832727 162.675849 
L 122.28863 162.675849 
L 123.903826 147.218394 
L 125.519023 162.675849 
L 173.974925 162.665884 
L 175.590122 147.234144 
L 177.205319 162.658859 
L 188.511696 162.675849 
L 236.967598 162.671692 
L 238.582795 147.238291 
L 240.197992 162.675849 
L 290.269091 162.675849 
L 291.884288 147.215466 
L 293.499484 162.675849 
L 345.18578 162.675849 
L 346.800977 147.211665 
L 348.416174 162.674347 
L 398.487273 162.675849 
L 398.487273 162.675849 
" style="fill:none;stroke:#ff7f0e;stroke-linecap:square;"/>
   </g>
   <g id="line2d_20">
    <path clip-path="url(#p88724ed3c2)" d="M 123.903826 307.584 
L 123.903826 41.472 
" style="fill:none;stroke:#008000;stroke-linecap:square;stroke-width:0.5;"/>
   </g>
   <g id="line2d_21">
    <path clip-path="url(#p88724ed3c2)" d="M 175.590122 307.584 
L 175.590122 41.472 
" style="fill:none;stroke:#008000;stroke-linecap:square;stroke-width:0.5;"/>
   </g>
   <g id="line2d_22">
    <path clip-path="url(#p88724ed3c2)" d="M 238.582795 307.584 
L 238.582795 41.472 
" style="fill:none;stroke:#008000;stroke-linecap:square;stroke-width:0.5;"/>
   </g>
   <g id="line2d_23">
    <path clip-path="url(#p88724ed3c2)" d="M 291.884288 307.584 
L 291.884288 41.472 
" style="fill:none;stroke:#008000;stroke-linecap:square;stroke-width:0.5;"/>
   </g>
   <g id="line2d_24">
    <path clip-path="url(#p88724ed3c2)" d="M 346.800977 307.584 
L 346.800977 41.472 
" style="fill:none;stroke:#008000;stroke-linecap:square;stroke-width:0.5;"/>
   </g>
   <g id="patch_3">
    <path d="M 57.6 307.584 
L 57.6 41.472 
" style="fill:none;stroke:#000000;stroke-linecap:square;stroke-linejoin:miter;stroke-width:0.8;"/>
   </g>
   <g id="patch_4">
    <path d="M 414.72 307.584 
L 414.72 41.472 
" style="fill:none;stroke:#000000;stroke-linecap:square;stroke-linejoin:miter;stroke-width:0.8;"/>
   </g>
   <g id="patch_5">
    <path d="M 57.6 307.584 
L 414.72 307.584 
" style="fill:none;stroke:#000000;stroke-linecap:square;stroke-linejoin:miter;stroke-width:0.8;"/>
   </g>
   <g id="patch_6">
    <path d="M 57.6 41.472 
L 414.72 41.472 
" style="fill:none;stroke:#000000;stroke-linecap:square;stroke-linejoin:miter;stroke-width:0.8;"/>
   </g>
   <g id="text_18">
    <!-- (e) -->
    <defs>
     <path d="M 31 75.875 
Q 24.46875 64.65625 21.28125 53.65625 
Q 18.109375 42.671875 18.109375 31.390625 
Q 18.109375 20.125 21.3125 9.0625 
Q 24.515625 -2 31 -13.1875 
L 23.1875 -13.1875 
Q 15.875 -1.703125 12.234375 9.375 
Q 8.59375 20.453125 8.59375 31.390625 
Q 8.59375 42.28125 12.203125 53.3125 
Q 15.828125 64.359375 23.1875 75.875 
z
" id="DejaVuSans-28"/>
     <path d="M 56.203125 29.59375 
L 56.203125 25.203125 
L 14.890625 25.203125 
Q 15.484375 15.921875 20.484375 11.0625 
Q 25.484375 6.203125 34.421875 6.203125 
Q 39.59375 6.203125 44.453125 7.46875 
Q 49.3125 8.734375 54.109375 11.28125 
L 54.109375 2.78125 
Q 49.265625 0.734375 44.1875 -0.34375 
Q 39.109375 -1.421875 33.890625 -1.421875 
Q 20.796875 -1.421875 13.15625 6.1875 
Q 5.515625 13.8125 5.515625 26.8125 
Q 5.515625 40.234375 12.765625 48.109375 
Q 20.015625 56 32.328125 56 
Q 43.359375 56 49.78125 48.890625 
Q 56.203125 41.796875 56.203125 29.59375 
z
M 47.21875 32.234375 
Q 47.125 39.59375 43.09375 43.984375 
Q 39.0625 48.390625 32.421875 48.390625 
Q 24.90625 48.390625 20.390625 44.140625 
Q 15.875 39.890625 15.1875 32.171875 
z
" id="DejaVuSans-65"/>
     <path d="M 8.015625 75.875 
L 15.828125 75.875 
Q 23.140625 64.359375 26.78125 53.3125 
Q 30.421875 42.28125 30.421875 31.390625 
Q 30.421875 20.453125 26.78125 9.375 
Q 23.140625 -1.703125 15.828125 -13.1875 
L 8.015625 -13.1875 
Q 14.5 -2 17.703125 9.0625 
Q 20.90625 20.125 20.90625 31.390625 
Q 20.90625 42.671875 17.703125 53.65625 
Q 14.5 64.65625 8.015625 75.875 
z
" id="DejaVuSans-29"/>
    </defs>
    <g transform="translate(227.78625 35.472)scale(0.12 -0.12)">
     <use xlink:href="#DejaVuSans-28"/>
     <use x="39.013672" xlink:href="#DejaVuSans-65"/>
     <use x="100.537109" xlink:href="#DejaVuSans-29"/>
    </g>
   </g>
   <g id="legend_1">
    <g id="patch_7">
     <path d="M 64.6 78.82825 
L 159.68125 78.82825 
Q 161.68125 78.82825 161.68125 76.82825 
L 161.68125 48.472 
Q 161.68125 46.472 159.68125 46.472 
L 64.6 46.472 
Q 62.6 46.472 62.6 48.472 
L 62.6 76.82825 
Q 62.6 78.82825 64.6 78.82825 
z
" style="fill:#ffffff;opacity:0.8;stroke:#cccccc;stroke-linejoin:miter;"/>
    </g>
    <g id="line2d_25"/>
    <g id="line2d_26">
     <g>
      <use style="fill:#1f77b4;stroke:#1f77b4;" x="76.6" xlink:href="#m2c6aff7c0e" y="54.570437"/>
     </g>
    </g>
    <g id="text_19">
     <!-- original data -->
     <defs>
      <path d="M 30.609375 48.390625 
Q 23.390625 48.390625 19.1875 42.75 
Q 14.984375 37.109375 14.984375 27.296875 
Q 14.984375 17.484375 19.15625 11.84375 
Q 23.34375 6.203125 30.609375 6.203125 
Q 37.796875 6.203125 41.984375 11.859375 
Q 46.1875 17.53125 46.1875 27.296875 
Q 46.1875 37.015625 41.984375 42.703125 
Q 37.796875 48.390625 30.609375 48.390625 
z
M 30.609375 56 
Q 42.328125 56 49.015625 48.375 
Q 55.71875 40.765625 55.71875 27.296875 
Q 55.71875 13.875 49.015625 6.21875 
Q 42.328125 -1.421875 30.609375 -1.421875 
Q 18.84375 -1.421875 12.171875 6.21875 
Q 5.515625 13.875 5.515625 27.296875 
Q 5.515625 40.765625 12.171875 48.375 
Q 18.84375 56 30.609375 56 
z
" id="DejaVuSans-6f"/>
      <path d="M 41.109375 46.296875 
Q 39.59375 47.171875 37.8125 47.578125 
Q 36.03125 48 33.890625 48 
Q 26.265625 48 22.1875 43.046875 
Q 18.109375 38.09375 18.109375 28.8125 
L 18.109375 0 
L 9.078125 0 
L 9.078125 54.6875 
L 18.109375 54.6875 
L 18.109375 46.1875 
Q 20.953125 51.171875 25.484375 53.578125 
Q 30.03125 56 36.53125 56 
Q 37.453125 56 38.578125 55.875 
Q 39.703125 55.765625 41.0625 55.515625 
z
" id="DejaVuSans-72"/>
      <path d="M 9.421875 54.6875 
L 18.40625 54.6875 
L 18.40625 0 
L 9.421875 0 
z
M 9.421875 75.984375 
L 18.40625 75.984375 
L 18.40625 64.59375 
L 9.421875 64.59375 
z
" id="DejaVuSans-69"/>
      <path d="M 45.40625 27.984375 
Q 45.40625 37.75 41.375 43.109375 
Q 37.359375 48.484375 30.078125 48.484375 
Q 22.859375 48.484375 18.828125 43.109375 
Q 14.796875 37.75 14.796875 27.984375 
Q 14.796875 18.265625 18.828125 12.890625 
Q 22.859375 7.515625 30.078125 7.515625 
Q 37.359375 7.515625 41.375 12.890625 
Q 45.40625 18.265625 45.40625 27.984375 
z
M 54.390625 6.78125 
Q 54.390625 -7.171875 48.1875 -13.984375 
Q 42 -20.796875 29.203125 -20.796875 
Q 24.46875 -20.796875 20.265625 -20.09375 
Q 16.0625 -19.390625 12.109375 -17.921875 
L 12.109375 -9.1875 
Q 16.0625 -11.328125 19.921875 -12.34375 
Q 23.78125 -13.375 27.78125 -13.375 
Q 36.625 -13.375 41.015625 -8.765625 
Q 45.40625 -4.15625 45.40625 5.171875 
L 45.40625 9.625 
Q 42.625 4.78125 38.28125 2.390625 
Q 33.9375 0 27.875 0 
Q 17.828125 0 11.671875 7.65625 
Q 5.515625 15.328125 5.515625 27.984375 
Q 5.515625 40.671875 11.671875 48.328125 
Q 17.828125 56 27.875 56 
Q 33.9375 56 38.28125 53.609375 
Q 42.625 51.21875 45.40625 46.390625 
L 45.40625 54.6875 
L 54.390625 54.6875 
z
" id="DejaVuSans-67"/>
      <path d="M 54.890625 33.015625 
L 54.890625 0 
L 45.90625 0 
L 45.90625 32.71875 
Q 45.90625 40.484375 42.875 44.328125 
Q 39.84375 48.1875 33.796875 48.1875 
Q 26.515625 48.1875 22.3125 43.546875 
Q 18.109375 38.921875 18.109375 30.90625 
L 18.109375 0 
L 9.078125 0 
L 9.078125 54.6875 
L 18.109375 54.6875 
L 18.109375 46.1875 
Q 21.34375 51.125 25.703125 53.5625 
Q 30.078125 56 35.796875 56 
Q 45.21875 56 50.046875 50.171875 
Q 54.890625 44.34375 54.890625 33.015625 
z
" id="DejaVuSans-6e"/>
      <path d="M 34.28125 27.484375 
Q 23.390625 27.484375 19.1875 25 
Q 14.984375 22.515625 14.984375 16.5 
Q 14.984375 11.71875 18.140625 8.90625 
Q 21.296875 6.109375 26.703125 6.109375 
Q 34.1875 6.109375 38.703125 11.40625 
Q 43.21875 16.703125 43.21875 25.484375 
L 43.21875 27.484375 
z
M 52.203125 31.203125 
L 52.203125 0 
L 43.21875 0 
L 43.21875 8.296875 
Q 40.140625 3.328125 35.546875 0.953125 
Q 30.953125 -1.421875 24.3125 -1.421875 
Q 15.921875 -1.421875 10.953125 3.296875 
Q 6 8.015625 6 15.921875 
Q 6 25.140625 12.171875 29.828125 
Q 18.359375 34.515625 30.609375 34.515625 
L 43.21875 34.515625 
L 43.21875 35.40625 
Q 43.21875 41.609375 39.140625 45 
Q 35.0625 48.390625 27.6875 48.390625 
Q 23 48.390625 18.546875 47.265625 
Q 14.109375 46.140625 10.015625 43.890625 
L 10.015625 52.203125 
Q 14.9375 54.109375 19.578125 55.046875 
Q 24.21875 56 28.609375 56 
Q 40.484375 56 46.34375 49.84375 
Q 52.203125 43.703125 52.203125 31.203125 
z
" id="DejaVuSans-61"/>
      <path d="M 9.421875 75.984375 
L 18.40625 75.984375 
L 18.40625 0 
L 9.421875 0 
z
" id="DejaVuSans-6c"/>
      <path id="DejaVuSans-20"/>
      <path d="M 45.40625 46.390625 
L 45.40625 75.984375 
L 54.390625 75.984375 
L 54.390625 0 
L 45.40625 0 
L 45.40625 8.203125 
Q 42.578125 3.328125 38.25 0.953125 
Q 33.9375 -1.421875 27.875 -1.421875 
Q 17.96875 -1.421875 11.734375 6.484375 
Q 5.515625 14.40625 5.515625 27.296875 
Q 5.515625 40.1875 11.734375 48.09375 
Q 17.96875 56 27.875 56 
Q 33.9375 56 38.25 53.625 
Q 42.578125 51.265625 45.40625 46.390625 
z
M 14.796875 27.296875 
Q 14.796875 17.390625 18.875 11.75 
Q 22.953125 6.109375 30.078125 6.109375 
Q 37.203125 6.109375 41.296875 11.75 
Q 45.40625 17.390625 45.40625 27.296875 
Q 45.40625 37.203125 41.296875 42.84375 
Q 37.203125 48.484375 30.078125 48.484375 
Q 22.953125 48.484375 18.875 42.84375 
Q 14.796875 37.203125 14.796875 27.296875 
z
" id="DejaVuSans-64"/>
      <path d="M 18.3125 70.21875 
L 18.3125 54.6875 
L 36.8125 54.6875 
L 36.8125 47.703125 
L 18.3125 47.703125 
L 18.3125 18.015625 
Q 18.3125 11.328125 20.140625 9.421875 
Q 21.96875 7.515625 27.59375 7.515625 
L 36.8125 7.515625 
L 36.8125 0 
L 27.59375 0 
Q 17.1875 0 13.234375 3.875 
Q 9.28125 7.765625 9.28125 18.015625 
L 9.28125 47.703125 
L 2.6875 47.703125 
L 2.6875 54.6875 
L 9.28125 54.6875 
L 9.28125 70.21875 
z
" id="DejaVuSans-74"/>
     </defs>
     <g transform="translate(94.6 58.070437)scale(0.1 -0.1)">
      <use xlink:href="#DejaVuSans-6f"/>
      <use x="61.181641" xlink:href="#DejaVuSans-72"/>
      <use x="102.294922" xlink:href="#DejaVuSans-69"/>
      <use x="130.078125" xlink:href="#DejaVuSans-67"/>
      <use x="193.554688" xlink:href="#DejaVuSans-69"/>
      <use x="221.337891" xlink:href="#DejaVuSans-6e"/>
      <use x="284.716797" xlink:href="#DejaVuSans-61"/>
      <use x="345.996094" xlink:href="#DejaVuSans-6c"/>
      <use x="373.779297" xlink:href="#DejaVuSans-20"/>
      <use x="405.566406" xlink:href="#DejaVuSans-64"/>
      <use x="469.042969" xlink:href="#DejaVuSans-61"/>
      <use x="530.322266" xlink:href="#DejaVuSans-74"/>
      <use x="569.53125" xlink:href="#DejaVuSans-61"/>
     </g>
    </g>
    <g id="line2d_27">
     <path d="M 66.6 69.248562 
L 86.6 69.248562 
" style="fill:none;stroke:#ff7f0e;stroke-linecap:square;"/>
    </g>
    <g id="line2d_28"/>
    <g id="text_20">
     <!-- CNN output -->
     <defs>
      <path d="M 64.40625 67.28125 
L 64.40625 56.890625 
Q 59.421875 61.53125 53.78125 63.8125 
Q 48.140625 66.109375 41.796875 66.109375 
Q 29.296875 66.109375 22.65625 58.46875 
Q 16.015625 50.828125 16.015625 36.375 
Q 16.015625 21.96875 22.65625 14.328125 
Q 29.296875 6.6875 41.796875 6.6875 
Q 48.140625 6.6875 53.78125 8.984375 
Q 59.421875 11.28125 64.40625 15.921875 
L 64.40625 5.609375 
Q 59.234375 2.09375 53.4375 0.328125 
Q 47.65625 -1.421875 41.21875 -1.421875 
Q 24.65625 -1.421875 15.125 8.703125 
Q 5.609375 18.84375 5.609375 36.375 
Q 5.609375 53.953125 15.125 64.078125 
Q 24.65625 74.21875 41.21875 74.21875 
Q 47.75 74.21875 53.53125 72.484375 
Q 59.328125 70.75 64.40625 67.28125 
z
" id="DejaVuSans-43"/>
      <path d="M 9.8125 72.90625 
L 23.09375 72.90625 
L 55.421875 11.921875 
L 55.421875 72.90625 
L 64.984375 72.90625 
L 64.984375 0 
L 51.703125 0 
L 19.390625 60.984375 
L 19.390625 0 
L 9.8125 0 
z
" id="DejaVuSans-4e"/>
      <path d="M 8.5 21.578125 
L 8.5 54.6875 
L 17.484375 54.6875 
L 17.484375 21.921875 
Q 17.484375 14.15625 20.5 10.265625 
Q 23.53125 6.390625 29.59375 6.390625 
Q 36.859375 6.390625 41.078125 11.03125 
Q 45.3125 15.671875 45.3125 23.6875 
L 45.3125 54.6875 
L 54.296875 54.6875 
L 54.296875 0 
L 45.3125 0 
L 45.3125 8.40625 
Q 42.046875 3.421875 37.71875 1 
Q 33.40625 -1.421875 27.6875 -1.421875 
Q 18.265625 -1.421875 13.375 4.4375 
Q 8.5 10.296875 8.5 21.578125 
z
M 31.109375 56 
z
" id="DejaVuSans-75"/>
      <path d="M 18.109375 8.203125 
L 18.109375 -20.796875 
L 9.078125 -20.796875 
L 9.078125 54.6875 
L 18.109375 54.6875 
L 18.109375 46.390625 
Q 20.953125 51.265625 25.265625 53.625 
Q 29.59375 56 35.59375 56 
Q 45.5625 56 51.78125 48.09375 
Q 58.015625 40.1875 58.015625 27.296875 
Q 58.015625 14.40625 51.78125 6.484375 
Q 45.5625 -1.421875 35.59375 -1.421875 
Q 29.59375 -1.421875 25.265625 0.953125 
Q 20.953125 3.328125 18.109375 8.203125 
z
M 48.6875 27.296875 
Q 48.6875 37.203125 44.609375 42.84375 
Q 40.53125 48.484375 33.40625 48.484375 
Q 26.265625 48.484375 22.1875 42.84375 
Q 18.109375 37.203125 18.109375 27.296875 
Q 18.109375 17.390625 22.1875 11.75 
Q 26.265625 6.109375 33.40625 6.109375 
Q 40.53125 6.109375 44.609375 11.75 
Q 48.6875 17.390625 48.6875 27.296875 
z
" id="DejaVuSans-70"/>
     </defs>
     <g transform="translate(94.6 72.748562)scale(0.1 -0.1)">
      <use xlink:href="#DejaVuSans-43"/>
      <use x="69.824219" xlink:href="#DejaVuSans-4e"/>
      <use x="144.628906" xlink:href="#DejaVuSans-4e"/>
      <use x="219.433594" xlink:href="#DejaVuSans-20"/>
      <use x="251.220703" xlink:href="#DejaVuSans-6f"/>
      <use x="312.402344" xlink:href="#DejaVuSans-75"/>
      <use x="375.78125" xlink:href="#DejaVuSans-74"/>
      <use x="414.990234" xlink:href="#DejaVuSans-70"/>
      <use x="478.466797" xlink:href="#DejaVuSans-75"/>
      <use x="541.845703" xlink:href="#DejaVuSans-74"/>
     </g>
    </g>
   </g>
  </g>
 </g>
 <defs>
  <clipPath id="p88724ed3c2">
   <rect height="266.112" width="357.12" x="57.6" y="41.472"/>
  </clipPath>
 </defs>
</svg>
